/* XPM */
static char *_6efd9b9ab93479da86340f8720976d8Cr8pvpo3DhrpdI6g[] = {
/* columns rows colors chars-per-pixel */
"64 64 237 2 ",
"   c None",
".  c #323F15",
"X  c #561F11",
"o  c #581F0E",
"O  c #5A250D",
"+  c #5C2211",
"@  c #513414",
"#  c #642A0D",
"$  c #652A0C",
"%  c #6C320C",
"&  c #71340B",
"*  c #783D0C",
"=  c #652A12",
"-  c #662913",
";  c #693213",
":  c #733414",
">  c #783A1A",
",  c #702514",
"<  c #702D31",
"1  c #5F382B",
"2  c #2D5B1F",
"3  c #2C762A",
"4  c #7B4216",
"5  c #744914",
"6  c #7C701F",
"7  c #5D5C23",
"8  c #725C38",
"9  c #4C772F",
"0  c #6A7939",
"q  c #717231",
"w  c #584216",
"e  c #773B5A",
"r  c #6F784C",
"t  c #7A516A",
"y  c #6B6952",
"u  c #813C0C",
"i  c #96360F",
"p  c #A82817",
"a  c #BB3327",
"s  c #991C18",
"d  c #CC201E",
"f  c #D72B27",
"g  c #D43235",
"h  c #E6262B",
"j  c #F5252D",
"k  c #F42D34",
"l  c #E83537",
"z  c #FA343C",
"x  c #F4383D",
"c  c #E12F36",
"v  c #83440D",
"b  c #8A4A16",
"n  c #965C1E",
"m  c #874925",
"M  c #8A5427",
"N  c #945929",
"B  c #905032",
"V  c #B44E38",
"C  c #8C6426",
"Z  c #A96B2F",
"A  c #916210",
"S  c #C87D17",
"D  c #B03E58",
"F  c #973F63",
"G  c #C23D52",
"H  c #FA3D44",
"J  c #F63F43",
"K  c #8A514A",
"L  c #8C6C5B",
"P  c #994F72",
"I  c #8A5976",
"U  c #92566E",
"Y  c #A24869",
"T  c #AF5167",
"R  c #846969",
"E  c #8F6475",
"W  c #B56578",
"Q  c #A27A50",
"!  c #CC4A4F",
"~  c #EE4B42",
"^  c #E84747",
"/  c #F7494A",
"(  c #EC5547",
")  c #F15649",
"_  c #EE4E54",
"`  c #F65957",
"'  c #FB4B51",
"]  c #EE614E",
"[  c #EE6459",
"{  c #F06754",
"}  c #CE676B",
"|  c #F76464",
" . c #FA7378",
".. c #F76F75",
"X. c #D05F64",
"o. c #3B8330",
"O. c #4C8D35",
"+. c #6B9535",
"@. c #759738",
"#. c #7C832F",
"$. c #6BA53E",
"%. c #79A73B",
"&. c #7DAC37",
"*. c #589B43",
"=. c #669B48",
"-. c #6A8B49",
";. c #69A848",
":. c #76AD49",
">. c #78B44A",
",. c #7BB855",
"<. c #6FAD4B",
"1. c #7CC448",
"2. c #7EC255",
"3. c #9D9A1B",
"4. c #BD8E19",
"5. c #92942E",
"6. c #B8942D",
"7. c #94AB33",
"8. c #A5B32A",
"9. c #B5AB2E",
"0. c #CE831D",
"q. c #CB8D1F",
"w. c #D5881E",
"e. c #D5881D",
"r. c #CC960F",
"t. c #D8A509",
"y. c #D0AF12",
"u. c #EBB907",
"i. c #F2BE07",
"p. c #E6B40D",
"a. c #CA8A23",
"s. c #D58B23",
"d. c #DB8E23",
"f. c #D48E2A",
"g. c #DC9025",
"h. c #DC932B",
"j. c #D5932A",
"k. c #CD8D33",
"l. c #DB9633",
"z. c #D99737",
"x. c #CE9333",
"c. c #E0972C",
"v. c #E5992C",
"b. c #E99B2C",
"n. c #E39423",
"m. c #E49C32",
"M. c #EA9E32",
"N. c #E49E3C",
"B. c #D9A839",
"V. c #D3B02C",
"C. c #EBA236",
"Z. c #ECA53C",
"A. c #E4A13D",
"S. c #E4AD22",
"D. c #F6C405",
"F. c #F4C615",
"G. c #EDCB31",
"H. c #86965A",
"J. c #AF9551",
"K. c #85B848",
"L. c #82BA5B",
"P. c #91AC4E",
"I. c #AFB851",
"U. c #919E72",
"Y. c #888965",
"T. c #8FB464",
"R. c #A7B069",
"E. c #D89C45",
"W. c #E19F40",
"Q. c #DFA847",
"!. c #E3A343",
"~. c #EAA641",
"^. c #EDA943",
"/. c #EDAC4B",
"(. c #E4A74E",
"). c #F0AC45",
"_. c #F1AE4A",
"`. c #F2B14E",
"'. c #EAAC52",
"]. c #EEB257",
"[. c #F3B454",
"{. c #F5BA5C",
"}. c #F8BC5D",
"|. c #F4B759",
" X c #EFB04F",
".X c #EDB766",
"XX c #F6BD63",
"oX c #F8BE63",
"OX c #F6BF6A",
"+X c #F8BF68",
"@X c #8CCC5B",
"#X c #8AC55A",
"$X c #97C65C",
"%X c #95C044",
"&X c #ACCB58",
"*X c #8DCD64",
"=X c #8AC563",
"-X c #92CE65",
";X c #92CC6A",
":X c #99D46D",
">X c #95D26A",
",X c #9CD673",
"<X c #96CD6D",
"1X c #A4D979",
"2X c #ACD266",
"3X c #ADE57B",
"4X c #A6E076",
"5X c #D0CC52",
"6X c #E0DB58",
"7X c #F9C066",
"8X c #F7C16B",
"9X c #F9C26C",
"0X c #F7C067",
"qX c #F9C573",
"wX c #FAC779",
"eX c #FBC97C",
"rX c #F7C270",
"tX c #C1EA7C",
"yX c #946F81",
"uX c #B76E86",
"iX c #945B82",
"pX c #EE7882",
"aX c #A9D985",
"sX c #B0DC8A",
"dX c #B3D898",
"fX c #AEE187",
"gX c #B5EC80",
"hX c #B7E78A",
"jX c #BBF186",
"kX c #BBF088",
"lX c #B9E595",
"zX c #FCCB83",
"xX c #C1F68B",
"cX c #C4EC9E",
"vX c #D4F2B4",
"bX c #DDF4C5",
"nX c #E3F9C9",
/* pixels */
"                                                          ;X                                                                    ",
"                                                        @X,XlX1X                                                                ",
"                                                      U.U.-X>X*X=X                                                              ",
"                                        @X@X>X      I E yXY.=.:.L.      aXlXlX                                                  ",
"                                        aXlX@X:.r t iXU.U.L t r <.L.  J.R.R.R.R.                                                ",
"                                        >XfX*X>.y I Y.>.5.M I K N Z f f f f g l                                                 ",
"                                        <X>X*X:.R L #.q 5 O m a h z z x x x z z h c                                             ",
"                                          :X,.+.C M @ ; % 5 a j H / / ~ ^ / x H z j /                                           ",
"                                      ;X#XK.$.#.n 4 + # 4 i h H ' ' ` { ( ) ~ x / z k                                           ",
"                              dXsX  2.@.5 5 6 C b : + # u p h ) ` ` ` / ~ ~ ) / ' H k ^                                         ",
"                              vXcX,X1.+.@ $ * v : - # % i d J { ) ^ X.! c l | | ' / z l J.L.                                    ",
"                              nXcX-X$.-.8 e K m ; $ & % p h ` } T Y iXI Y ! ....' / H j ! T.                                    ",
"                              bXaX1.=.R I U U U > # O = p k ! P F T W uXuXE } _ ) ) J z x                                       ",
"                              bXlX=Xr E K M > < ; * - X s g P P ! ^ |  .pXuXP G ~ ] / H z                                       ",
"                                vX,XR B Z M > - $ b % - , < t r 0 r X. . ._ Y D l ) ~ H x                                       ",
"                                sX,.Y.Z B.N : - $ b : X + 1 -.#X*X,.B _ [ ^ W D ~ ] ) H c Q                                     ",
"                                -X<.@.y.F.6.b ; : b b : @ 9 *X3XgX=Xq V 8 0 0 8 ( ~ J l V H.                                    ",
"                              aX:X#X&.y.i.V.; + - & v w 2 ;.3XjXjX1X;.9 *.=X,.9 V x c Z T.1X                                    ",
"                                :X>X&.3.t.r.= X - & O . *.3XxXjXjXjX<.O.*X3X4XL.0 B N @.,.                                      ",
"                                  @X1.%.3.S.Z o : v # @ =.3XgXgXjXgX:XO.*XxXkX4X*.9 +.=X,X                                      ",
"                                    2.,.%.V.a.% : & * % 9 2X:X=X<.;.*.o.;XkXkX>X:.$.,.-X*X                                      ",
"                                    aX:X@X8.V.M % % # * 4.G.P.O.*.,.*.3 O.1X>X:.<.T.sXfX-X                                      ",
"                                    1XhXsX,.7.6 = O # r.D.i.V.$X1X3X:X2.*.;.$.:.aXvXvXlX                                        ",
"                                      I.1X$XK.+.7 A r.u.i.D.F.6XjXxXgX,X:.+.5.&.hXlX                                            ",
"                                      J.I.6.a.6.@.8.u.t.p.i.D.G.6XtXjXtX6.4.s.6.$X:X                                            ",
"                                      x.x.0.s.h.9.8.y.p.t.i.u.p.p.&X3XI.s.d.d.e.9.I.                                            ",
"                                        c.g.c.m.m.j.r.u.i.D.y.t.9.K.I.f.s.h.g.d.b./.                                            ",
"                                        s.e.d.M.).^.l.v.p.y.7.5.P.5.q.Z./.{.C.v.b.                                              ",
"                                        d.e.m.C.M.^.].m.9.%X:X>.5.a./.+X9XXX`.Z.M.                                              ",
"                                        g.b.).|.{.[.{.^.B.&X@X8.j.~.9X0XoX}.[.C.Z.                                              ",
"                                        h.)._.oXXXXXwXwX/.Q.5XB. XwXeX9XXX}.[.v.h.                                              ",
"                                        h.[.9X9X9XrXeXeXqX+X|.m.].zXwXoX}.}./.w.s.                                              ",
"                                        h.[.eXeX0XwXwX0XrXwXXXl.z.wXeX0XoX}./.f.s.                                              ",
"                                        c.+XzXeXoX9X+X{.0XeXwX'.f..XzXeXrX}.XX/.c.                                              ",
"                                        b.`.rXeXoXoX}.}.wXzXzXqX/.{.zXzXwX}.{./.v.                                              ",
"                                        c.C.9XrX}.oX9X0XeXzXzXeXoX/.wXzXeX9X[.g.s.                                              ",
"                                        !. X9X9X}.9XeXwXeXzXzXzX9X|.qXzXzXeXXXj.a.                                              ",
"                                        ~.|.0XrX9XrXeXeXzXzXzXzXrX[.'.zXeXwX{.g.s.                                              ",
"                                        A.[.oXoX9XzXzXzXzXzXzXzXeXXX|.wX9XrXoX^.h.                                              ",
"                                        z.Z.{.9XeXeXzXzXrXzXzXzXzX9X[.XX9XeX9X[./.                                              ",
"                                        z.m.{.wX9X9XeXzX9XzXzXzXeX9X^.].9XrXXXW.                                                ",
"                                        l.M.XXeXoX9XeXwX9XwXzXzXeX0X/.'.9XwX].k.                                                ",
"                                        N.v.[.eX9XwXwX9X+XrXzXzXzX9XXX).qXzX|.k.                                                ",
"                                        z.v.`.9XoXwXzXeX9XwXzXzXzXeX9X).qXwX{.Q.                                                ",
"                                        N.^.`.XX}.rXzXzXrXeXzXzXzXeX9X).qXwX{.W.                                                ",
"                                        A.Z./.oX0XrXzXzXzXzXzXzXzXzXrX/.qX9X[.f.                                                ",
"                                          m._.{.0XrXeXeXzXzXwXeXzXzX8X|.rX0X+X~.                                                ",
"                                          ~.|./.|.9X0X9XzXzXzXeXwXeX{.Z.8X9XrX].                                                ",
"                                          ~.Z.C.{.rXoXoXeXzXzXeXwXeXXX^.qXrXqX|.                                                ",
"                                          l.d.b.|.oX}.oXeXzXzXzXzXwX[.Z.qXeX8X'.                                                ",
"                                          l.e.b._.0X+XwXzXzXeXwXzX9X(.g.[.wXOX(.                                                ",
"                                          l.0.n.^.9XXXrXeXeX9XoXrX9X.Xg.~.8X{.'.                                                ",
"                                          !.s.e.^.|.XX0XrX9X+X9XoX0XqXl.!.+XZ.(.                                                ",
"                                            s.n.Z.).{.0X9XoX9XrXrXwXXXs.A.wX~.!.                                                ",
"                                            l.M.Z.C._.XXoXoXrXrX9X9X`.e.f.+X/.(.                                                ",
"                                            f.c._.b.b.|.oXoX9X9XXX+X[.v.e.[..X                                                  ",
"                                            f.g.[./.b.^.0XoX9XXX|.oXXXM.g./..X                                                  ",
"                                              z.^.!.d.v._.`.`.).Z._.^.g.w.j.E.                                                  ",
"                                              z.g.w.S g._.Z.b.Z.[.C.c.s.d.c.z.                                                  ",
"                                              a.0.S S s.Z.v.n.C.^.d.0.s.n.h.                                                    ",
"                                              k.a.0.w.0.M.M.v.d.c.d.d.s.s.x.                                                    ",
"                                                z.h.d.0.g.h.c.m.h.b.m.k.                                                        ",
"                                                                                                                                ",
"                                                                                                                                "
};
