/* XPM */
static char *result[] = {
/* columns rows colors chars-per-pixel */
"64 64 248 2 ",
"   c #1B2B0C",
".  c #1F330C",
"X  c #1F2A12",
"o  c #23350D",
"O  c #253B0B",
"+  c #2A3D0D",
"@  c #27380C",
"#  c #242D14",
"$  c #292B16",
"%  c #263312",
"&  c #2B3515",
"*  c #2D3B13",
"=  c #2E3319",
"-  c #2E3919",
";  c #273A10",
":  c #303615",
">  c #333D15",
",  c #33351B",
"<  c #353B1A",
"1  c #3B3D1C",
"2  c #39391B",
"3  c #3B3621",
"4  c #3D3B21",
"5  c #383922",
"6  c #5D2612",
"7  c #403E1E",
"8  c #483A14",
"9  c #5D3D13",
"0  c #632A0D",
"q  c #6A2F0C",
"w  c #6C330C",
"e  c #74390E",
"r  c #672A12",
"t  c #6D3511",
"y  c #753915",
"u  c #762215",
"i  c #423D23",
"p  c #463C28",
"a  c #6E362C",
"s  c #571E10",
"d  c #2B4C06",
"f  c #26420A",
"g  c #2C430C",
"h  c #2D4A0A",
"j  c #274706",
"k  c #32450E",
"l  c #334B0C",
"z  c #3B4D0E",
"x  c #34450A",
"c  c #35520B",
"v  c #3C530C",
"b  c #3E590A",
"n  c #355407",
"m  c #2E4110",
"M  c #344313",
"N  c #3A4415",
"B  c #354A11",
"V  c #3C4B14",
"C  c #364118",
"Z  c #3D421A",
"A  c #3F4919",
"S  c #3C5112",
"D  c #375410",
"F  c #2E5208",
"G  c #3D4822",
"H  c #46580D",
"J  c #434C16",
"K  c #43441C",
"L  c #444A1A",
"P  c #4A4C1C",
"I  c #464619",
"U  c #445314",
"Y  c #4B5415",
"T  c #4C5B14",
"R  c #495817",
"E  c #535919",
"W  c #534E17",
"Q  c #6C4F19",
"!  c #4C6419",
"~  c #586318",
"^  c #4E650C",
"/  c #6A6214",
"(  c #444222",
")  c #4A4424",
"_  c #474825",
"`  c #485426",
"'  c #585426",
"]  c #564F2A",
"[  c #6B5C27",
"{  c #734B30",
"}  c #5C7435",
"|  c #4F6D31",
" . c #67733A",
".. c #746F29",
"X. c #7B3C42",
"o. c #5C5D42",
"O. c #747055",
"+. c #715857",
"@. c #933014",
"#. c #B2382E",
"$. c #962E23",
"%. c #D62A29",
"&. c #DE3A38",
"*. c #C83328",
"=. c #E73335",
"-. c #F6333A",
";. c #F5353B",
":. c #F82D36",
">. c #834716",
",. c #8F5616",
"<. c #876A1C",
"1. c #89721C",
"2. c #874734",
"3. c #90582F",
"4. c #AB4D34",
"5. c #886C25",
"6. c #967627",
"7. c #8C7030",
"8. c #B0742E",
"9. c #C97E17",
"0. c #C94A39",
"q. c #E4473F",
"w. c #D13D47",
"e. c #F93B42",
"r. c #8A5355",
"t. c #B74B56",
"y. c #896E4E",
"u. c #885769",
"i. c #985371",
"p. c #AB516B",
"a. c #8D726F",
"s. c #AC605F",
"d. c #D35153",
"f. c #EA4A46",
"g. c #F54747",
"h. c #EE5448",
"j. c #F1554A",
"k. c #F55553",
"l. c #E5585A",
"z. c #D65660",
"x. c #EF6A6E",
"c. c #DD6061",
"v. c #3A8231",
"b. c #55953C",
"n. c #588738",
"m. c #768438",
"M. c #6E9239",
"N. c #77A338",
"B. c #5E9F44",
"V. c #679B44",
"C. c #73994B",
"Z. c #718E4E",
"A. c #69A649",
"S. c #77A849",
"D. c #79B54B",
"F. c #7AA954",
"G. c #7BB554",
"H. c #6EAE50",
"J. c #7E8A66",
"K. c #7FC150",
"L. c #B5A219",
"P. c #978F32",
"I. c #BD8832",
"U. c #B18728",
"Y. c #8CA535",
"T. c #AEAC31",
"R. c #A5941A",
"E. c #CD851D",
"W. c #D4881E",
"Q. c #CE9A12",
"!. c #DCAA0B",
"~. c #CFAE15",
"^. c #EAB709",
"/. c #EAB80E",
"(. c #C78928",
"). c #D58B22",
"_. c #D98D22",
"`. c #D58F2A",
"'. c #C89429",
"]. c #DD9125",
"[. c #DD942C",
"{. c #D59326",
"}. c #CA8D32",
"|. c #D69737",
" X c #CE9035",
".X c #E2962A",
"XX c #E3972A",
"oX c #E39C34",
"OX c #E99E32",
"+X c #E29F3D",
"@X c #CAA630",
"#X c #EBA43B",
"$X c #E9A137",
"%X c #ECAA33",
"&X c #F2C20A",
"*X c #E9CB30",
"=X c #899845",
"-X c #84BA5C",
";X c #8BB34B",
":X c #ACB94B",
">X c #8FAF69",
",X c #ABB16B",
"<X c #9D8D63",
"1X c #D2AE43",
"2X c #EBA641",
"3X c #EDA943",
"4X c #EDAC4A",
"5X c #E5A545",
"6X c #F1AD48",
"7X c #EAB355",
"8X c #F3B353",
"9X c #F3B65A",
"0X c #F5BA5D",
"qX c #F8BB5D",
"wX c #EEAF4F",
"eX c #F6BD64",
"rX c #F8BE64",
"tX c #F5BF6A",
"yX c #F0B760",
"uX c #87C45D",
"iX c #A6C656",
"pX c #8CC763",
"aX c #93CB67",
"sX c #98D36C",
"dX c #99C674",
"fX c #9CD871",
"gX c #A4D978",
"hX c #A5CA6F",
"jX c #ACE47A",
"kX c #B3E57B",
"lX c #F7C16C",
"zX c #F8C26C",
"xX c #F9C067",
"cX c #F9C574",
"vX c #FAC779",
"bX c #FBC97D",
"nX c #F7C271",
"mX c #CDD658",
"MX c #AF6981",
"NX c #E17481",
"BX c #ADD488",
"VX c #ADE382",
"CX c #B6EB85",
"ZX c #BCF186",
"AX c #BCE299",
"SX c #FCCA82",
"DX c #C3ED93",
"FX c #CBE9AD",
/* pixels */
"i p p i i 4 1 K U H H H + + > & * m * - m j h k h h B V.aXBXpXo._ _ p 2 , & & : K < 2 , , < < - C C N M > * * > C A Z < Z 1 1 i ",
"i 4 3 1 4 1 Z N D H ~ U @ @ @ # % = m B D c h c H U O.>XdXfXaXG.| i p 3 5 1 * M N K 1 & : Z 2 1 Z Z A Z Z S B 1 Z K ( 1 1 i p ) ",
"p i i 3 3 1 1 V H ! U + & g # X = 2 K S.G.G.! F G o.a.a.<XC.S.-Xo.= 1 Z.,XdXZ.> U J 1 > m M Z 1 , 5 1 , > N V > > C C 4 Z i p ) ",
"i ) ( i 4 K Z C S R J & : M @ # > 7 ` dXVXaXA. .+.MXa.<Xa.O.O.A.S.` [ ,X,X,X,X .V N 1 1 M M Z Z < 1 Z > * k B M M C M Z K ( ( 4 ",
"i ) ) ( p K C 1 N Z > & k * # # M 1 ` aXVXaXG.O.+.a.;X=X3.u.r.3.6.4.*.0.d.0.f.2.8 > I J M B V A M > > Z C C B B M Z < 4 i 4 i 5 ",
"3 i ) ) ( G K N < = & @ @ & = & k > ` -XfXpXD.O.+.Z.m.[ w { 4.*.=.;.-.;.=.=.;.%.#.2.K I M M A A M > > < < C C > 1 < 1 4 ( ) i 1 ",
", 5 2 A ) i 1 < < , = : & = = ; M 2 _ } pXG.C.7.y.] t t e @.*.-.g.g.f.f.g.;.;.;.:.=.2.P J Z 1 > > > 1 2 5 Z < , , 2 , C ( ) < < ",
"1 2 Z K ) ) i 1 2 < = , < = = * k ` A.S.;XS.m.,.>.r r y @.*.;.g.g.k.j.h.h.h.e.g.;.-.#._ K A A C M < < 1 G C < , 5 1 Z K K 1 Z > ",
"K 7 _ K 7 ) ) i 1 2 , , , _ >XJ.R V.S.......7.,.e 0 0 e @.%.g.k.k.k.k.j.f.f.g.g.e.e.=.2.K K K N N > , 2 1 1 > 1 < A Z 7 < < - > ",
"V 7 ) K 1 7 i 1 Z 1 2 : $ ] FXAX-XK.M.9 w >.>.y r 0 0 @.*.=.j.j.g.l.z.=.=.g.x.k.g.e.;.0.=X .Z Z K 1 < , > 1 1 1 2 Z Z Z > * % % ",
"z N ( _ K 7 i i 1 4 1 = = o.FXAXsXA.Z.[ a 2.>.y 0 q q @.%.=.c.z.t.p.i.t.t.l.x.k.g.g.-.=.<XC.1 C J L 1 < > 1 , 5 G K < < > * g @ ",
"^ M < ( I K 7 1 2 , , < $ o.FXVXK.C.O.u.u.u.r.y q 0 0 @.%.f.p.p.p.i.MXMXMXz.x.l.j.g.;.e.4.' I V B K A C - < 5 4 Z < > , , : k B ",
"b l + Z K P Z 1 1 < < < $ o.FXAXG.Z.a.r.2.r.X.y w 0 6 @.*.t.i.p.d.z.x.NXNXa.t.f.j.j.g.-.#.K K N N C C - - 5 G Z V k m < , * * k ",
"n b l V I Z < Z _ i 1 4 , 5 J.AXdXO.r.3.3.y r r @.w s u $.r.+.r.y.z.x.x.x.p.p.w.f.j.g.e.#.A N N A Z , = = 5 , 1 V S S - # + g k ",
"n ^ b v J N Z K ( ( i i 5 = G BXpXa.3.I.3.y r 0 >.y 6 6 r +.F.K.H.y.d.x.k.z.p.*.h.h.h.;.4...K 1 < C C = = , 5 , A D V * & g f d ",
"b H b z K Z Z Z K i G ( G 5 ` pXG.=X'./.8.>.t q >.>.q 6 ' A.sXkXaXm.4.t.s.7.+.d.h.g.;.=.t. .K N Z C C = = = = - - - % * M B O d ",
"m v S A K Z Z K M < Z Z < ` F.aXG.Y.~.&X~.>.0 r e >.e J n.uXkXkXgXS. . .V.F.V.3.f.e.&.8.,XC.> 1 5 2 , 5 < , , = : - - ; C - % m ",
"> A L K 1 1 Z N > : Z > * ( Z.aXpXN.L.^.L.e s r w w I | G.kXkXDXCX-Xb.B.pXsXF.m.4.4.4.=XS.} N Z , , 1 3 i < , : > - < * % # = % ",
"Z Z K ( 1 Z K Z Z Z J l m * , Z.pXD.Y.L.Q.,.6 r e q 8 n.fXkXDXkXZXfXB.H.jXCXjXH.} ..M.uXZ.8 Z < , , , 3 3 3 i 5 > < = = m X % - ",
"Z Z K Z 1 J J V J V z c g m = , n.K.N.Y.@X8.t t e e w } pXjXfXsXpX-XB.H.VXZXkX-XB.b.D.sXC.K 1 1 : , = , 1 p i 3 1 1 $ * C = = Z ",
"K K K Z Z V J M x x z h h f : & G -XuX;X@XQ.Q e q w w / iXiXA.B.A.B.v.b.aXkXaXG.S.-XdXgXC.8 7 Z > < < * 3 p i p ) ( 1 < C < 1 ( ",
"< 1 < Z A N V B x n l k l l M # G gXkXfXiXT.5.t 0 0 ,.!.&X@XS.G.pXuXB.b.H.uXD.G.dXDXFXdX| 7 1 1 > > < 2 < 4 i p p ) p ( G 5 ( ( ",
"< = N J J V M M z H H H ^ b v ; C Z.hXgXpXY.m.Q q ,.Q.&X&X/.mXjXCXjXsXG.B.N.C.pXDXBXF.} 2 1 1 1 Z > < = > 4 p i i p ) ( ) i i i ",
", , L J N U S M z H H H ~ b k g . C <XiX:XY.Y...R.!.^.^.&X&X*XmXZXZXjXiXP.P.R.:XVXC.x B Z 1 1 1 K Z > & > 1 i ( 4 ) ) ) p ) ( 4 ",
"M > Z C > z S v J R v c b n k * m G I.:X(.E.'.Y.T.~.!.!.&X&X&X*XmXkXkX1XE.).).T.iXZ.z U C N 1 N 1 K Z 1 > M N K L ) _ 7 7 i i i ",
"C > : > k k V Y I L z l v z J C m > 5.`.).].[.@XL.~.^.^.&X&X!.~.T.sX:X'._._.).).@XP.l V N N N I Z < 1 K > > V N K ) _ ( 1 2 3 3 ",
"2 , , N J N J P I K Z M B N I K C = 7 9.].].OX#X+X_.!./.&XL.R.T.Y.T. X|.$XOX].XX X[ > C N J U Y M : M B > Z A A N K K G 7 i 2 3 ",
"2 , , K I > N I P K 1 C M > Z K - # 4 9.W.].OX#X3X5XoX~.L.:X=XY.T.}.5X7X0X8X$XOX<.% * : 1 N U U V + g M B J K A N B N C K ( i p ",
"i 2 1 2 1 M M K P P Z C C C 1 Z * ; I E..XoX3X3X6X8X#X@X:XaXuXT.'.3XrXtXeX9X3X%X6.$ $ = > * = M x g O g B A Z > M M M Z N K ) ) ",
"i 1 1 , < C C > J Z Z > > > 2 V l O Y ).$X3X9XqX9XeX9X5X1XiXT.@X4XtXzXrXeX9X3XOX6.$ X & Z > * g c k + D V : = > Z Z > C ( i ) p ",
"3 5 3 1 2 1 1 K J Z 1 > B k > M V M I }.6X8XrXrXeXvXvXeX7XmX#X5XtXSXzXrXqX8X#X.X<.; o : M V k k l M * U U m + - < Z < 2 1 4 4 i ",
"3 2 3 i 1 i i K _ I 2 Z J V C C v J P (.8XxXcXzXtXSXcXcXnXeX$X5XtXSXzXrXqX8XoXW.<.+ * * > z g g M A T T V g O - < 1 1 1 2 1 ( 3 ",
"i 1 5 3 i 3 1 L Y I J K J V C > J E W (.9XbXbXxXcXcXeXtXvXtX5X|.7XSXtXtXrX9X5X.X<.< 2 > > > O + M > ! ~ c l B M & 1 Z ( Z K i 3 ",
"p i i i p i K I P J V J J J K Z Z I W }.9XvXvXxXxXrXqXtXvXbXeX+X4XvXSXvXeXrX9X#X5.< > k > + O + & # L ! B S M * % M K K i 1 4 i ",
"p p ) p ( i K N A Z V B K 7 1 ) 7 1 W `.6XzXcXxXeXrXeXcXSXSXvX0X7XtXSXSXtXrX4XOX<.< 1 M * + x + - > R ! V V M + ; * < 2 1 K i i ",
"i i p p 1 i _ V Z ( K B Z i i ( ( ( ]  X#XeXzXqXrXzXlXvXSXSXbXcX7XtXSXSXcXeX+X_.<.> K N * > z S C A R ` R R V V V M B > > K 1 1 ",
"3 3 3 p 3 3 1 N Z _ P Z Z N A ( ( 4 ] |.8XxXzXrXzXcXvXbXSXSXSXcX0XeXvXSXSXzX2X).<.z 8 1 : z S V B S L E ! R Y U V B M g l C : , ",
"= 3 3 = , 1 1 1 Z K K Z A U S A K i ] +X9XeXxXzXcXvXbXSXSXSXSXvXyX8XtXbXcXtX2X.X<.z 1 < N C V U ! b R E E Y J N : M g M B V * $ ",
"$ $ $ , , 3 1 1 1 1 ( 1 1 K Z Z ( 3 ]  X8X0XxXcXbXSXSXSXSXSXSXbXzX0XtXzXnXzX8X2X6.x N > N J J E T H Y E ~ E U N 1 M M N l - = = ",
"X $ $ $ , 1 1 < 2 1 1 1 ) ) ( K ( Z ]  X#X9XzXcXvXbXSXcXbXSXSXSXcX9X9XtXcXnX9X5X..n n M I Y N J U U R ~ ~ ~ R I I N M V M O * = ",
"$ X % & : < 1 Z Z 1 K 1 K ( Z K L ( ' }.OX9XcXtXlXvXSXcXvXSXSXSXnX8X4XeXnXtX4X6.x x n z Y P I K K L Y T Y Y L Z Z > k Z > + @ $ ",
"; * M M : & : > Z C J K Z K V I L _ ' }.OX0XvXtXxXvXvXlXcXbXSXSXnX8X4XyXvXtX5X[ + V l U Y J K ( ( I P Y V N S B M N V N 1 1 %   ",
"M k * : : $ # & & & + 1 1 1 J N _ i ]  XOX8XcXzXcXvXcXlXlXbXSXSXcXtX8X0XbXtX2X[ + z z z N N N K I ) I R U N V B 1 I S J M > : o ",
"+ + + @ x k + ; > * + > K > < C > 1 )  XOX6XrXrXcXSXbXlXvXbXSXSXbXnX8X0XvXeX8X5.. + z x N I N N I K K L J N M N Z 1 N A C Z Z M ",
"+ x j d l n d O l H l g M N M Z C : p |.3XwXrXqXlXSXSXcXvXSXSXSXbXcX8X9XvXtX6X5.# + x k V J V J J V K K 1 1 Z K i i 1 Z Z 1 1 < ",
"k g l d d n d O j l g k - > > < K 2 I I.#X6XeXrXnXbXSXSXSXSXSXSXSXcX9XeXcXyX#X[ @ x J k V V B B V J I K i i ) K ) K K 7 1 1 1 Z ",
"M M z l F F j O O O o & = , = , K J > ' |.6X9XeXlXvXvXSXSXbXvXSXSXnX9XeXzXeX8X5.+ z x O > V g V N N V A 1 3 ( ( 1 I K 7 1 Z I J ",
"& > z F d l j O g o # # : > & : 1 K : K |.8X4X8XxXxXzXbXSXSXbXvXbXzX6X9XzXlXrXP.x + @ f z H g k N J B > 5 i 4 K K K Z K 1 < 1 Z ",
"= & k g g k + g + = & + * & * : > N k Y |.#XOX9XtXrXrXcXSXSXbXvXbXtX6X0XvXtXeXP.x j o + v v h h B N V M 5 4 4 , , i 1 1 , , , , ",
", , > * k + + f O # $ > > @ @ @ > M M J }..XOX8XrXrXrXvXSXSXSXSXvXeX2X9XvXnXyX7.O O O o h h m + > M M > < 4 < < , 2 3 5 3 , , , ",
", : : & + k k > M # X > k O o . @ + + I (.).XX6XrXtXnXbXSXbXvXbXcX9X|.2XtXnX9X7.. @ % O g o * * C U m + m > ; M : , 3 ( i 1 , 2 ",
"1 1 1 : * > N J B * @ * l + O @ @ @ @ U (.)._.2XrXrXzXvXbXcXxXlXtXtX+XoX9XeX8X7.O k % * k k + M B S m g O & M > * , 3 i ) ( 1 3 ",
"K I K 7 J N C V B > M M g + + g j @ @ x I.).W.$X8XeXeXzXcXzXxXtXtXcX5X|.9X8X4X7.M S - * C m ; - k O * m O % * M , 4 4 4 ( _ , 2 ",
"L K 7 7 W I Z 2 1 M V M g + k g O O x O L E..X#X6X8XrXzXxXeXlXnXtXtX+XoXyX7X2X7.l A k g > m * B B g O m O o o ; , 1 K i ( _ 1 , ",
"K K 1 1 J I N < > M C + k M D g O o x + * I.OX#X#X6X0XrXrXxXlXlXtX0XoX).wX9X5X7.v R c g l c g g O g h h g f g * Z 1 I ) _ I 1 2 ",
"K K I K N J J Z < > M k g g M k f o x + + 8.$X#XOXOXwXrXrXzXlXxXtXyXOX).5XrXP.z M B c k h h g O + M g g h l l J K K I P _ K i 1 ",
"K K J K K J N < 2 k k - h M * M g m B m > 8.[.4X4XOX2X0XxXxXxX9XrXrX2X].+X0X7.  % + + g g O O % ; m f g g h l U N K W P K _ ) i ",
"K K N N Z N N K 2 > M + m > > M * * f O o W }.3X5X.XXX4X8X8XwX3X6X6XoX_._.5X5.. o * M g O O ; % * h h g k c v T J K P I K K ) i ",
"I J N N K N V 1 1 N B + + k M M ; g h g O 1 (.XX).E._.#X#X%X#X3X2XOX_._.].XX..f & * k g % O o % k F d m k F c V J J J J J J K K ",
"I Y V V J J V > 1 J l O O g M M m h c k * K 8.W.9.9.).$XOXXX$X3XoX).)._.XX6.U h k : M g O o . * D g f * g h l B Y U U H z L I K ",
"K K Z Z K A V k N V d f O + > M D D h g M L 8.(.E.E.E.XX$XXX.XXX].).).).{.1.F c l > > M     . h k g h g O l b H ^ v J T U I K K ",
"4 1 Z 1 K Z M M V k j f + f > B S S c g N L / '.`._.)._.XXXX[.[..X.X[.1./ H c v V N > > %   % g f f g h h c c c V x J E P K i i ",
"i ( ) Z Z ( 4 > > > k d k M N k B c c M A S n ~ / ^ / / / E / Q Q [ [ H h + B M > > = < - # ; O g d g f h b l f * N J P ) 7 ( 7 ",
"i p ) K Z K K J Z k g g g M M g ; g B B B D F d n d . . j f ; , 3 2 , I B o & 2 , - - < < = ; g g h g + g v h O + C > K K 7 7 ( "
};
