/* XPM */
static char *ed5a5ffd065845f18aee64cae5ede05dlCzj2gVVwi80UWdg[] = {
/* columns rows colors chars-per-pixel */
"64 64 187 2 ",
"   c #271E17",
".  c #261E1C",
"X  c #2B1F1C",
"o  c #371F14",
"O  c #381F12",
"+  c #1B260F",
"@  c #1C2B0D",
"#  c #1E3109",
"$  c #1D2412",
"%  c #1D2910",
"&  c #202E0F",
"*  c #3D220E",
"=  c #263E07",
"-  c #23350D",
";  c #28370D",
":  c #263B0C",
">  c #2A3D0D",
",  c #323E0F",
"<  c #232616",
"1  c #2A2315",
"2  c #242C14",
"3  c #2B2C15",
"4  c #24241C",
"5  c #2C221B",
"6  c #252A1A",
"7  c #2A2D1A",
"8  c #332315",
"9  c #3C2213",
"0  c #332914",
"q  c #392C16",
"w  c #32231A",
"e  c #3C241B",
"r  c #332C1B",
"t  c #3C2D1C",
"y  c #253212",
"u  c #2B3514",
"i  c #273A10",
"p  c #2D3B12",
"a  c #2D331A",
"s  c #2E3A19",
"d  c #313616",
"f  c #393617",
"g  c #333D15",
"h  c #393E17",
"j  c #33351B",
"k  c #3A361D",
"l  c #353B1A",
"z  c #3B3D1C",
"x  c #252420",
"c  c #2F2121",
"v  c #3F2920",
"b  c #3B3621",
"n  c #3D3B21",
"m  c #45230C",
"M  c #4C250D",
"N  c #4D280E",
"B  c #52270D",
"V  c #542A0C",
"C  c #5C2D0D",
"Z  c #5F300E",
"A  c #422313",
"S  c #492612",
"D  c #432A16",
"F  c #492C16",
"G  c #442A1B",
"H  c #492A18",
"J  c #542B11",
"K  c #5B2E11",
"L  c #43311C",
"P  c #4F351F",
"I  c #413D1E",
"U  c #5F3010",
"Y  c #55321C",
"T  c #59351F",
"R  c #56391C",
"E  c #5F3B1E",
"W  c #622F0D",
"Q  c #62300D",
"!  c #6A340F",
"~  c #622F12",
"^  c #653312",
"/  c #6C3512",
"(  c #6D3916",
")  c #61361D",
"_  c #643C1F",
"`  c #6C3A1C",
"'  c #713612",
"]  c #743B14",
"[  c #7A3E16",
"{  c #753C19",
"}  c #793E18",
"|  c #4C2F21",
" . c #403724",
".. c #4F3223",
"X. c #433D23",
"o. c #603E20",
"O. c #2B4B07",
"+. c #26410A",
"@. c #2C430C",
"#. c #2E4A0A",
"$. c #304D07",
"%. c #31450E",
"&. c #334B0C",
"*. c #394D0E",
"=. c #2F5105",
"-. c #335207",
";. c #385107",
":. c #35520A",
">. c #3B530C",
",. c #3D5C09",
"<. c #2E4111",
"1. c #344313",
"2. c #384515",
"3. c #3A4415",
"4. c #3B4714",
"5. c #3D4617",
"6. c #354911",
"7. c #3C4B13",
"8. c #3A4914",
"9. c #3E4915",
"0. c #374118",
"q. c #3B4119",
"w. c #3B411A",
"e. c #3C4318",
"r. c #3F421B",
"t. c #3B411C",
"y. c #3D421D",
"u. c #3D5210",
"i. c #3D5211",
"p. c #404D0F",
"a. c #42550D",
"s. c #48550E",
"d. c #445A0B",
"f. c #42590C",
"g. c #48580C",
"h. c #495C0D",
"j. c #404617",
"k. c #414D15",
"l. c #424C15",
"z. c #484D17",
"x. c #41441B",
"c. c #41421E",
"v. c #42441C",
"b. c #48471F",
"n. c #434919",
"m. c #444A1A",
"M. c #494B1C",
"N. c #425611",
"B. c #445214",
"V. c #425414",
"C. c #485411",
"Z. c #4B5416",
"A. c #435910",
"S. c #485A10",
"D. c #4C5A13",
"F. c #455118",
"G. c #4C511A",
"H. c #4D5E1A",
"J. c #545D11",
"K. c #525D16",
"L. c #545E1A",
"P. c #7C4017",
"I. c #7D421D",
"U. c #44610B",
"Y. c #4E610B",
"T. c #52620D",
"R. c #58670D",
"E. c #58690D",
"W. c #4F631B",
"Q. c #5D6A11",
"!. c #506419",
"~. c #5B611B",
"^. c #424122",
"/. c #444221",
"(. c #454122",
"). c #484423",
"_. c #4A4325",
"`. c #4B4526",
"'. c #494921",
"]. c #754321",
"[. c #7E4520",
"{. c #804217",
"}. c #84441B",
"|. c #8A471D",
" X c #85481C",
".X c #88491E",
"XX c #824722",
/* pixels */
"X.X.X.X.X.n z z n.N.f.g.*.@.p g u p <.p g 1.O.$.%.&.#.> ; <.2.x.).`.`.`.n l p u l e.z k k l l l l g 2.2.2.g p p g 1.e.e.z w.z z ",
" .X.X.n n n z z 5.i.S.J.p.> ; y y u p p <.#.#.#.&.>.>.@.; g e.(.X.X.X.X.b j u u g e.e.z j p l l l z y.e.w.w.8.2.z w.x.c.z z z X.",
" . .X.n n n z z 9.N.D.C.g i > y 2 a l g p #.:.:.:.:.&.$.#.1.z X. .n j k k j j g 2.l.n.e.g p 1.z z l k t.l l 8.7.g l w.t.z y.X.X.",
" .X._.(.n n y.w.2.V.D.9.u p 1.y 2 l z z <.$.:.:.:.O.#.:.:.&.g z X.k < l I z z w.9.l.e.z l 1.1.e.e.l l z l p 2.6.2.1.1.1.w.c.^.^.",
"X.X.`.`.X.(.x.w.w.5.e.l p g p y y 1.e.e.6.;.>.i.&.#.$.;.:.:.#.p k l < k X.X.I e.2.5.e.e.e.1.6.9.9.w.g g z 1.1.6.6.1.g z z ^.X.X.",
"z n X._.).(.c.e.w.l j u i ; u u u 1.w.x.l.>.N.7.@.@.#.&.&.:.$.@.g k 6 n X.X.X.e.2.w.w.x.m.2.2.8.9.2.g g l z w.2.1.l l k z ^.(.X.",
"k k k z (.(.^.y.l l a u u u u a i 1.z v.n.&.%.1.@.- - @.&.&.&.@.; l 6 k z ^._.(.v.e.w.c.b.x.w.w.0.g g l l l w.l l l l l z (.(.c.",
"z k l w.v._.(.I k l j a j j a a p 1.e.b.m.1.> %.%.- - > @.&.&.#.> g 6 a l ^._.`.).b.c.c.'.b.v.e.0.1.l l k z w.l k k z z y.c.c.z ",
"l.y.z b.c.X.).(.X.z l j j j a a u 1.l.M.M.8.1.7.2.@.; %.%.*.;.#.i g 1.l z X.X.(.'.'.(.b.z z v.b.5.2.z j l z w.z k z e.e.c.z l l ",
"i.5.^.).c.I (.(.z z k k j j j l u z m.b.b.v.n.m.9.&.1.5.x.l.;.#.y a 1.l z z X.c.(.(.(.(.l l y.x.e.e.z l l z z z k z e.e.e.l u u ",
"*.7.e.(.(.c.I X.z z z l a j b z l l z I (.(.c.c.n.7.1.x.b.F.>.#.u 7 @.p g l c.e.c.b.b.).b.v.y.w.5.n.x.z l l l l k z y.z l g i > ",
"d.f.2.z v.b.c.I z k k j u j n k l l z z X.(.z z x.7.2.w.b.F.&.$.u a &.@.%.w.e.e.2.2.x.b.l z b.x.2.8.n.e.l g l l b y.w.g l j g 1.",
"d.d.%.g e.b.x.z z z l l j j k k k j z z z c.v.c.x.*.%.1.v.F.:.$.u a *.$.>.l.x.m.9.1.0.b.a a b.x.2.2.5.0.g s l n t.8.2.1.l j p p ",
"#.:.:.&.5.x.x.z y.^.z z k j k j k j h h a 7 m.v.2.6.&.2.v.F.>.$.u u *.&.B.F.e.b.n.g l v.a a v.e.w.e.5.l j l l b t.7.i.7.g a i > ",
"$.,.,.;.*.l.e.e.c.(.(.^.n k j j j j g w.a 2 x.e.w.7.7.5.e.2.&.@.p 2.7.2.7.7.1.e.z j l w.7 a m.5.w.w.w.g j j j j l 5.i.7.p u @.@.",
"&.,.U.,.7.x.e.e.y.^.^.^.^.y.l l l l g g a 6 l l l 5.2.2.e.1.&.%.p %.&.1.%.@.p z w.0.l l a a n.5.e.z l g a a j j a g 1.p p g <.@.",
"; 6.f.i.5.c.y.e.e.z z e.y.y.e.w.e.e.l l a 6 l u p g 1.1.2.%.%.6.1.1.> p 1.%.g l w.5.l z a l 5.w.w.z l l k j j a a a s u i 1.<.i ",
"u g 7.l.v.z z e.e.g g w.g l l l k z e.w.a < g u u w.2.i ; @.> %.1.g p g 2.2.w.l g z e.c.m.e.a w.w.j j k n k k j j g s g p u u y ",
"l w.e.v.c.k z e.e.w.w.2.%.p g j k y.m.e.l j g g g w.2.; - @.; > %.p g 7.7.i.l.5.2.5.x.b.b.c.6 w.z j j k n n k z k l a a u p y y ",
"x.e.e.c.y.z x.l.e.9.l.*.&.#.p j j w.n.2.g z 6 j z l > +.+.> u ; %.@.<.6.7.>.7.9.i.N.m.b.b.y.6 z l j j j j n X. .n z l a u 1.u a ",
"m.x.y.e.e.e.9.l.2.6.&.&.&.@.> u u g w.2.l l 6 j k g > : : i - ; @.%.%.p 7 2 7 g 7.7.l.M.n.z 6 z z g l l d z X. . .X.^.k l 0.l l ",
"w.e.z w.e.e.8.7.1.%.*.&.&.$.#.1.u u u g l j 6 j k j y - & y - i > #.1.I | | c 7 w.2.l.l.5.l 6 z z g g l l k X.X.X.(._.X.c.z z n ",
"g l k w.n.l.9.2.2.*.a.>.a.d.:.6.i y u l j j 2 a j a u u @ @ y g #.1.3 _ |.|.G 7 w.1.7.7.7.g 2 z z z g l j l n  .X.X.X.(.(.(.X.X.",
"1.l j x.n.9.i.7.2.7.d.h.T.E.,.&.p ; u j j j p u u 2 y y i - - 2 2 f ].( / / e 7 g 1.&.>.7.e.z z z y.w.l u p z X.X.X.X._._._.(.X.",
"5.l l e.5.2.i.i.7.l.N.a.,.h.:.#.p p p l l l u 2 $ + y y y - d P ..T I./ W W S 0 u g 2.7.l.5.e.z z y.^.z g g 1.e.c.(.(.).).X.(.(.",
"e.1.g g g 1.2.i.F.m.F.*.$.:.>.7.1.g u a j l g u & y u 5 5 5 G  X.XI.Q W W W V A 5 g 7.7.7.5.5.e.5.w.z z e.z g 2.5.v.).(.^.z z n ",
"w.l j j w.9.1.l.M.b.x.2.7.*.7.m.e.g u u j g 2.1.1.2 R [.I.I.I./ / ! W Q C V m J ].L u 2.2.2.7.l.l.w.g 1.2.g g 2.2.e.b.v.c.I z k ",
"z l k j x.l.w.5.M.b.b.w.1.1.h c.x.g u u j w.2.1.g P ` [ [ [ ] Q W W Q C N M K / ] e 2 p g h 5.F.F.2.p %.&.2.5.n.5.5.8.5.w.c.(.X.",
"X.z k k z z 1.w.x.M.b.e.1.1.g z w.p u p g 1.&.g v I.] W W W Q Z Q W Q V m m ] {.Z e 3 u u g g 0.2.&.@.; @.6.5.e.w.2.2.2.w.e.b.(.",
"(.X.z k l l 1.1.w.n.e.e.w.g g z 5.%.> 2.7.7.u R I./ Q W W W Q Q Q W W C C C ^ Q Q Z F < p g g i <.&.#.> &.2.g l l w.w.1.w.v.^.(.",
"X.b b z l l z z e.x.z z g 1.1.g 2.7.%.2.l.>.2 G ^ B B B B C W W Q Q W W W Q W W W V S 8 3 g 1.1.#.&.&.> 7.F.1.p g l w.l l z X.X.",
"X.b b n z z n I b.m.x.z w.8.8.1.1.7.5.w.e.7.3 9 N N N N N V C C C Q Q Q Q Q W Q W M m M e f 7.&.@.%.2.F.B.7.@.; p l z l l l z y.",
"X.n b b n n n z b.M.m.e.e.l.9.1.0.F.G.e.u 1 * ^ }.}. X X}.U m m V Q Q Q Q W Q Q W M V  XXX_ 3 > @.2.2.H.!.7.&.%.g g z z y.z c.c.",
"X.X.n n X.X.n y.m.m.l.l.l.l.l.e.z x.G.g I ) / ] ] ] [ { ] ] ( ( ^ W W Q W Q Q C B ^ ] ] ] / D d p p u l.W.i.i.6.p u g e.(.^.z z ",
"X.X.X.X.X.X.X.c.n.x.e.9.9.x.c.c.c.y.x.t )  X X] W Q W W W ]  X X/ W W W C C C C B } P.Q Z W C w y u u l.H.7.7.1.p u p z z n z n ",
"X. .X.X.X.X.^.v.x.x.c.n.2.e.X.X.(.k r ].] ^ ^ Q Q Q W W Q Q Q Q Q W W W C m A J }.( Q Q Q Q Z w u 0.0.F.H.B.F.7.2.1.1.1.g g x.X.",
"b b b  .n n n y.9.x.b.m.2.w.e.c.b.l 5 / / Q W W Q Q Q W W W Q W W W W W Q ( ( ] ] Q W Q Q C V 5 u 8.7.F.H.H.Z.F.F.7.6.1.@.%.2.z ",
"j k b b k k b z w.e.b.b.e.5.l.l.v.z 5 K C C C C C C C Q W W Q Q W W Q W ! }.}.[ Q W Q Q W V m r 1.A.N.F.H.L.Z.l.9.w.2.%.@.&.2.g ",
"< 7 j j j j b k z z c.^.z e.n.e.e.z 5 K V m m m m m B Q W W W Q Q Q Q Q Q Q Q Q Q W W Q V A 5 n.D.D.A.Z.L.L.Z.l.w.g 1.1.1.6.1.p ",
"$ 6 6 7 a j k k z l z z z (.(.c.v.k . m ~ { { { { { U M M C Q W W Q Q Q Q W W Q Q W W V M J _ I 9.D.N.Z.~.~.L.S.l.x.w.2.7.2.> u ",
"2 2 2 y u d l z w.z z z z c.(.c.e.I G J ( }.}.}.}.}./ J J C Q W W Q Q Q Q W W W C C C N B / I.G f l.l.Z.K.K.K.Z.l.x.w.1.2.1.p u ",
"- - ; p g d d l z e.e.x.v.e.c.x.7 Y  X.X] Q Q W W W } |..X] W W Q Q Q Q Q Q Q C B B N M P.{.W ~ H 5 n.M.Z.l.l.l.2.w.w.2.2.z g u ",
"> @.> <.g u u u g l g 1.y.e.z j o.` ' ] ! W W W W W / ] ] ! W W Q W W W Q Q V M m m J } ] / W C A 4 b.b.F.7.2.7.2.g 5.7.9.h g p ",
"; @.> p p , > y i i i p z e.j 5 I.} Z W W W W W Q Q W W W W W Q Q Q Q Q Q Q B N C J ^ {.! W Q V 9 4 x.b.M.m.5.7.8.w.e.9.9.1.1.1.",
"> @.%.@.@.$.&.+.: %.&.@.%.2.g 5 [.[ Z Q Q Q Q Q Q Q W W Q W Q W W Q Q Q Q Q Z / |..XP.Q Q Q W V 9 4 e.v.n.x.e.5.e.c.I z e.w.w.e.",
"1.%.%.#.O.$.-.O.: $.:.&.#.1.p 5 I.} Q Q Q Q Q C V B V V V C Q W W Q Q W W Q Q Q ' ' ! W Q C V V A 4 5.m.b.y.z ^.c.(.(.c.z z z z ",
"1.1.1.&.$.=.-.@.: > @.p p a d d E ^ W C C C C Q ^ ^ C V V C W W Q W W C C C C C C W W W C V N A q d 9.l.v.z n X.(.c.x.c.^.z z e.",
"p g 1.>.:.O.#.@.: : - 2 y d l j 3 D K B N N V ] |.|.] C C Q W Q W W W C B N B B B C ^ C V B M w d 5.2.7.w.z n X.(.c.x.e.y.z z e.",
"u a g &.#.#.#.@.> > u y y p p g g j 8 A m N } ] / / C M M V W Q C V V N m m m m m B V B M 9 w 1.&.2.7.7.1.k n n z z c.z k l k k ",
"j j d p #.%.> > @.; u u p p - u p g a 8 O A ( ^ V V S o o S V V N M M 9 o o o o O m M M 9 0 p %.@.1.2.2.1.l z l j k k k k k k j ",
"k j j p p @.@.p @.i 2 2 g 1.; - - p 1.7 4 5 * * 9 A w 4 4 8 m * * * 9 3 x x 4 4 4 9 m 9 5 u @.p p g 2.1.p g l g g l k b n n k k ",
"k j l j u i 1.2.2.1.y y p 1.> ; - - ; p 1.1.3 X 5 5 z e.g a   . .   1 2.&.i i p u 3 X 5 g %.> p g 2.i.1.> p p p 1.g j b X.(.c.k ",
"z e.x.y.z g 1.2.7.7.g p p #.@.> : : : - > @.u u j l x.5.%.%., 2.2.g > &.#.> > @.p g g u p %.%.p g 2.1.<.<.; y p 1.d l n n (.(.z ",
"z b.b.c.x.z.l.w.w.w.1.2.1.@.> @.@.@.> > : - - p w.v.c.x.*.>.h.Q.Q.a.&.#.#.$.$.%.%.7.7.1.p g 1.p g 1.@.> p ; - ; p j z z n ^.(.z ",
"e.b.c.z c.M.n.e.l g 2.2.1.@.@.6.@.: : #.> y + u z ^.I x.i.,.a.S.K.a.*.@.&.,.;.$.&.i.i.6.@.2.&.<.<.@.#.#.#.@.: ; i l z c.^.(.b.w.",
"e.c.c.I e.x.l.x.e.g 1.1.1.#.%.6.#.: - @.; & % u y.X.n w.>.;.>.>.N.g.,.#.@.,.d.:.$.7.i.*.%.&.$.@.> ; @.#.#.#.#.&.2.e.c.b.b.'.b.I ",
"b.x.v.m.x.x.l.5.z l 1.1.<.#.<.g 1.@.> 1.> & % l ^.X.z g &.>.i.*.s.h.:.&.&.*.a.*.> > @.#.%.#.@.@.; ; <.@.@.#.&.*.l.j.c.b.b.(.)._.",
"b.v.e.j.x.x.5.e.z l g 1.p <.g g 1.> @.#.<.y 2 k y.g p %.&.a.N.B.D.T.h.Y.d.>.a.*.- - i > @.> : i y i @.@.@.#.&.>.B.j.b.M.M.b.c._.",
"c.x.j.5.e.e.2.5.e.l w.2.p > g g 1.p > @.: y u y.1.; ; &.&.*.C.C.J.Q.R.E.T.,.a.*.> u p 1.@.- ; ; y p #.#.#.%.$.>.B.l.n.m.m.l.x.(.",
"y.m.M.9.5.e.l.2.1.z 9.&.: : @.1.1.p #.$.#.p l e.&.> @.6.&.&.*.2.s.T.T.T.Y.a.:.&.#.p p 1.@.; - - ; 6.#.@.<.#.#.&.6.l.F.l.B.7.l.m.",
"z b.m.5.9.5.l.7.1.5.7.#.= : @.1.2.6.&.#.#.1.z w.*.&.%.6.>.d.>.&.g.s.s.Y.h.a.>.:.&.%.g g <.- # # @.&.@.@.#.> #.:.*.S.N.B.S.B.n.m.",
"z z z w.e.x.5.2.2.7.6.#.@.: > g 2.i.i.$.@.2.w.5.7.&.%.#.:.d.:.$.>.s.B.N.a.,.d.,.>.7.1.g g y @ - #.#.@.#.$.@.$.;.>.A.7.7.S.G.n.c.",
"(.X.^.c.e.c.e.l 1.1.1.#.@.@.<.1.6.7.>.&.%.8.F.i.>.$.$.$.;.:.&.&.%.7.l.9.>.:.$.&.7.9.1.g g u 2 - +.+.@.@.@.#.:.:.&.1.2.l.G.M.c.^.",
"X.X.(.).c.z c.y.w.1.<.#.#.%.1.1.%.1.#.&.2.8.i.:.:.;.-.$.&.&.%.1.z z z z 7.&.p g g g p u l l u y : #.#.O.@.#.;.$.: p w.x.m.b.I (."
};
