/* XPM */
static char *ca917be0bde7434cf389cf81623550d2MkPonYSzmobX5Lxh[] = {
/* columns rows colors chars-per-pixel */
"64 64 253 2 ",
"   c #030303",
".  c #0A0506",
"X  c #060609",
"o  c #080708",
"O  c #060A0B",
"+  c #0B0B0B",
"@  c #070906",
"#  c #110D0E",
"$  c #180406",
"%  c #0C110E",
"&  c #11120F",
"*  c #0D0E12",
"=  c #070D17",
"-  c #110F12",
";  c #0E1213",
":  c #0C121B",
">  c #071018",
",  c #131313",
"<  c #191616",
"1  c #141915",
"2  c #14151A",
"3  c #1A1719",
"4  c #151A1A",
"5  c #1B1B1B",
"6  c #1B1816",
"7  c #260406",
"8  c #350709",
"9  c #221E1E",
"0  c #291717",
"q  c #341012",
"w  c #1C221C",
"e  c #22241E",
"r  c #322C1D",
"t  c #1C1D22",
"y  c #1F1F29",
"u  c #0E1434",
"i  c #211E21",
"p  c #1D2324",
"a  c #1D2829",
"s  c #1F2F2B",
"d  c #242324",
"f  c #292525",
"g  c #23252B",
"h  c #2A2629",
"j  c #252B2A",
"k  c #2B2B2B",
"l  c #262A24",
"z  c #35292A",
"x  c #2D322C",
"c  c #203E2B",
"v  c #32342E",
"b  c #37372B",
"n  c #2A2D33",
"m  c #252A34",
"M  c #332E33",
"N  c #2D3432",
"B  c #2C353B",
"V  c #333433",
"C  c #343A34",
"Z  c #3A3C35",
"A  c #353C3A",
"S  c #3C3D3B",
"D  c #383538",
"F  c #480406",
"G  c #530003",
"H  c #5B0002",
"J  c #54070B",
"K  c #430C13",
"L  c #46141B",
"P  c #591717",
"I  c #560F0F",
"U  c #620104",
"Y  c #6A040A",
"T  c #7D0106",
"R  c #7D050B",
"E  c #77060C",
"W  c #6B0C13",
"Q  c #740B12",
"!  c #790A11",
"~  c #78141A",
"^  c #69161A",
"/  c #452A1E",
"(  c #581C25",
")  c #491B23",
"_  c #761A26",
"`  c #661823",
"'  c #482729",
"]  c #45372B",
"[  c #413D3D",
"{  c #473A36",
"}  c #563334",
"|  c #6D2C2F",
" . c #3D423C",
".. c #3A4136",
"X. c #335035",
"o. c #4C442B",
"O. c #494429",
"+. c #554C2D",
"@. c #5A4F2C",
"#. c #43443C",
"$. c #48463A",
"%. c #534D3B",
"&. c #574839",
"*. c #5B5436",
"=. c #5A512C",
"-. c #64593A",
";. c #6A532F",
":. c #756839",
">. c #706737",
",. c #4F421E",
"<. c #393C46",
"1. c #333850",
"2. c #463E44",
"3. c #523B44",
"4. c #683E46",
"5. c #3C4546",
"6. c #384D4F",
"7. c #3B664D",
"8. c #444342",
"9. c #4A4343",
"0. c #434A45",
"q. c #434B4B",
"w. c #4A4A49",
"e. c #564A49",
"r. c #48514B",
"t. c #595549",
"y. c #454B54",
"u. c #4B5556",
"i. c #5C5253",
"p. c #565958",
"a. c #584B58",
"s. c #645946",
"d. c #655B59",
"f. c #734C49",
"g. c #58635C",
"h. c #4E6D53",
"j. c #6B6448",
"k. c #766849",
"l. c #79734A",
"z. c #696558",
"x. c #7C6B53",
"c. c #766957",
"v. c #7B7356",
"b. c #647E4C",
"n. c #565D62",
"m. c #4C5072",
"M. c #6E5862",
"N. c #5A6464",
"B. c #5C6D6F",
"V. c #676865",
"C. c #756B66",
"Z. c #7C7667",
"A. c #656C75",
"S. c #777876",
"D. c #6D7474",
"F. c #82050B",
"G. c #87060C",
"H. c #94020A",
"J. c #830B11",
"K. c #8C0E12",
"L. c #800D18",
"P. c #930D13",
"I. c #8C141A",
"U. c #94121A",
"Y. c #8D1B25",
"T. c #8E2A34",
"R. c #A22E3A",
"E. c #975028",
"W. c #89783A",
"Q. c #8F773A",
"!. c #954E1F",
"~. c #92384E",
"^. c #8F5050",
"/. c #877A47",
"(. c #826E5C",
"). c #857759",
"_. c #8F724F",
"`. c #875568",
"'. c #93566C",
"]. c #A4556A",
"[. c #877867",
"{. c #877C74",
"}. c #927563",
"|. c #AD6779",
" X c #A36655",
".X c #6F8F5A",
"XX c #98863D",
"oX c #889C3D",
"OX c #A8933F",
"+X c #998948",
"@X c #8D8255",
"#X c #978A56",
"$X c #90934E",
"%X c #A59344",
"&X c #A8954B",
"*X c #AC9A53",
"=X c #AC9C5A",
"-X c #A69556",
";X c #AD9A4C",
":X c #92A24B",
">X c #B8A658",
",X c #B4A64C",
"<X c #988C68",
"1X c #9C9266",
"2X c #8C8379",
"3X c #91886E",
"4X c #A99A67",
"5X c #A89A76",
"6X c #A78768",
"7X c #AEA26D",
"8X c #B1A063",
"9X c #B2A46C",
"0X c #B9AA69",
"qX c #B7A976",
"wX c #ACA070",
"eX c #96A869",
"rX c #C4B579",
"tX c #C3B266",
"yX c #D0C27F",
"uX c #A4C375",
"iX c #6F7883",
"pX c #AD6E8B",
"aX c #8C6D88",
"sX c #7B8C99",
"dX c #91908E",
"fX c #A89791",
"gX c #B6AA87",
"hX c #BCB298",
"jX c #B3AB91",
"kX c #8C96A8",
"lX c #9AA1AB",
"zX c #9BA5B5",
"xX c #ACAFB0",
"cX c #AA9EA4",
"vX c #C6B989",
"bX c #C2B798",
"nX c #C6BDA5",
"mX c #C5BDB5",
"MX c #C18EAD",
"NX c #B8D2A2",
"BX c #B9D090",
"VX c #D4C898",
"CX c #CECC8B",
"ZX c #CCC4A8",
"AX c #D3CCAB",
"SX c #E1D4A6",
"DX c #BAC5D5",
"FX c #D7D3CA",
"GX c #D6DEE8",
"HX c #FEFFFF",
"JX c #E8EDF2",
"KX c #E1E6DE",
"LX c #AFB9C5",
/* pixels */
"X O , % % ; ; w a 1 5 , , 5 p l v #.A 5.0.Z C l e 5 , A N.r.A x x C D.dXp.x V C ..1 D.dX5.x v #. .l l 5 l  .g.g...p V r.t.#.S  .",
"O % , % % ; , 1 , 1 , + X X + % 1 e p C ..v x x v x k Z 0.r.0.C x l % A p.0.N x 1 N.xXlXxXA.Z v  .p.x v C 0.r.V x x 0.g.r.l x  .",
"% + & , , , 1 % X 4 w ; % , 1 1 1 1 5 l 5 5 + + ; , 1 w N A N x w m u.u 5.q.A $.b r.S.lXkXsXn x xXD.w v <.m.kXm.k .. .#.k Z 0.p.",
", , 1 & 1 1 1 1 ; 1 % @ @ @ @ @ @ @ O @ % % + e b $.t.t.z.z.z.C.Z.dXcXm.p.g.z.<Xz.$.c.xXlXy.2 N g. .A v B m.kXB.j ..N  .k C  .0.",
"1 5 w 4 1 4 % O l v x S 8.w.p.V.C.S.{.2XdXcXgXgXvXVXVXVXVXvXvXVXAXSXVXVXVXCXvXrXrXrXvXZXjXZ.s.#.r.p.q.C m m.m.1.C V N.A x Z V k ",
"1 5 w w 5 1 O C.ZXZXZXVXAXVXVXVXVXVXCXyXCXrXtXvXZX>X>X>X>X>X>X>X,X,X,X,X,X>X>X>X0XrXvXvXvXAXFXZXhXgX5XdX2XfXgX2XV p y.5.C j V V ",
"4 w w w w O l bXvXgXqX0XqX0X>X>X>X>X>X>X,X,X-XJXKX=X>X>X>X>X>X>X>X>X>X>X>X>X>X,XqXqXqX9X=XwXwX7XqXrXrXvXAXvXqXqX<Xv.c.z.w.k 5.5.",
"4 w w w 1 ; +.-X7X9X9X4X4X4XwXwX4X4X4X5X4X7X4X4X8X8X4X1X1X#X#X#X#X#X#X#X@X#X>X>X;X=XqX=X8XgX_.M.C.-.j.l.@X<X1X-X0X0XrXvXqX7X1X3X",
"4 w e e , 5 *.&X4X@Xd.z.V.p.S x j j k j j N /.OX+X$.N A N B B B B A B B B B k.,X=X>X*X;XgX7X^.~.'._ _ | ( P } Z.&.-.k.).@X#X#X-X",
"1 4 w e e d @.&X=Xt.iXdXA.j s $X:X:Xs X + = %.,Xj.q.eX7.h.h.h.h.h.7.7..X7.h.t.%X>X8X*X*XhX-X(.`.~.~.Y.T.| I.^.'._ _ ^.}.5X3X).k.",
"#.#.Z l j D >.;X1Xp.y.g O X c uXCXCXX.X , : %.;X*.eXKX.XjXBXNXAXAXBXBXNXNXCX$X+X>X8X;X9XhX4X-.$.{ i.a.' ' 4.M.| T.T.^.^. X X X^.",
"v.l.#X5X5X1X+X&X#Xp O X O X s oX,X:Xs * 1 : *.;X$.X..X6.b.$X$XeXeX$X$Xb.$X.Xk.&X*X8X*XqXjX5X1X#X/.k.>.-.=.*.t.r %.[.c.d.e.} ) L ",
"v p ,.W.k.k.Q.=X@Xa : 2 ; ; ; ; ; 4 4 4 2 : j.,X#.: ; 2 : ; ; = = > : : = u t.;X*X9X*X9XjX4XD.n.V.p.w.x.#X@X1X] $.gX3X3X)././.*.",
"0 4 3 ) ( ( Q.*Xl.o.O.O.O.O.O.O.O.O.O.O.O.o.:.+X*.o.O.O.O.O.O.O.O.o.+.o.+.%./.8X8X9X;XgXgX<XiXy.A.b e V 1X1X4X@.t.gXC.j.).#.j./.",
"b = , ;.>.;.Q.&X*.k o.o.&.&.&.&.&.%.&.&.&.{ >.W.V &.&.&.&.t.t.%.t.&.&.&.&.9.-.gX9X8X;XjXqX). .#.#.b b k #X#X=X@.%.5X}.j.v.e.-.j.",
"r = , >.O.b XX;X-.$.k.c.c.c.c.x.x.x.x.k.k.t./.+X8.k.x.(.(.v.(.v.(.(.(.(.x.c.k.vX8X8X=XhXqXl.v  .v Z b V +X+X-X@.%.<X[.j.).d.s.k.",
"z.j ; ;.O.&.XX*X*.$.k.k.x.x.x.x.x.x.x.x.x.s./.+X#.x.(.(.).[.[.[.[.[.[.(.[.z.l.vX4X*X9XhX8Xj.S 8.Z S C V #X#X-X@.%.<X{.s.v.e.t.j.",
"}.{ * ;.;.k.XX&X%.V Z { $.Z b $.] $.{ { $.#.+XW.D e.t.t.s.s.s.s.s.s.s.s.s.e.).nX=X;X9XhX8Xj.<.w.Z 8. .V #X#X-X@.%.}.(.s.x.i.s.j.",
"] 9 , C | !.+X&X%.S N k n a t x 4 N p p a A %X/.m k g p 4 , w w w w k C V <.<XbX=X*XqXhX=Xj.q.t.#.w.#.V #X#X&X@.%._.f.s.x.i.s.x.",
"> 2 = > | E.%X&X#.S S <.B l p C l C j j N 8.%Xk.B C n p 6 6 x x k k V  .S q.<XnX=X*XhXjX-Xt.9.t. .q.S V +X+X&X@.%._.f.-.x.V.j.x.",
"* * X > P !.%X+Xx w. .B N j p S j A x j n #.%Xj.B S k 5 6 5 V V N x C 5.5.q.5XZX=X=XhXgX&Xw.9.t. .q.C k +X+X&X*.%._.e.s.v.C.j.x.",
"= = X O I E.%X+Xj w. .l q.N j 0.N ..0.0.q.t.%Xs.y.q.j 5 6 5 A C V V S 0.<.u.jXbX=X=XhXqX-Xp.u.p.S w.S V +X+X&X@.%.3XC.s.x.d.s.x.",
"+ ; e.n I Q.%X/.x 8.A A.D.V j 5.N 5.r.r.u.t.%Xs.u.u.A p 1 d C 5.5.q.u.B.A.dXhXnX-X8XhX9X+Xu.p.p.S w.[ V +X+X&X@.%.c.2.&.f.9.*.k.",
"V.p.C.C.A.@X%XW.g.V.p.p.V.r.p 5.j ..r.r.u.s.%Xt.n.u.N n 1 n D.DXGXFXJXDXlXlXxXbX&X8XhX=X+Xu.N.p.S w.8.V +X+X&X@.%.s.D &.f.{ *.k.",
"w.i.V.V.S./.%X:.r.N.dXdXS.g.5.q.5.q.r.r.q.j.%Xt.u.A.n.B 5.u.iXJXHXGXGXLXzXdXmX9X*X9XhX=X+Xu.N.g.5.r.q.D #X+X-X+.&.c.2.&.f.i.s.c.",
"S S.V.C.Z.+X%X:.m A p.A.g.u.N.g.g.g.u.g.y.k.%Xn.DXJXsXB.kXsXB.zXJXJXGXDXDXdXmX9X=X9XhX=X@Xu.N.N.q.u.u.S #X#X-X+.%.v.a.&.f.V.k.v.",
"{.[.c.Z.v.XXXXXXo.V S  .8.8.5.0.0.0.0.q.%.+X;Xx.dXlXN.B.zXzXzXlXkXxXxXDXkXdXFXqX=XqXhX*X/.n.g.V.y.p.y.8.#X#X-X+.%.).d.k.(.[.#X).",
"2X{.2X{.[.%XOX%X%XW.>.XXXXXXQ.Q.W.W.W.W.+X%X&X=X:.:.k.:.j.k.k.k.Z.V.z.c.2XmXZXwX-XgXjX&X+Xy.y.y.5.y.y.v.=X4X=X+.%.1X@Xv.j.v.s.} ",
"2X{.2X{.[.>.:.W.Q.:.+.XXXX+X%X%X%X%X%X;X&X&X&X;X,X>X>X>X>X>X0X0XvXc.5XZXnXbXZX0X>XgXgX*X*X).c.l.v.l.l.l.k.j.t.0 b e.} } ( ~ W Q ",
"2X{.{.2Xc.K K q p l e d k z / / ' ' ] ] ] ] o.o.o.&.&.%.o.%.*.*.t.] Z.dXxXcXxXZ.l.fX2X>.*.*.%.o.] ' ' ( | | ~ K ) J.F.Q Q F.! Q ",
"{.{.{.2X(.P.G.{ A.d.S.D d z J.J.J.J.J.! E Q _ Q ! Q Q Y Y ` M m B <.<.8.a.aXzX| ( aXf.I ( ` _ _ Y.Y.Y.Y.I.J.G.L L G.R W W F.! Q ",
"{.{.{.{.^.J.Y n.6X XgX8.r z J.K.K.K.K.K.R.^.^.Y.P.P.P.H.P.~ <.u.p.fXFXFXc.`.MXU.R.|.R.P.I.I.I.I.I.J.F.J.R E F.K L F.R W W F.! Q ",
"{.{.[.{.^.K.W V.SXSX6X{ f z J.K.K.K.K.K.|.|.|.R.K.P.P.G.H.W <.3.i.FXHXHXfXM.MXU.R.pXT.J.F.F.F.F.T F.F.R R E F.K L F.R W W F.E Q ",
"C.z.s.t.| P.I A.dXc.dXZ z z K.K.K.K.K.I.].|.].Y.K.K.K.G.H.^ <.3.i.FXHXHXfX`.pXU.~.pXT.J.F.! ! F.T T R Y.! R F.K L F.R W W F.E Q ",
"f d d l | I.E { i.i.i.z j P K.K.K.K.K.K.K.I.I.K.K.K.K.G.H.P 5.w.V.jXSXSXz.'.fXU.~.|.I.J.F.p.&.Y.T.^.`.].L.E F.K L F.R W W R Q Q ",
"[ 9.e.i.| ! E Y U U U Y Y J.J.J.J.J.J.J.J.K.K.K.K.K.K.H.H.J.' ' { { } &.( ].pXP.~.|.Y.G.T B.V.aX`.`.~.T.! E F.K L F.R W W R E E ",
"d.V.V.C.^ G G G H H H H H H H H H H U U U U Y Y Y Y Y E Y E E E E E E Q F.T.].U.].].I.G.T h.d.L.! T T T R E F.K L F.E Y Y J._ | ",
"dXdXfXfXP G G G G G G G G G H H H H H H H H H H H H H H H H H H H H H H H H U E ~.].G.F.F.| ~ T R R R R R E R K K G.L.| 4.4.D g ",
"cXdXdX2XI G G G G G G G G F 8 F F F G G G G H H H U H U U U U H H H H H H H H G Y I.K.F.T F.T R E R R R R J.~ ' } | e.D p ; + + ",
"{.2XdXdX| G G G G G G G H 7             . . . . . $ $ $ 7 7 7 8 G G G G H H H H H Y G.T R R R T T F.F.! ^ } e.d.w.4 + + + - , - ",
"dX{.t.i.z q q q q q 8 8 7 8 , 6 5 5 5 t i 3 + + + X X O X O O X F H H H H H H H H H E T F.F.F.! ~ ` ' z g g g , o - , , * + + + ",
"$.<       X X O O O       - i t B <.<.<.<.<.<.M k l d , X + # ; q K F J J J J J J J Y ~ ~ ` ) z h d 2 ; + o + * - * , X X   + 3 ",
", o X X X X X X   X       + t g <.6.y.B <.1.y.y X 5 d , o   X + O O + + + + * - - i h 2.D 3 ; + o X X X X X + o     X * + + + 5 ",
"              * 1 o       + z k <.y.y.B :   m g o m n 3 o     o X X X X X X X X + O X   X     X X X X X o X #   o , - 3 6 3 3 d ",
"            X , o X       + f h B 6 + y ,   , m + ] k , +     o X X X X X   X X X X X X X + * X X X X X   - # o 3 i h 3 5 5 3 t ",
"  X   X     o             + d g <.t 2 m k 3 m g + k k , o     o   X X               X   * m 2 X o       X 5 2 o . $ 0 3 5 5 5 t ",
"X X X         @ + o X o X o - , g t d m g m 1.t + k k + o     o   X X X   X   X X X X X + X     , o   o o + , 3 q F q 3 5 5 5 , ",
"X o X         X , +   X X X   o   g g ,     X X   X + X + + + +   X       o o   # +   X +     X + +   + o +   , # $ # 5 t 5 6 d ",
"o X X X X       , o             n g   + X     o         + o o ,           + + o + X X X X     o & +   +       , o . # 5 d h 5 k ",
"o o X X X       o X           g 3   X *       X     X X X o               X   D g   X X X X o + 6 # X X   X       # 5 D 2.V d 5 ",
"o o X X X       X           X o   X X X               +   +       X       o   d t X   + o X o o , + + o X     + f [ S M h 3 , - ",
"o o X X X X                     o X X X               o X + o     o X     o X , *     , X o X X + + o     , k 8.2.V l 5 , + + , ",
"+ + X o X X X X                   X X                 X X X + X o +         X X o   + ,       X       6 V 8.[ M d < , , + + + , ",
"+ + o o o X @ X                                             o o o             # , , , +         o d S 9.D f i 3 # o , - + + + , ",
"% + o o + X X X         X X o X                                                   X o       o f S 9.V i 6 , + + + o - - # & , 5 ",
"1 , o + + o X X X   X X o X X o                                           , t +         , v 9.9.f 5 6 , o X o o + o , , + 3 6 i ",
", ; + + + o + + o + o o X X X X         X X                               , 2 * o o e [ w.[ v k , , , - - + + # # + , 6 5 5 d i ",
"+ * , , + + & # + + o + o o X X X   o X X X           X X X X X X X X   X     # k 9.e.[ k d d 6 , , 3 # # # + # 3 6 6 i 9 l h M ",
", , 6 , , + + & & , + o X o o o O X o o X o X X X X o o o o o X X X o o + 5 V e.w.D f i 9 6 < , , , , + , 6 < 6 f l d l k v 9.i.",
", 6 5 , 6 5 5 < , o o + # # + + + + + + + + * ; , , # , , ; + + + + & 9 { e.9.D l 9 6 , , < < , # - , , 6 d d f V V j d [ i.i.{ ",
"< 5 9 l h 6 # + & & , , , , , % + + , , < 6 4 6 6 , , , , , , , , f 9.e.9.M f d 5 , , 5 5 < < 3 < , 3 9 d i j M k V V 9.i.e.b f ",
"j d 5 - + - 5 5 5 5 5 5 , 6 6 6 6 5 6 9 d f d d 6 , 3 6 3 < 5 v w.i.8.v f i 6 < < 6 6 , , , # + * - 5 d d d g k V 9.i.e.{ z 9 d ",
", + # < 6 6 6 5 6 d 5 5 6 4 5 d t j k j h 9 d 5 t d 5 < 9 V e.e.S k k f d d d 9 6 < , , , , , , - , 5 d d k j 8.d.i.2.z d d d k ",
"< 9 d 6 3 5 d j j j j 5 f k V V g d V d 5 3 t i i < e D e.e.D k f f 9 l k k z 9 5 < , 6 , 5 k e d d 5 d k [ i.i.e.D f d l f k d "
};
