/* XPM */
static char *_e25b82a863f49c2eb123cb5fc40b5ceRbCvCXnIeC9cvZlM[] = {
/* columns rows colors chars-per-pixel */
"64 64 206 2 ",
"   c #12160E",
".  c #161C0F",
"X  c #17230C",
"o  c #18250D",
"O  c #172B09",
"+  c #1C2C0D",
"@  c #1B3107",
"#  c #1B3A06",
"$  c #173008",
"%  c #1E340B",
"&  c #1D3A09",
"*  c #1C2311",
"=  c #1D2A12",
"-  c #1F3210",
";  c #222E0E",
":  c #233B06",
">  c #23340C",
",  c #29350E",
"<  c #253B0C",
"1  c #2A3D0D",
"2  c #313E0F",
"3  c #212516",
"4  c #222D13",
"5  c #2A2E14",
"6  c #262C1A",
"7  c #2C2D1A",
"8  c #322D1E",
"9  c #253313",
"0  c #2B3414",
"q  c #273912",
"w  c #2C3B12",
"e  c #2D341A",
"r  c #2D3A19",
"t  c #323616",
"y  c #333C15",
"u  c #393E16",
"i  c #33341C",
"p  c #39351E",
"a  c #353B1A",
"s  c #3B3C1C",
"d  c #2F2D21",
"f  c #302E21",
"g  c #353520",
"h  c #3C3522",
"j  c #363821",
"k  c #3D3B21",
"l  c #413F17",
"z  c #413E1E",
"x  c #403626",
"c  c #423D23",
"v  c #483E27",
"b  c #453C29",
"n  c #483F28",
"m  c #234406",
"M  c #2B4507",
"N  c #274C07",
"B  c #2C4B06",
"V  c #25410A",
"C  c #2C430C",
"Z  c #274A0B",
"A  c #2D4B0B",
"S  c #314E07",
"D  c #32450D",
"F  c #3A450F",
"G  c #334B0C",
"H  c #3A4C0D",
"J  c #2B5206",
"K  c #2F520D",
"L  c #335306",
"P  c #3C5407",
"I  c #345906",
"U  c #3B5D07",
"Y  c #34520B",
"T  c #3B530C",
"R  c #325909",
"E  c #3C5A0B",
"W  c #274010",
"Q  c #2D4212",
"!  c #2F4911",
"~  c #344313",
"^  c #3B4415",
"/  c #354A12",
"(  c #3B4B13",
")  c #364219",
"_  c #3D431B",
"`  c #354819",
"'  c #3D491A",
"]  c #365112",
"[  c #3D5212",
"{  c #3E5A12",
"}  c #3F4121",
"|  c #404B0D",
" . c #494F0E",
".. c #43540C",
"X. c #49550E",
"o. c #435B0C",
"O. c #4B5C0C",
"+. c #505E0E",
"@. c #414616",
"#. c #434C15",
"$. c #484E17",
"%. c #42401E",
"&. c #41421E",
"*. c #45421F",
"=. c #40471E",
"-. c #43441D",
";. c #49471E",
":. c #404818",
">. c #424C1A",
",. c #414E1D",
"<. c #444A1B",
"1. c #4A4C1C",
"2. c #524E1D",
"3. c #415317",
"4. c #415214",
"5. c #435313",
"6. c #4D5610",
"7. c #4B5217",
"8. c #4A5717",
"9. c #4B5415",
"0. c #425B10",
"q. c #455816",
"w. c #445B13",
"e. c #4D5C12",
"r. c #4B5C14",
"t. c #445319",
"y. c #49531A",
"u. c #4B5419",
"i. c #4C521B",
"p. c #435918",
"a. c #4D591B",
"s. c #4C5C1B",
"d. c #515714",
"f. c #515C14",
"g. c #5A5E15",
"h. c #51531C",
"j. c #565C1B",
"k. c #5B5F1C",
"l. c #456A07",
"z. c #45630C",
"x. c #4C630B",
"c. c #466A0C",
"v. c #54610C",
"b. c #53630C",
"n. c #536B0E",
"m. c #5C6C0A",
"M. c #446212",
"N. c #4A6210",
"B. c #4B6414",
"V. c #4B6B16",
"C. c #536214",
"Z. c #5A6513",
"A. c #546B11",
"S. c #5B6814",
"D. c #52631C",
"F. c #5C641C",
"G. c #5A6B1D",
"H. c #577110",
"J. c #5D7214",
"K. c #55721B",
"L. c #5B741E",
"P. c #64720D",
"I. c #626616",
"U. c #636F15",
"Y. c #63661B",
"T. c #64691B",
"R. c #677312",
"E. c #6B7612",
"W. c #637C1E",
"Q. c #434322",
"!. c #424122",
"~. c #464122",
"^. c #434224",
"/. c #464126",
"(. c #444322",
"). c #4A4621",
"_. c #4D4623",
"`. c #494125",
"'. c #4B4425",
"]. c #4C4427",
"[. c #4A4424",
"{. c #464921",
"}. c #4D4825",
"|. c #4B4A22",
" X c #474129",
".X c #494029",
"XX c #4A4129",
"oX c #4B4329",
"OX c #504625",
"+X c #514E23",
"@X c #504528",
"#X c #524B28",
"$X c #514C2A",
"%X c #4D5221",
"&X c #565622",
"*X c #585325",
"=X c #575820",
"-X c #546520",
";X c #516820",
":X c #5B7120",
">X c #698319",
",X c #768116",
"<X c #728E1B",
"1X c #7E8B1A",
"2X c #78921D",
"3X c #678220",
/* pixels */
"c ~.v /./.Q.[.c %.y.T G G W ^ 4.q Q Q ^ s D N G C Y V $ 1 G B >.].#XOX_.s ( q e p ,.s z i i e e ~ ( [ ] ~ V C ~ A _ u u ^ u s v ",
"h c c v /.k k s _ 8.E v.X.C 1 y 0 w Q 1 r ~ N Y D C G w > ~ _ *.].[.[.oXi t w 0 _ _ i i i _ a a y ) ^ ^ y w w a ) :.-.s _ s s c ",
"x x c h p k k _ s H [ I.6.w > > 4 9 e C ~ A A C Y B.o.V q ~ (.[.x c s c 8 e e w ) @.-.a 9 ) a j _ } ,._ s q./ k _ -.Q.s s c v .X",
"x b c [.k k k s _ 0.N.e.> 0 ! 9 = e k s q M E U R C C Y / ~ a .Xx p 0 z p i a ^ 4.7._ s Q ~ _ %.i i s a e ^ T y y ) ) k -.c /..X",
"c h }.[.c k Q.' a ( a.u.r 0 ( r = ~ Q.%.Q Y A Y G N B o.Y G y k c 5 q (.z %.-.u 4.^ s s ~ C ^ <.y s _ s w D / / / ~ ~ _ %.Q.(.k ",
"*.c v $X].c ;.~ s :.a a 9 F w 4 4 ~ _ @./ U e.q.D Y Y P Y E m 1 k i k oXx c s ( ^ _ _ 1.~ / [ #.( y q _ _ ~ / / y s s k Q.x c k ",
"a s g c [.|.k {.^ a i 9 w > 9 i 0 C a {.h.T [ / , < < ~ Y H G C 0 [.v v /./.c _ ^ ~ s h._ ~ ) ' ~ ~ y a j _ ) a s a s k {.]._ s ",
"s p g a ) |.v %.a a a 5 t a e e q / s Q.@.C < ~ G O > C A G ~ C , s s e ) ].].Q.;.-.s |.1._ _ a a a a s j _ a i g a i ) (.[.s e ",
"u -.g _ <.v [.[.k k a e i a e 7 0 ~ ^ ;.h./ < D / > % C V [ Y C C ^ y e s ]./.|.|.{.s |.;.' |.) / ^ i a Q.) ) i k _ _ ;.-.s ) ~ ",
"T r.k _.{.s ~.[.c (.a i i s 8 e 9 a 7.y.1.' ( 5.~ G y ( ^ ..U < ~ G ~ } _ c c |.{.|.{.1.%X_ 1._ ^ s i a s _ s s s _ _ z a r e y ",
"^ H a [.[.-.s [.s s %.k t 7 h %.y i ;.*.[.{.{.|.$.T y ;.-.u.Y Z Q M w s a c -.s [.(.[.%.Q.s s _ <.-.a i a s a k a _ _ _ y < 9 ; ",
"C E [ s {.{.%.z v p s k 0 5 x %.s a s p v [.s s _ / ~ -.|.8.G G 2 D 1 , 0 s :.s >.:.+X-.-.{._ ) ( y.-.a y ) i j Q.Q.y i a w G 1 ",
"P P.P 0 s -.1._ s s a i a 5 k i i i _ _ s |.s (.1.T D y -.[ B Y D | L G T :.-.^ ~ ~ -.{.s {.;.:.~ _ ' ) r a k k ' ~ w a i y ~ [ ",
"Y B E C ) -.1._ a Q.s a s e g i k i u u t |.1.*._ G A ^ |.j.P A / ( G G w.<.-.k.~ e _ |.-.(._ ^ ^ ' y e r j Q.) [ D G a 7 q w D ",
"Z M l.L Y #.^ s _ {.[.s (.i g i 7 i a @.y ' 1.-.~ [ [ ' _ ( G 1 0 5.H ^ f.~ _ -.t i _ s ;.<.^ ^ _ ' a i a i g j >.0.q.e 4 D C M ",
"Y E z.z.P #.:._ _ ~./.(./.s a e i i y ^ 0 _ a a s t.~ :.k ~ G w w D #.y D V a s y a a _ 1.<.$._ a a ~ e e i g r ) / ~ w r G V J ",
"< D o.z.D *.-._ :._ k _ Q.{.-.) _ -.y a ~ y i y y a ~ ( ( D T / w D 1 ~ G 1 s s t.) e _ <.<.y _ %._ ) i 7 e e e e r 4 w ' ! q N ",
"* 0 ) 0.1._ -.s <.~ 0 ' y i s ) s %._ ) s i e 9 0 ^ ~ 9 Q M , ( y ~ 0 r ~ y a a a _ s {.$.' ^ ^ i i i h k s i e y r ` 9 r 0 6 Q ",
"9 e <._ {.s i _ _ ^ e _ ~ w ) i i s ;.<.a s ' Q 0 <.4.+ % / > C ~ r ~ 5.H 5.<.~ y _ -.1.1.h.^ ^ s i s c k a s a y 0 i y 0 4 0 4 ",
"' _ s _ -.k _ #._ >.1.#.P C Q i i _ y.~ y s _ _ s s < V V 1 0 C G q ~ ( 4.o.@.4.o.$.1.;.;.1._ s i i 7 i k c v k s a 6 0 ` = e ) ",
"h.$._ -._ _ _ 9.^ ( D H Y A V 0 e y _ ( a i _ s s u C V Z w > , Y D Q / C T ~ ( T 4.i.;.;.(.z z y a a 0 s v x x c {.7 y ` y j -.",
"_ _ %._ _ _ ^ ( / C G T Q A C ~ 0 0 e ~ a e i p g s + > 4 0 > w < G C [ C C _ ^ y #.#.@.y %.c } ~ y a a s c /. X/.].c -.s s } Q.",
"w y g i ^ <.t.u ( D ..T D o.S [ 9 9 0 a i e i i a f e w X O 0 ` V Z < H G C >.-.y ^ 5.( ^ _ s k s ~ r i a k x v v /.v (.(.k [.c ",
"a ~ 7 a d._ 4.( ~ ~ 5.x.O.,XP T ~ > q i i e w i e 4 9 9 q % 4 w Y Y : 1 < C / s ~ D T H _ s s s -.) a 0 w k v c k b [.].[.v c k ",
"y.' e _ 1.~ / B.G ( 5.O.G b.P V q Q r s s a q 4 * o 9 q C < 1 < 1 L Y C < C 1 0 w ~ / 5.^ _ s s %.Q.Q.y w ) _ *.{.(.}.[.c [.[.k ",
"Q.' ~ u 0 ~ 1 ( 0.1.y.T A L Y 5.~ ~ 9 e e a y 9 o * < , < w w > : P B Y C G A > w H ( 0.^ ^ _ @.) k s -._ y ( ^ ;.[.{.c s s x h ",
"i ' a i 0 5.^ ~ h.[.<.^ ^ T ( 7.s ~ q y i ) ( ~ D / ~ + < ~ / & : A M G C G A < ~ u ~ ( ^ 4.( 7.^ a ~ ^ y y ^ ^ ) |.-.Q.%.p p g ",
"k s i i s h.^ ^ 1.1.;.s ) ~ t %.1.y e 0 i ^ F w ( ~ < @ < 4.1 C J N m M H 1 G C a y w y a ^ u.f.( 0 D T ~ ' <.>._ ( ' s -.].k /.",
"].c p p s l a ~ u h.1.-.) ^ ~ k _ w 9 w t ~ D D G ( H < $ w O 1 D C M 1 ..L C y a a 4 0 a y a _ H D > 1 / t.{.) ^ ! ~ ) ^ {.c [.",
"].(.Q.s s a ) ( y #._ _ ^ y y s <.D , #.#.D r...H ( T C Q < % : : C : D ^ ( ~ ) z p 3 4 ^ a q q Y Y < Y ~ y e a ^ _ ~ _ {.c oX@X",
"x k g k s i a s a $.s s a ^ Q r ^ [ D ~ 8.Y O.P.D [ Y [ C 0.w.C 1 > B #.s ;._ a Q._ + ; ^ y / D G T + ( s.~ w y a _ i a k c c c ",
"/.c g h c s c c -.1.<.s a ( [ ) y T ^ s _ T O.X.D 0.B.Z.G T T < 1 % ~ ;.-.*.s s ' C 1 y y T H 1 1 ^ t.8.#.C > r a _ a s a s _ x ",
"v c k g x s c p *.h.1._ _ >.#.~ a 5.g.s w 2 9.^ 0.0.U.r.D : T z.G + ~ ~ [.+Xz a 0 ) y y r ~ 1 < [ y ;XL.H G D ~ t s s Q.s ;.Q.h ",
"v v c k k v c k >.$.>.5.#.$.4.-.a s g.u y q 0 w 9 y @.#.Q : C T ~ 4 9 < s c c a ) s y ~ ~ y < > ~ * y :X/ { / w 0 ~ <.{.Q.s k k ",
"v .Xb [.v ].c z :.<._ ( ( :.%.s 1.s _ s y y s ~ % 0 0 w [ , w 9 9 X = + 7 e 5 0 ^ s s ~ w w H < 9 e >.G.~ ( ~ 1 9 w s h c s c v ",
"k v x .Xv k c {.:._ %.;./ ) v c [.c {.c s (.-.y < q.~ / B.` [ ] ` + + 9 q , 1 D ~ ~ s -.y 0 D [ ` a 3.D.q.8./ ( ~ ~ / y y ;.c s ",
"i k h h b h k c ( ( [.1.' ^ ^ _ -.(.c c (.k ;.u.#.1XL.B.2XB.B.p.` < : V W > 1 C G ( _ -.0 D T p.~ [ >.s.D.8.9.8.t./ ~ C G ^ a a ",
"6 i h h g i g s s ^ {.;._ _ 5.q._ {./.|.*Xs a _ -XF.W.>X3XK.w.1 > N G y C 1 + y D ..s s s ^ ^ ( 0.M.( s.D.d.$.^ y ~ D Q ( / 0 7 ",
". 3 d i i i h k s a s Q.c s <._ _ Q.k c |.s 0 e a s.B.n.p.s.V.p.G D ~ ( D C , #.D H @.y ^ ^ ^ j.C.o.7.j.k.$.4.~ t ~ ~ ~ H y r 6 ",
"  3 3 3 6 a s p _ i s s s [.[.(._ (.%.].{._ _ a a _ [ V.K.q.M.r.~ 1 ; r ( T 0 D I Y P D _ j.^ ^ 8.5.7.Y.F.T.C.#.1.^ ~ 4.~ < r e ",
"4 4 4 9 0 t t s _ _ s _ s -.Q.%.-.{.-.|.|._ s s ~ s / c.N.A.<XH.Y D D > D D D ~ P G P P ^ j.;.<.<.@.7.f.f.9.t.@.-.a D _ ) 1 0 6 ",
"q < 1 C ~ a 0 a y -._ >.|.^ %.' ^ ;.|.|.[.-.%.z %.c t.J.o.P z.O.O.O.+.1 > G S * w ^ C Y 9.y.;.-.%.;.1.9./ ^ #./ y ^ ( ^ s u , . ",
"> D D 1 ~ 0 0 3 0 e e 1 s %.s >.^ {.c c [.[.(.-.s s 1.C.r.M.o.T C.O.O.T < T ..X 1 ( H ..^ ^ u %.|.;.;.i.5.^ ( / y :.5.#.y ~ w % ",
"> , D w 0 1 | , q 1 0 < y <.a s ^ a (.c /.c s %.*.z -.1.q.G.J.B.E M o.H M T H > , > H H y $.^ ^ <.-.-.$.i._ ( ( _ z ^ >.~ _ ^ ) ",
"G 1 D D B C P J # G o.G M ~ ( ~ ) ) a p c [.h %.*.*.[.1.5.C.0.w.o.b.n.H T T G # 9 q D ~ ~ 7.^ 4.7.^ -.-._ s ) %.c c s _ _ s _ s ",
"~ ~ D C J B I L V : P / G r y ) a _ u i s (.x c ~.%.+Xh.<.:.4.A C P n.T T H > = 1 1 ..F ( ( / / ( ( 1.;.Q.h ].-.[.;.-.c s s s a ",
"y ~ ~ ~ T B I Z < < < 9 0 e i e g -.7.y s %.~.c c (.+X+X+X_ , M < Y T H T #.4 % > H ..< 1 ^ / / ( @.( _ s h c {.s ^ _ (.s _ :.u.",
"e w e [ E N B G > A < 4 o y u 0 i a -.y a s 1.|.(.(.z }.|.^ , D / r.~ 0 w ^ ) D ..1 > < D e.C D u ^ H ~ k c c {.Q.;._ -.s s s :.",
"s e 5 y C C D 1 M 1 r e w w 9 y y y ^ ~ ( $.@.^ ) {.z c -.C 1 #.~ 0 0 5 e ~ 8... .D : > P o.G Z ] ( 5.~ j c k i i c s i i 8 i i ",
"j j i y Q / D 9 C C 4 5 y ~ < % , u / / y ^ #.^ ^ %.z s ^ G 9 y 2 q 1 < F ( / < 1 : C @ C A / < w r y ~ e _ i a i p k k s g i i ",
"z i i t 5 w C ^ w ~ 9 * y ( < < + , 1 w ^ ~ T _ ) -.1._ w C o y Z.8.C.E D > > 1 q < + 9 C > q y w r.~ < Q _ q ~ ~ i g /.c s i s ",
"p s a %.s 0 0 ( #.4.Q , 9 / D < < > < > D D ( _ -.-.1.^ < C C 0 y ( o.Y C > C 0 4 [ 9 r D H < ~ ~ 3./ C < 9 ~ ~ 0 i h ^./.|.s k ",
"p %.<.1.s $.#.~ ^ 4.y ^ ~ C 1 1 A M 1 > 1 : > w _ <.%.:.G P x.E.Z.G Y m D 1 G ~ Q p.~ q w / w 0 / < q ~ q > w Q i } k k Q.|.i p ",
"s -.1.%.s 2.7.-.i a ~ ( ~ C < / C < 1 G V 9 o e s (.%.-.T ..o.U.Z.D G 1 T P G C T ' ( C y ~ q ` / G < Q < > > q i s %.k (.|.y s ",
"_ _ *.s p -.^ @._ s ~ ~ w G D 5.A : % C C 4 X 0 _ c k _ z.E T ( 8.o.o.% P x.U G o.8.w.C D E A C < 1 Y G G V C w -.s ;.|.|.1.a s ",
"|.:.-.1.;.^ >.5.-.a w ^ ~ C C y Q M % / , + = a {.v c y G Y { G v.O.A C 1 ..o.A C Q G T C C A < < ~ C < A G T #.@.-.1.-.|.[.v j ",
"+X1.-._ $._ 1.^ s k u C r ! ~ r ( 1 Q / / 9 * k (.s r C G e.( H f.O.L b.G T X.> + q < < / < W 9 , Q V C C A G 8.^ *.h.1.*.(.].c ",
"%.-._ ^ ^ _ ^ ~ ;.s t / y C y w ^ w w V < 9 0 Q.^ > , T G ..S.d.Z.R.b.P...T O.C > 0 ~ / < % ! 4 0 C Y C D G E f.#.%.i.<.@.-.].c ",
"s -.$.$.^ _ <.^ ~ s -.[ < < D ~ ~ q C Y C < i <.G % C ( A D / y O.P.O.m.O.T T D Q 0 ~ G > w > + / R N Q / B Y ~ ( $.#.#.5.( ;.%.",
"a _ &X#./ #.^ 8.C s ' Y : : M ~ ( Q A Y D ~ s _ T D ~ ( P o.G H v.| O.n.o.T T G C ~ 0 / < : + w [ Q V Q 1 C Y ~ f.w.#.+.D 7.1.-.",
"s s s s _ -._ 4.D ( ( A M 1 < a ~ ] { A V / s r H H D C o.x.G G O.$.X.e.H O.O.Y T ~ y ^ 9 O o C Y 1 M T < G U E A./ H C.7.-.z z ",
"-.[.s {.y -.<.a y ^ ~ A Z < C y / [ w.T C ' y.t.0.1 G M P T G A M X.#.[ P Y L T 5.#.y y r * - C V m V C Z E T G / ~ 5.h.+X_ (.c ",
"~.c c ].;.s %.(.) ) w D B G ~ ^ D ~ A Y ~ ^ q.K R P L L P G D ~ s z p _ E 1 y ~ i w 0 i ) e 9 V 1 Y A C C E G < w ^ -.1.*.c _.s ",
"c k c [.].s -.-.1.-./ C 1 C ~ ~ Q < q ( ~ / R R m L A % C A M ~ c h p k #.2 * y s a e a a a 0 W Q G V 1 < E G # 1 ^ y ^ *.s z ]."
};
