/* XPM */
static char *_07feacddefd4932f9fcf7328ec045b6KjaW9MaTGjJnKxiK[] = {
/* columns rows colors chars-per-pixel */
"64 64 177 2 ",
"   c None",
".  c #010304",
"X  c #030608",
"o  c #0B0609",
"O  c #05090D",
"+  c #0A0B0D",
"@  c #0A0407",
"#  c #110102",
"$  c #1D0806",
"%  c #1B0709",
"&  c #060D12",
"*  c #0A0E12",
"=  c #130F13",
"-  c #1C0E10",
";  c #061117",
":  c #0C1115",
">  c #0D1319",
",  c #1A1111",
"<  c #12171B",
"1  c #1F1619",
"2  c #12191E",
"3  c #1C1B18",
"4  c #171816",
"5  c #2A0404",
"6  c #2C070A",
"7  c #250407",
"8  c #330502",
"9  c #320C0D",
"0  c #3C0C0A",
"q  c #281D0F",
"w  c #23160D",
"e  c #231113",
"r  c #201E19",
"t  c #2F181C",
"y  c #321112",
"u  c #3C1214",
"i  c #3B181A",
"p  c #151C21",
"a  c #1B1E22",
"s  c #201F23",
"d  c #1C2125",
"f  c #1D2429",
"g  c #1F2830",
"h  c #28252A",
"j  c #232A2F",
"k  c #252C32",
"l  c #2C373F",
"z  c #383632",
"x  c #420404",
"c  c #4B0402",
"v  c #430803",
"b  c #530301",
"n  c #5A0301",
"m  c #530904",
"M  c #5A0C03",
"N  c #510D09",
"B  c #5E1108",
"V  c #561D06",
"C  c #630301",
"Z  c #6C0300",
"A  c #650A01",
"S  c #6C0D01",
"D  c #730400",
"F  c #7B0500",
"G  c #7C0B01",
"H  c #7C0F08",
"J  c #621307",
"K  c #6F1605",
"L  c #6E130A",
"P  c #7B1203",
"I  c #72120C",
"U  c #79150C",
"Y  c #7A180F",
"T  c #44381C",
"R  c #6B2D0F",
"E  c #702D09",
"W  c #6F2A16",
"Q  c #652512",
"!  c #723B18",
"~  c #4E3F21",
"^  c #473C23",
"/  c #6D4812",
"(  c #744B18",
")  c #4B412C",
"_  c #5E4F2E",
"`  c #524529",
"'  c #564B34",
"]  c #7B4424",
"[  c #6D542F",
"{  c #7C5D2B",
"}  c #625333",
"|  c #726343",
" . c #850300",
".. c #8D0700",
"X. c #850A01",
"o. c #8C0C00",
"O. c #940700",
"+. c #920B01",
"@. c #9D0C00",
"#. c #801606",
"$. c #961401",
"%. c #9D1202",
"&. c #9D1801",
"*. c #931F03",
"=. c #A10B00",
"-. c #A51303",
";. c #AA1302",
":. c #B31602",
">. c #B41A05",
",. c #B91705",
"<. c #8B2C08",
"1. c #9F320B",
"2. c #AB2F05",
"3. c #B6330D",
"4. c #BA340A",
"5. c #B53F12",
"6. c #C11C07",
"7. c #CC1E0A",
"8. c #C12702",
"9. c #C92703",
"0. c #C52C05",
"q. c #CC2B04",
"w. c #CC3809",
"e. c #D63606",
"r. c #BD410B",
"t. c #AA4510",
"y. c #AA5214",
"u. c #854129",
"i. c #855E25",
"p. c #875826",
"a. c #945F3F",
"s. c #A65D23",
"d. c #8A6427",
"f. c #856429",
"g. c #8B6729",
"h. c #92692D",
"j. c #8B6730",
"k. c #936533",
"l. c #947233",
"z. c #9D7D3C",
"x. c #95723F",
"c. c #B66A32",
"v. c #D04006",
"b. c #D24410",
"n. c #D74B11",
"m. c #C25619",
"M. c #EA480A",
"N. c #E14D0E",
"B. c #E55A17",
"V. c #E45312",
"C. c #8E794E",
"Z. c #997740",
"A. c #9B7A43",
"S. c #917D53",
"D. c #A2734A",
"F. c #A6844B",
"G. c #AD8C4D",
"H. c #A8854B",
"J. c #A58450",
"K. c #B08F51",
"L. c #B19156",
"P. c #B79855",
"I. c #BB9D5F",
"U. c #B69460",
"Y. c #B59B65",
"T. c #BD9C64",
"R. c #BF9F68",
"E. c #BFA064",
"W. c #BFA369",
"Q. c #C2A66C",
"!. c #C8AB6F",
"~. c #C5A96C",
"^. c #CAAE72",
"/. c #CEB173",
"(. c #CFB275",
"). c #D0B376",
"_. c #D2B679",
/* pixels */
"                                                                                                                                ",
"                                                                                                                                ",
"                                                                                                                                ",
"                                                                                                                                ",
"                                                                                                                                ",
"                                                                                                                                ",
"                                                                                                                                ",
"                                                                                                                                ",
"                                                                                                                                ",
"                                                                                                                                ",
"                                                                                                                                ",
"                                                                                                                                ",
"                                                                                                                                ",
"                                                                                                                                ",
"                                                                                                                                ",
"                                                                                                                                ",
"                                                                                                                                ",
"                                                                                                                                ",
"                                                                                                                                ",
"                                                                                                                                ",
"                                                                                                                                ",
"                                                                                                                                ",
"                                                                                                                                ",
"                                                                                                                                ",
"                                                                                                                                ",
"                                                                                                                                ",
"                                                                                                                                ",
"                                                                                                                                ",
"                                  X O + : a d * . X                                                                             ",
"                                . . O * > 2 d j p O *                                                                           ",
"                                < d j h y 9 9 u i = p d .                                                                       ",
"                              a k f t I >.;.;.,.:.H 9 a +                                                                       ",
"                            : a 2 e Z ,.7.6.+.7.7.7.,.N O X                                                                     ",
"                          + < > * x O.;.X.o.X.-.o.+.6.%.- O                                                                     ",
"                          * & & = C  .F  .G +.%.X.o.G ..N >                                                                     ",
"                        X O + p y F D D F Z O.%.X...Z F G e                                                                     ",
"                        . X 2 > 6 X.Z n W ] H F J R J n  .m                                                                     ",
"                        . * > O 5 ..S ( F.Q.D.u.H.z.l.!  .S                                                                     ",
"                          O O * 9  .P f.` ) Q.!.I.^ T F.U F                                                                     ",
"                          X X 2 9  .P g.| r Y./.Q.z ~ R.Y F         -.b.                                                        ",
"                          . X > 6  .P h._ 3 Y./.Y.3 } R.U F       =.q.V.                                                        ",
"                          . X & 5  .P l.C.' Q.(.^.' S.R.I Z     D ;.e.B.                                                        ",
"                              O 7  .P G.^.W.^.)._.W.^.U.L       5 $.0.3.                                                        ",
"                              X o C #.H./.L.Z.A.Z.L._.a.C       = $ 8                                                           ",
"                              # 5 C K d.G.P.G.G.G.~.T.Q n       < .                                                             ",
"                              +.*.A o.2.y.i.{ { h.s.m.S b     + +                                                               ",
"                            o.8.n.S @.9.M.t.w V v.N.3.S 4.    +                                                                 ",
"                            k.c.5.F =.:.q.M.1.w.M.w.D $.r.p.{ [                                                                 ",
"                          i.Q.Q.p.  D @.:.9.>.9.0.&.m @.<.f.I.^.                                                                ",
"                          l.E.J.    @ 8 m m c m 0 , +   E z.).E.                                                                ",
"                          g.H.x.  b 5 X & ; ; ; - 0 A     f.K.j.                                                                ",
"                          / (   % 0 n n m M v M G B B x o q                                                                     ",
"                              X p j s u Z ..F A e k l 1 o                                                                       ",
"                              X & > < p 5 b c o & p g k :                                                                       ",
"                              X X X X X       X X X X O O                                                                       ",
"                                                                                                                                ",
"                                                                                                                                ",
"                                                                                                                                ",
"                                                                                                                                ",
"                                                                                                                                ",
"                                                                                                                                ",
"                                                                                                                                ",
"                                                                                                                                ",
"                                                                                                                                "
};
