/* XPM */
static char *c1cb19752ea24102d7891c29488ae1ddLBRLhYqre3b49Pfk[] = {
/* columns rows colors chars-per-pixel */
"128 128 27 1 ",
"  c None",
". c black",
"X c #04080D",
"o c #0C0F11",
"O c #0B1219",
"+ c #3F0000",
"@ c #191E23",
"# c #1D2226",
"$ c #540000",
"% c #7F0000",
"& c #5B3409",
"* c #323C46",
"= c #3F464D",
"- c #59616A",
"; c #676F77",
": c #860000",
"> c #A00A00",
", c #B11501",
"< c #BD1E02",
"1 c #FF3117",
"2 c #82601A",
"3 c #E94608",
"4 c #FF7E27",
"5 c #A98740",
"6 c #CCAF72",
"7 c #EED297",
"8 c white",
/* pixels */
"                                                                                                                                ",
"                                                                                                                                ",
"                                                                                                                                ",
"                                                                                                                                ",
"                                                                                                                                ",
"                                                                                                                                ",
"                                                                                                                                ",
"                                                                                                                                ",
"                                                                                                                                ",
"                                                                                                                                ",
"                                                                                                                                ",
"                                                                                                                                ",
"                                                                                                                                ",
"                                                                                                                                ",
"                                                                                                                                ",
"                                                                                                                                ",
"                                                                                                                                ",
"                                                                                                                                ",
"                                                                                                                                ",
"                                                                                                                                ",
"                                                                                                                                ",
"                                                                                                                                ",
"                                                                                                                                ",
"                                                                                                                                ",
"                                                                                                                                ",
"                                                                                                                                ",
"                                                                                                                                ",
"                                                                                                                                ",
"                                                                                                                                ",
"                                                                                                                                ",
"                                                                                                                                ",
"                                                                                                                                ",
"                                                                                                                                ",
"                                                                                                                                ",
"                                                                                                                                ",
"                                                                                                                                ",
"                                                                                                                                ",
"                                                                                                                                ",
"                                                                                                                                ",
"                                                                                                                                ",
"                                                                                                                                ",
"                                                                                                                                ",
"                                                                                                                                ",
"                                                                                                                                ",
"                                                                                                                                ",
"                                                                                                                                ",
"                                                                                                                                ",
"                                                                                                                                ",
"                                                                                                                                ",
"                                                                                                                                ",
"                                                                                                                                ",
"                                                                                                                                ",
"                                                                                                                                ",
"                                                                                                                                ",
"                                              .                                                                                 ",
"                                               ..                                                                               ",
"                                   ............ ...                                                                             ",
"                                ...OOOO@@@====@...O.                                                                            ",
"                              ......XXXOOOO@@@=@@@.O..                                                                          ",
"                                    ..XXXXXOO@@=@@.XO@. .                                                                       ",
"                                 ...@@@@@@@OOO@@=@@.O==...                                                                      ",
"                               ..@======++++++++++@OX@=...                                                                      ",
"                              .@==@@@@++,,,,,,,,,,++XO@=.@.                                                                     ",
"                             .@=@@@@@+:,1,,,,,1,1,,,++@@.X.                                                                     ",
"                            .@@@@@@O+::,1,1,,:1,1,11,,+@XX.                                                                     ",
"                            .@@@OOO+::,1,,1,+:1,,1,,1,,+XXO.                                                                    ",
"                           .@@OOOOO+:,,1+:,,+:1:,+:,,1,+@XO.                                                                    ",
"                          .@@OOOXX+::,:,+:,+:,,+,,+,,,1,+OO.                                                                    ",
"                          .@OXXXXX+:::,+::,+:,,,+,,+,+:,+OO@.                                                                   ",
"                         .OOXX.O@@+:,+,+:,,+:,,,+,,+:,+,,+O@.                                                                   ",
"                         .OXX.@@@+::+:,+::,+:,,,+,,,+:+:,+@@.                                                                   ",
"                        .OXX.@@@@+:,+::+::+::,,,+,,:+:,+:,+@.                                                                   ",
"                        .XX.@@@@O+:,+::+:+++::::+:+++::+:,+@.                                                                   ",
"                        .X..@@OOX+:,+:+++555+:::++22++++::,+.                                                                   ",
"                        ...@@OXXX+:,++2+56666+:+5555552+::,+.                                                                   ",
"                       .. .@OXXXX+:,,+25566666+66655555+::,+.                                                                   ",
"                       .  .OXXX.@+::,+255..66666655..555+:,+                                                                    ",
"                       .  .OXX.@@+::,+25....666665....67+:,+          %%%                                                       ",
"                          .OX.@@@+::,+2558..6666668..567+:,+        %%34%                                                       ",
"                          .X..@@O+::,+255...666666...566+:,+      %%><34%                                                       ",
"                          .X..@OO+::,+255.#.666666.#.566+:,+     %>><334%                                                       ",
"                          .. .@OX+::,+256.#.666666.#.666+:,+  .  %><<334%                                                       ",
"                          .. .OOX+::,+256.#.666666.#.666+:,+  .  %><<334%                                                       ",
"                          .  .OOX+::,+2566.66666766.6666+:+    . %><<344%                                                       ",
"                          .  .OXX+::,+566666666676666666+:+    ..%><<34%                                                        ",
"                             .OXX+::,+566666666666666666+,+    ...><3%%                                                         ",
"                              .XXX+:,+56666&666666&6666+:+     .o...%   .                                                       ",
"                              .XXX+:,+556665&&&&&&56667+:+      .;......                                                        ",
"                               .X.+:,+5566665555556667&+,+     ..o..                                                            ",
"                               ..<+:+&&25555666666677& ++      .-..                                                             ",
"                              %>.<+:+<<&&&555555555&&4%++      .o.                                                              ",
"                             %><<3++>><334&&&&&&&&&343+,+     .@.                                                               ",
"                             %<<34++>><3334.XXX.333343++3%    .@.                                                               ",
"                            %<<334+>>><<3334.@.33334%<++34%  .@.                                                                ",
"                            &&&34%+>>><<<3334.33334<%++<33&& &&.                                                                ",
"                           &567&4% %>>><<<333%3333<<%+<<3&56&57&                                                                ",
"                          &26667&  %>>>><<<33%3333<<% %<<&5&5667&                                                               ",
"                          &56667&  %.>>>><<<<%<<<<<<.  %<&&56667&                                                               ",
"                         &2566&7&  .X..>>>>>>%>>>...@.  %&256667&                                                               ",
"                         &2566&7&  .XXX..........@@@@.   &566675&                                                               ",
"                         &25567&   +.XXXOO@@@@@@@@O..+   &25675&                                                                ",
"                          &555&   +::..XXOOOOOOO...,,,+   &255&                                                                 ",
"                          &22&   +$::::.........,,,,,,+  .@&&&                                                                  ",
"                           &&   .....:::,,,,,+,,,,.... + .@.                                                                    ",
"                               .@====..:::,,,+,,..====.+.@.                                                                     ",
"                              .XOO@@@@=.$$$::+:.O@@@***..@.                                                                     ",
"                             .XXXOO@@@@=.$$$::.XOO@*****..                                                                      ",
"                             .XXXXOOOOOO.++++.XXXOOOOO***.                                                                      ",
"                             .XXXXXXXXXX.    .XXXXXXXXXXX.                                                                      ",
"                              ..........      ...........                                                                       ",
"                                                                                                                                ",
"                                                                                                                                ",
"                                                                                                                                ",
"                                                                                                                                ",
"                                                                                                                                ",
"                                                                                                                                ",
"                                                                                                                                ",
"                                                                                                                                ",
"                                                                                                                                ",
"                                                                                                                                ",
"                                                                                                                                ",
"                                                                                                                                ",
"                                                                                                                                ",
"                                                                                                                                ",
"                                                                                                                                ",
"                                                                                                                                ",
"                                                                                                                                ",
"                                                                                                                                "
};
