/* XPM */
static char *result[] = {
/* columns rows colors chars-per-pixel */
"64 64 247 2 ",
"   c #020304",
".  c #0A0203",
"X  c #060A04",
"o  c #0A0C05",
"O  c #02050A",
"+  c #05090D",
"@  c #0B0B0B",
"#  c #0C060A",
"$  c #140303",
"%  c #1B0404",
"&  c #16080A",
"*  c #0E1304",
"=  c #0F120B",
"-  c #111305",
";  c #13130A",
":  c #151A09",
">  c #1A1C0B",
",  c #181A07",
"<  c #060C12",
"1  c #090E13",
"2  c #180D12",
"3  c #0B1115",
"4  c #0D1319",
"5  c #071118",
"6  c #12171B",
"7  c #13191E",
"8  c #1B1A1C",
"9  c #181715",
"0  c #230403",
"q  c #2B0301",
"w  c #280C0C",
"e  c #350300",
"r  c #3A0201",
"t  c #370908",
"y  c #381907",
"u  c #241216",
"i  c #261817",
"p  c #2D120E",
"a  c #1C240B",
"s  c #1B2908",
"d  c #1E2610",
"f  c #1E3307",
"g  c #22250C",
"h  c #232A0B",
"j  c #262B0B",
"k  c #39280A",
"l  c #23350D",
"z  c #253B0D",
"x  c #2A3C0E",
"c  c #2A350C",
"v  c #35390C",
"b  c #252C13",
"n  c #2B2D13",
"m  c #2C2C19",
"M  c #242415",
"N  c #332E19",
"B  c #263213",
"V  c #2B3414",
"C  c #2D3A13",
"Z  c #2E3419",
"A  c #2F3919",
"S  c #263A12",
"D  c #323414",
"F  c #333D15",
"G  c #33351B",
"H  c #39361E",
"J  c #353B1A",
"K  c #3B3C1C",
"L  c #3A3915",
"P  c #161C21",
"I  c #1A1E23",
"U  c #1B2125",
"Y  c #1D2329",
"T  c #1F282E",
"R  c #212629",
"E  c #25272B",
"W  c #3B3621",
"Q  c #3D3B21",
"!  c #363620",
"~  c #262B31",
"^  c #282D33",
"/  c #2A3136",
"(  c #2D343A",
")  c #32373D",
"_  c #37262A",
"`  c #2E1F23",
"'  c #440201",
"]  c #4C0100",
"[  c #470B03",
"{  c #540100",
"}  c #5C0200",
"|  c #560A03",
" . c #5B1808",
".. c #47150D",
"X. c #630200",
"o. c #6B0200",
"O. c #6B0A01",
"+. c #650A03",
"@. c #740100",
"#. c #7C0100",
"$. c #740A00",
"%. c #7C0A00",
"&. c #671709",
"*. c #751A07",
"=. c #472709",
"-. c #57270A",
";. c #49370B",
":. c #58370C",
">. c #413D1E",
",. c #493516",
"<. c #592915",
"1. c #63370D",
"2. c #773B0C",
"3. c #6D2D0E",
"4. c #433D23",
"5. c #483F28",
"6. c #5D2A2B",
"7. c #6E3B27",
"8. c #2C4E06",
"9. c #2C430C",
"0. c #2D490A",
"q. c #264309",
"w. c #32450D",
"e. c #334B0C",
"r. c #3A4D0E",
"t. c #354A09",
"y. c #35530B",
"u. c #3A530B",
"i. c #365507",
"p. c #2E4111",
"a. c #344313",
"s. c #3B4415",
"d. c #364A12",
"f. c #3D4A14",
"g. c #364119",
"h. c #3C421A",
"j. c #3D4919",
"k. c #3D5212",
"l. c #2F5109",
"z. c #2F4015",
"x. c #424C15",
"c. c #42441D",
"v. c #444A1A",
"b. c #4A4C1C",
"n. c #48471F",
"m. c #445314",
"M. c #495516",
"N. c #495711",
"B. c #6C4413",
"V. c #764A15",
"C. c #795518",
"Z. c #4D6115",
"A. c #4D620C",
"S. c #454222",
"D. c #4A4424",
"F. c #4B4923",
"G. c #5E5134",
"H. c #7F5336",
"J. c #725029",
"K. c #7A602A",
"L. c #393F45",
"P. c #38464A",
"I. c #6A6A69",
"U. c #6D5F44",
"Y. c #840100",
"T. c #8B0200",
"R. c #830B00",
"E. c #8B0C01",
"W. c #930500",
"Q. c #940B00",
"!. c #9B0A00",
"~. c #881503",
"^. c #9D1100",
"/. c #971402",
"(. c #A40D00",
"). c #A90D00",
"_. c #A41100",
"`. c #AC1201",
"'. c #AA1B03",
"]. c #B31501",
"[. c #BC1C02",
"{. c #B71808",
"}. c #872407",
"|. c #953007",
" X c #B62204",
".X c #B83811",
"XX c #B02F09",
"oX c #C21B05",
"OX c #CA1D08",
"+X c #D11F08",
"@X c #C82703",
"#X c #D3220B",
"$X c #DD240D",
"%X c #D93B06",
"&X c #CF320F",
"*X c #E1260E",
"=X c #E6280F",
"-X c #EC2A11",
";X c #F12B12",
":X c #875316",
">X c #83611B",
",X c #855C28",
"<X c #8A592F",
"1X c #89662A",
"2X c #99772F",
"3X c #8B6B35",
"4X c #936B37",
"5X c #9D7B34",
"6X c #987538",
"7X c #A07F38",
"8X c #DA4C0E",
"9X c #E74508",
"0X c #EB5612",
"qX c #F96C1C",
"wX c #F2681A",
"eX c #EA6D1F",
"rX c #8A6E44",
"tX c #8C784D",
"yX c #9C7645",
"uX c #92664A",
"iX c #A27E49",
"pX c #8B5F43",
"aX c #A6843C",
"sX c #998354",
"dX c #AB8844",
"fX c #A88B59",
"gX c #AB925E",
"hX c #BC9C5A",
"jX c #B69657",
"kX c #B29049",
"lX c #B89B67",
"zX c #AD9561",
"xX c #BEA166",
"cX c #BFA15F",
"vX c #C2A25D",
"bX c #C3A564",
"nX c #C5A86B",
"mX c #CBAE71",
"MX c #C4A871",
"NX c #CDB173",
"BX c #D2B475",
"VX c #D4B77A",
"CX c #C09F68",
"ZX c #888886",
"AX c #DBBE82",
"SX c #DEC184",
"DX c #EBCF93",
/* pixels */
"4.5.5.S.S.S.Q c.M.u.r.t.x w.s.C C p.a.K w.8.e.e.8.9.f l w.e.d.F.F.F.F.4.L F V D h.h.K H G G Z J a.d.f.d.a.z 9.a.a.s.h.K s.L K S.",
"4.4.4.4.Q Q K h.k.N.A.N.w.x C V S C z V S q.q.9.9.t.9.z C F K 4.D.5.5.W G F S A s.K H G J g.J J F h.f.s.F p.C J h.j.c.K K K K 4.",
"4.4.W H Q K h.h.k.N.Z.m.C z l d b d X X X o X o X l 9.x V * - N 4.L Q H G Z C F s.v.h.Z C J J Q h.Q j.J K k.d.J h.j.Q K K Q 5.5.",
"4.4.S.Q Q Q K s.k.A.N.C V 9.: X o o O O O @ < 4 6 = X a a.g   # N N J >.H J K f.m.v.K J p.a.h.K G J K J J d.r.A F a.g.K c.4.S.5.",
"4.D.D.4.Q S.h.J j.m.v.C C a.h o         + < 4 4 6 4 U T * - s X X d K 4.K >.K f.f.h.K s.w.a.f.j.J J s.J F w.d.d.a.a.g.h.S.4.S.Q ",
"4.5.D.D.S.c.s.K h.J F V a * - 3 1 P E ~ ^ ^ 3 + < 4 U ^ ~ R :   + = N D.4.Q s.s.s.s.c.v.a.d.f.f.d.F A h.h.a.d.a.F K K Q S.Q 4.K ",
"H ! 4.F.S.4.c.s.J J B : @ 1 1 6 I T ( ( / ( ^ ~ / Y 4 I ( / Y X   + @ m D.S.>.h.s.K c.b.h.a.h.h.a.a.J J J h.g.J K J J Q S.F.K K ",
"H G J h.F.S.K K Z > : 1 I U 8 7 7 P 4 7 P P / ) ( ( ~ 6 6 U / R O + I 8 m D.S.n.S.h.j.b.n.h.h.g.J F J H Q g.J G G J G h.c.S.K A ",
"h.H c.c.4.D.5.H > @ < P P P 4 3 4 4 3 2 u u u 9 2 ` ` u 2 u I ( R 1 Y ~ 8 N F.F.F.c.c.F.v.j.S.a.d.K G J c.g.g.J Q h.h.n.c.K F a.",
"v.Q F.c.>.4.>.> 1 P P P 1 1 5 5 1 2 w { { } X.} X.+.} } X.| u 8 ^ Y < R ^ 9 D n.H >.n.b.F.j.c.h.s.J G J g.Q J J K h.h.K J Z Z C ",
"d.h.D.n.c.L 9 1 7 3 3 5 < < # # w ] { #.T.`.`.[.{.`.].{.].{.+.| p 8 6 7 ~ ~ = D - G F.c.c.K h.h.v.h.J J J K J Q K h.h.h.F S S l ",
"N.f.K F.>.> + 3 3 1 + < I I t ' X.Y.W.!.`.{.].$X#X].+X*XoX$XoX$X~.{ p 7 U 6 @ n @ n F.h.S.c.h.s.f.v.h.J J J ! K Q j.J G J C w.x ",
"A.t.C J > # 3 5 + # < I ) ..X.Y.#.`.-X*X[.=XoX].$X#X@X-X{.[.=XOX$XoX$.p I I 6 # 9 @ n n.K n.c.s.s.j.h.p.A J Q Q j.a.C J G F a.r.",
"i.i.x : + < + O   1 ) ) ..o.Y.Y.{.$XoX{.{.;XoX`.*X$X`.+X*X].oX=X#X$XOX$.p I 6 O 6 + n n.c.c.h.s.h.h.J Z A ! Q g.k.w.w.J m S S w.",
"l.A.t.* O <   + I / ^ ..o.Y.Y.{.$XoXQ.O.].;XoX`.*X$X`.OX;X{.{.;XOX{.$X+X@.p P # 6 o b n.n.v.s.s.h.h.J Z J ! ! J f.m.k.C b 9.9.9.",
"i.i.s X O O + Y ) E t o.Y.T.W.{.oXQ.+.#._.E.Q.(.*X$X`.OX$X$.`.;XOX(.{.*X{.t P < 7 ~ 9 V b.v.s.h.J g.F Z Z Z ! A g.d.a.C A e.q.8.",
"u.u.X       8 ) T 2 ' #.Y.Y.).E.E.E.] T._.] @.(.=X{.R.#X=XR.$.{.oX`.`.#X$X$.w 6 I L.6 g b.s.L h.h.h.J Z Z Z Z Z A A S C g.p.S 0.",
"V s X   9 o 6 ~ 3 t X.Y.Y.W.R.$.%.O.@.Q.%.X.#.(.OX'.O.Q.oX_.{ Q.E.^.].#X-X!.r 6 I ^ 3 g m.j.s.s.G G ! W W H G Z C A A V A S B S ",
"n     ; M ; 3 4 2 ] Y.Y.!.`.+.%.R.] W.^.] #.Y.(.].].R.] Y.^.| E.%.$.^.oX#X^.+.i I I + j b.b.f.L G G H Q K J W J F V G C S b Z B ",
"D X - K ; 1 7 5 & ] Y.T.)./.X.E.%.{ W.^.{ #.Y.!.`.{.R.{ W.^.{ @.`.+.$.].`.{._.' 8 I @ j F.n.K K G G Z J W 4.5.W K J m C p.b Z J ",
"n , K D = < 3 1 0 } #.T._.} X.W.$.X.T.Q.] @.T.Y.!.`.%.] T._.o.o.!.X.$.`.`.].^.' 8 I # g n.c.>.K J J Z Z K 4.4.W Q S.Z J g.J Q h.",
", J K * + 5 < % { Y.Y.T._.X.o.X.X.Y.Y.#.] #.T.Y.Y.T.o.{ T.`._.} @.} X.!.].]._.[ 8 P # g h.>.4.K F F J J K 4.4.5.D.S.S.Q Q J Q S.",
"Z G N o < < + & } Y.Y.T._.X.X.} { #.#.@.| @.#.Y.Y.#.X.{ #.W.!.| o.} } W.].].!.' 3 P + g s.h.K K h.F A Z K 4.4.5.5.4.4.S.S.Q S.S.",
"F m o 1 < + + $ { Y.Y.T._.} ' ' ' | | <.1X .] @.+.] [ ' | #.Y.] @.} X.!.`.]._.' 2 P # s c.K K K h.h.J V C K 4.4.Q 4.D.D.D.4.S.Q ",
"g.m X + 1 O   $ { Y.Y.T._.} :. .7.gXfXfXdX4X4X3.7.4X,XV.1.| ] ' @.} } W.].]._.' 3 4 + g s.K K >.c.S.K F C h.h.n.D.S.D.D.Q D.S.Q ",
"j.C X + <   1 w { Y.Y.T._.X.B.1XfXBXBXBXbXbXbX6X2XdXaXaX5X1XV.B.| ' X.!.].].^.' & 5 O h x.s.s.c.K K K h.g.F s.h.S.D.D.S.h.Q Q W ",
"h.Z X   +   1 p { Y.T.!.`.| 1.2XvXfX5.G.MXBXmXbXvXxXjXaX6X,.L 1XC.[ X.E.!.]._.' # 5 O a f.f.x.x.a.J s.s.F F s.a.j.F.j.Q S.W W W ",
"K N X O O   1 u { Y.T.`.].| 1.2X3XN   . G.CXNXmXmXNXvX2Xk     N yX3X&.o.W.].^.' # 1 O d h.s.M.M.a.C w.r.a.j.v.v.h.f.j.K j.D.Q Q ",
"H > O   ; o 1 u { Y.W.`.`.} 1.aXK.G.I.X = zXBXmXmXNXhXsXI.    5.zXnXJ.{ W.]._.' # 3   > J F h.f.r.x z 9.d.v.c.a.s.s.=.<.-.<. .6.",
"G       b > + u { Y.T.`.`.} 1.2XdXlXI.  ; zXNXmXmXNXbXxXZX4 @ fXBXmX<X} W._.^.' # <   > K F S p.y.w.q.w.a.F A K -.-.Y.!._.XX/.&.",
"N X   @ n , O 2 } Y.T.`.].} B.5XdXG.    ; gXBXmXmXmXBXtXo 7 ; fXBXBXH.{ Y.W.^.' # +   > s.F w.w.y.w.z m.m.a.D  .Y.E.).[.%XqX.X .",
"N   @ G K > + 2 ' @.T.`.^.&.,XdXkXH.* 4 9 gXBXmXNXmXBXtX@ 6 ; fXBXmXH.} Y.W.^.' X O   s a.r.w.x w.d.v.s.s.C =.T.!.(.{.oX%XqX.X&.",
"N . m W Q > + < % ] T._.} B.5XaXcXrX@ 7 ; gXNXmXmXNXNXtX@ 7 @ fXBXNXH.{ Y.W.^.'     O , F a.x 9.a.s.Z.a s y.=.T.!.).[. X%XqX.X&.",
"H = G 4.4.> O 5 & ] Y._.| B.5XhXNXtX9 P M zXNXmXNXNXNXsX9 6 i fXBXBX<X{ Y.W.^.' .   6 @ a C c z C B j.a f k.-.T.(.[.oXoX%XqX.X&.",
"4.W 5.5.5.> + < & ] T._.| B.5XhXNXMXU.! fXmXmXmXSXAXmXmXtXm tXmXmXmX<X{ Y.W.!.' .   +   : w.w.z B Z b.a s -.E.W.(.[. X%X9XeX.X .",
"5.5.5.4.4.H >   & ] T._.| B.5XhXNXNXxXfXmXmXmXNXSXSXNXNXxXfXmXBXmXBXH.{ T.#.] &   a -   : x w.d.a.g.m.: X ] W.`.{.@X%X9XqX&X&.,.",
"W W 4.4.W 4.>   & ] Y.T.{ B.5XhXNXmXmXBXNXNXNXmXVXVXmXmXmXBXmXmXmXAXpX} T.@.t #   c F n : s k.f.d.f.x.: ~ _ { ).@X9XwX X'.3.N K ",
"N W W _ H W i   # ] Y.Y.{ :.>XdXbXmXmXmXxXyXlXBXNXVXgXyXmXmXmXmXMXDXuX{ T.@.r     v >.K n c f.m.N.k.m., U P.6.W.!.'.XX-.,.L C m ",
"m ! G G H H >   $ ] Y.#.] &.2.1XkXcXmXNXbX1X3XrX4X4X1X3XmXmXmXmXVXDXuX{ T.@.r >   c s.L s.s.x.M.Z.N.l o   Y _ r r  .-.a.d.a.Z Z ",
"d M M m G >.>   > ..o.#.{ T.~.V.2XkXbXmXmXjX,XC.C.V.3XvXmXmXmXSXDXBX7.} T.@.' w.f w.r.a.c.M.s.x.m.z 8 +     - - X a s h C S S Z ",
"d d b Z F F b g h.N ] #.{ R.(.~.V.6XkXbXmXNXhXjXjXjXbXBXBXSXVXCXlX<X .} Y.X.y w.u.u.i.t.b.M.n.c.n 8 / 4 * , c L : = - : c x C m ",
"S p.9.F D Z J L c.H ] @.] Y.!.`.'.:X3X2XvXbXbXbXbXbXbXlXjXMXCX,X:X8X/.} $.t k z a.w.t.r.M.b.n.j ; / I * c x.x.s.F a.s.s.K F B a ",
"p.9.p.F Z V b Z G k ] @.} #.Y.T. X.X2.V.6X5XaX2X5X5X5X1X2.2.:XeXqX8X*.O.@.| *.k v r.r.m.s.s.j + 6 7 ; L f.d.d.a.F s.m.f.F F S l ",
"C 9.C S x v B S =.o.{ #.#.{ o.W.`.@X9X&X2.;.:.:.:.;.:.|.8X8X0X0X0X~.X.W.R.*.0X}.k w.r.w.s.j   + + @ D M.b.s.d.f.h.c.s.v.s.s.a.F ",
"x w.9.q.e.i.q.z ;.Y.R.{ @.{ X.Q._.[.@X@X.Xy X @ @ o  .9X9X9X0X9X@XO.X.@.*.%X0X0X}.=.a.a.h   O O o C c.c.h.h.h.h.4.Q K c.h.h.h.K ",
"w.w.9.8.8.i.8.q.k T.Q.{ @.{ -.1.}.`.[.[.@X/.0 + X  .8X9X9X9X9X@X XO.$.%.O.@X9X0X0XV.:.:.k + O o v f.b.c.4.W c.S.S.n.c.K K H K J ",
"a.a.e.y.8.i.8.z k T.W.-.] ' H.xXyX*.(.`.[.[./.q [  X#X@X@X@X@X[.oXO.X.!.'.[.@X8X:XiXfXCXrXw o z f.x.c.s.K 4.S.n.>.s.c.c.K K h.x.",
"S F y.i.8.8.q.z v -.3.B.[ r 7.4XC.*.(.(.`.{.@X$.Y.].).`.`.`._.| [ ' y &._.[. X|.,X1X1X3XfX4Xk e.L f.w.s.H Q 4.S.c.c.h.c.K K h.v.",
"Z V a.9.9.9.9.x q.F :.C.C.[ J.dXgX6X*.] ] _.].W.W.).Y.' [ ' r ; $ e y k &.!.2.V.aXyXiXiXmXjX;.9.d.f.f.a.Q Q Q ! W S.h.J G G H G ",
"G G F 9.d.9.z 9.x D B.C.aXK.H.lXDXlX=.  O ' { ' ] { t < < < 1 6 t q a 9.;.-.1.>XaXhXAXDXBX6X;.9.p.a.a.a.G h.J G G H W W H ! G Z ",
"H D D S C 9.F x x D :.>X7XdX<XuXSXjX=.@ +     + O O < 8 8 7 4 + $ e y v 9.v 1.>X2X7XjXcXjX1X;.C a.f.F x a.J C a.F G J 4.Q K G G ",
"G K K G V v f.f.d.v :.V.2XdXhXbXlX4X-.O   + + 1 3 3 < < < 1 q e e E.#.k l g ;.C.C.2X5X7X5XC.;.F d.k.a.9.z C C a.A G W S.S.S.H Q ",
"h.c.v.L c.r.s.f.f.a.C :.V.1X2X6XC.}.~.e % X O   O O o q 0 r /.].`.].$.y : + 8 =.C.C.C.C.B.x.c F a.p.p.p.S l F F G Q Q Q D.S.J G ",
"c.b.>.>.b.v.s.F s.L v [ -.1.-.3.}.`.`._./.e % $ $ % | `._.`.].[.].{.%.0 X +   - ;.:.:.:.;.a.S a.d.q.z p.z l z S J K >.K S.F.J H ",
"c.c.K K b.x.>.L J v r { ] [ ] X.#.Y.T.W.`.^.^.{ O._._.].].^.^.^.^._.T.X.0   * 9.m.x.r.9.d.e.9.9.9.9.0.e.9.z z C K K n.S.S.n.h.K ",
"c.c.c.c.s.x.x.>.F D ' ] % $ . % $ r #.Y.T.W.`.X.%.[.`.`.~.q % 0 % % { o.q - 9.e.r.r.y.e.0.0.9.z z p.9.9.0.e.t.s.c.h.b.n.n.F.4.J ",
"b.c.c.v.c.v.f.K H D e % E ( ( ( ( R r Y.Y.Y.T.{ o.T.W.@.w / ( ( ( ( i q y t.t.l l S x w.9.z q.S S p.q.9.9.e.f.m.f.c.b.b.c.n.5.>.",
"c.L s.x.h.s.s.c.K D $ 1 I ~ ^ ^ ~ ^ R e } X.#.{ X.T.X.$ 5 Y ~ ^ ^ ^ ^ 8 , N.t.l l S w.9.z z C b S 9.0.9.9.y.u.M.v.c.b.b.c.c.5.4.",
"c.v.v.s.h.f.s.s.D ;   < 5 4 P P P Y / Y 0 ] X.] { { % + 1 3 4 P U P T / d h r.9.V C d.9.z S l B a.y.0.p.e.8.y.f.x.v.x.x.x.x.n.>.",
"c.M.x.d.s.v.x.a.j   + + < 5 7 4 P 4 P Y . r ] ' ' 0   + + < 4 4 6 6 4 Y I o t.t.p.C F 9.z l f C d.0.9.p.9.0.y.d.m.m.x.N.r.x.b.c.",
"c.c.s.s.c.f.f.w.l   O + + < 5 1 < 5 1 +   y y k y %   + + + < 5 3 < 1 1 + * r.e.w.a.F a.f s f a.e.9.9.0.z e.i.u.Z.r.m.Z.x.b.c.>.",
">.K c.K c.h.s.a.C *               O   O : h.j.k.r.l *       O     O     + s i.u.f.s.F F B d l q.q.q.9.0.0.i.u.u.m.w.m.M.b.c.>.>.",
"4.4.S.c.K n.h.J s.V - * * * = * * * * : a.M.u.i.t.t.l * * * * * @ ; - - s 9.w.s.a.F Z J A b S q.q.0.9.9.0.u.t.q.x s.x.b.n.>.n.>.",
">.4.D.n.K c.c.v.s.C x q.9.a.a.C C q.e.a.a.u.l.8.i.l.8.q.t.9.9.K W H H s.w.c Z F A A Z J J Z B 9.p.8.9.q.9.u.e.l x s.L c.n.>.D.>."
};
