/* XPM */
static char *_931e485d7644605e0a3f076cc50031fez0Xf1TLs3PrCcNX[] = {
/* columns rows colors chars-per-pixel */
"64 64 178 2 ",
"   c None",
".  c #1A0F0D",
"X  c #1A100E",
"o  c #131614",
"O  c #1A1513",
"+  c #141817",
"@  c #161B1A",
"#  c #1A1E1C",
"$  c #231511",
"%  c #291714",
"&  c #251815",
"*  c #2E1A17",
"=  c #241C1A",
"-  c #2F1B18",
";  c #321D19",
":  c #391F1B",
">  c #1B201F",
",  c #24211F",
"<  c #2A231F",
"1  c #2D2016",
"2  c #35231A",
"3  c #3C231E",
"4  c #37291B",
"5  c #3B2C1E",
"6  c #1E2422",
"7  c #212624",
"8  c #282523",
"9  c #222926",
"0  c #252D2A",
"q  c #2C2B2A",
"w  c #312B25",
"e  c #302B28",
"r  c #28312E",
"t  c #3E352A",
"y  c #2C3532",
"u  c #2F3936",
"i  c #303A37",
"p  c #323639",
"a  c #313A3A",
"s  c #3A3631",
"d  c #41241F",
"f  c #432621",
"g  c #482722",
"h  c #462A22",
"j  c #4C2A25",
"k  c #512D27",
"l  c #542F28",
"z  c #443321",
"x  c #4A3524",
"c  c #4D3A26",
"v  c #453728",
"b  c #45382A",
"n  c #4F3E2C",
"m  c #513627",
"M  c #513B27",
"N  c #563129",
"B  c #5C332C",
"V  c #553D2A",
"C  c #5C3A2C",
"Z  c #403E39",
"A  c #463D33",
"S  c #61362F",
"D  c #613C2E",
"F  c #643730",
"G  c #663931",
"H  c #56402A",
"J  c #5E442D",
"K  c #44403A",
"L  c #5F4A32",
"P  c #62442E",
"I  c #654330",
"U  c #6C4534",
"Y  c #624A34",
"T  c #6C4C34",
"R  c #714736",
"E  c #714936",
"W  c #6E5135",
"Q  c #6D573F",
"!  c #63503B",
"~  c #735237",
"^  c #745338",
"/  c #7A573B",
"(  c #7D5A3C",
")  c #72583D",
"_  c #3E4345",
"`  c #484947",
"'  c #53524D",
"]  c #5C554B",
"[  c #4C5459",
"{  c #5E5B54",
"}  c #5F5F5B",
"|  c #52585A",
" . c #6E5841",
".. c #655A4C",
"X. c #665442",
"o. c #7C5F40",
"O. c #685E52",
"+. c #665C50",
"@. c #7E664B",
"#. c #6D6153",
"$. c #65625C",
"%. c #7C6954",
"&. c #786652",
"*. c #545F66",
"=. c #5C656B",
"-. c #5F696F",
";. c #5A6265",
":. c #5E6A71",
">. c #686660",
",. c #636B6E",
"<. c #686A68",
"1. c #626565",
"2. c #7F766B",
"3. c #626D74",
"4. c #667178",
"5. c #6A767D",
"6. c #657076",
"7. c #767876",
"8. c #845D3E",
"9. c #82603E",
"0. c #875F40",
"q. c #895F41",
"w. c #856341",
"e. c #8B6642",
"r. c #8C6B49",
"t. c #876A4B",
"y. c #916645",
"u. c #936D46",
"i. c #916F4B",
"p. c #91714F",
"a. c #9C744A",
"s. c #8B6F52",
"d. c #88745D",
"f. c #967755",
"g. c #957A5C",
"h. c #9C7F5F",
"j. c #9D7851",
"k. c #A0764C",
"l. c #A67B4E",
"z. c #AC7E51",
"x. c #887660",
"c. c #8D7C68",
"v. c #937B60",
"b. c #AE8051",
"n. c #B48454",
"m. c #B88756",
"M. c #B98957",
"N. c #B1885E",
"B. c #BD8B58",
"V. c #8A8276",
"C. c #8D8579",
"Z. c #C28E5B",
"A. c #C9945E",
"S. c #CC9660",
"D. c #CE9861",
"F. c #D89F65",
"G. c #DAA066",
"H. c #717D84",
"J. c #768186",
"K. c #79868C",
"L. c #7A888F",
"P. c #77848B",
"I. c #7B8991",
"U. c #7F8F98",
"Y. c #818483",
"T. c #8B8E8C",
"R. c #90928E",
"E. c #818F97",
"W. c #83939B",
"Q. c #88979F",
"!. c #949590",
"~. c #8B9BA4",
"^. c #8D9FA9",
"/. c #92A3AC",
"(. c #95A7B0",
"). c #97A9B4",
"_. c #99ABB5",
"`. c #9BAEB9",
/* pixels */
"                                                                                                                                ",
"                                                                                                                                ",
"                                                                                                                                ",
"                                                                                                                                ",
"                                                                                                                                ",
"                      e.a.                                                                                                      ",
"                      L L                                                                                                       ",
"                      # > #                                                                                                     ",
"                    6 < 5 7                                                                                                     ",
"                  6 > - z = 7 + + o o + @ # > @ # > @ # # @ @ # @ # > @ > # @ > > @ # > # > > @ # # @ > # # > #                 ",
"                  7 X 1 c ; < 7 + + o + 6 7 6 6 6 6 7 6 6 6 6 6 6 6 6 6 6 6 6 6 6 6 > 6 6 6 6 6 > 6 # 6 6 > 6 6 #               ",
"                9 O . 4 J f g 8 6 + + + # 0 7 9 9 6 9 9 6 9 9 6 9 9 6 9 9 7 6 9 6 6 9 9 6 9 9 6 9 9 6 9 9 6 9 9 9               ",
"              6 O . % m W h B 3 , # @ + + 7 0 7 0 9 6 0 9 6 0 9 7 0 9 9 0 0 9 0 0 9 0 0 9 9 0 9 9 0 9 9 0 9 9 0 0 0             ",
"            0 # . $ j I w.x S l ; 9 # + + # 0 9 9 9 6 7 9 6 9 9 7 6 9 6 7 9 6 7 9 7 9 9 9 6 9 7 6 9 7 6 7 6 6 9 6 9 7           ",
"          6 7 X X d S ^ k.C B l j - 6 @ + + 9 0 9 0 9 9 0 9 9 r 0 7 0 0 7 0 0 9 r 0 9 0 0 7 0 0 7 0 0 7 0 0 7 0 9 9 r 7         ",
"          7 X . ; B B 8.m.P B B N g = 7 @ + @ 9 0 9 0 7 9 0 7 9 0 9 9 0 9 9 0 9 9 0 9 9 0 9 7 0 0 7 0 9 7 0 9 7 0 7 9 0 9       ",
"        9 O . $ k D 8.n.A.B.8.D F S 3 , > + + > 0 0 r 0 9 r 0 0 0 0 9 0 0 9 r 0 9 r 0 9 r r 9 0 r 9 0 r 9 0 r 9 r 9 0 r 9       ",
"      9 O . X 3 I e.a.~ T z.D.z.E B k ; # 6 + + 6 r 9 0 0 9 9 0 9 9 0 0 9 9 0 0 7 0 0 9 9 0 9 7 0 9 6 9 9 7 9 0 0 9 7 9 7 >     ",
"    0 # . . 2 Y ( T j k B D / n.A.y.N g - 7 # + @ 0 r y u u 0 u u 0 y u y r u u r y u y r u u 0 u u y r u y 0 u u u 0 y y y >   ",
"  6 @ . $ 5 J J x k S G G G S G q.B.m.^ h & > @ o @ 0 0 6 9 7 7 6 6 7 6 6 7 9 6 6 7 9 6 > 9 9 6 6 9 7 > 7 9 7 6 6 9 6 6 6 7 6 > ",
"7 6 X 2 z x h k S G G G G G G G B D y.Z.z.P # 6 @ @ 9 i y u i i y y i i y u i u r u i i y u i u r u i u r i i u r u i u r u u u ",
"#   4 5 2 j N B S G G G G G S S N B B U y.z.4 O O O = 8 8 8 8 8 8 , 8 8 8 8 8 8 , 8 8 8 8 8 8 8 , 8 8 8 , 8 8 8 , 8 8 8 , w e 9 ",
"    & ; l B f 3 j G G G G S B B B B S G S D 2 * * * * * * * * ; ; ; ; * ; ; ; ; ; ; ; ; ; ; ; ; ; ; ; ; ; ; ; ; ; ; ; ; 3 N j   ",
"    ; h j ; ; h S G G S G G G G G S j g N S ; * - * - ; 3 3 3 3 3 3 3 f f f f f f f f f f f f f f f f f f f f f f f f g B G j   ",
"    k S N g g N G S S S G G G B B N 3 ; g N ; * - * ; f k N B B B B B S S S S S S S S S S S S S S S S S S S B d 3 l S S G G k   ",
"    j B B S B B B B B G G G B ; ; ; ; ; ; ; * * - * ; j S G G G G G G G G G G G G G G G G G G G G G G G G S N f g N G G S S j   ",
"    k S S S N S S S S F F F S j g g j j j g ; * - * ; l G G G G G G G G G G S S S S S S S S S S G G G G F f ; 3 S G G G S N g   ",
"    k S S E E E E E U U U U U U U U U D S S ; * * - 2 l G G G G G G G G G S I ( ( ( ( / ( ( ( / C F G G G N N N G G G G G B g   ",
"    j B U n.k.a.a.u.u.u.u.u.u.u.u.u.a.( g S ; * * * 3 N G G G G G G G G G S x v b b n T b b v c 2 l G G G G G G G G G G G G j   ",
"    l G R a.x x c M x x V v c c x z P ( ; N ; * * - 3 N G G G G G S F G G F V b a a K o.p a p n 2 h G G G G G G G G G G G G j   ",
"    k G R a.c ~ ~ A ` $.s.| ` X.e.e.9.( - j ; * * - 3 B G G G G B B G G G S ( &.:.3.$.w.=.3.=.t.M g G G G G G G G G G G G G j   ",
"    j S R a.V r.$.U.).!.g.H.6.;.%.m.a./ ; k ; * * ; 3 B G G G S S G G G G S 8.x.I.E.7.@.J.E.K.f.V g G G G G G G G G G G G G j   ",
"    k F R a.V %.Q._.`.R.v.W.P.4.} z.a./ ; k ; * * ; f S G G G G G G G G G S 0.@.$.>.O.) { $.{ i.V g G G G G G G G G G G G G j   ",
"    l G R a.M #.I.~.).T.d./.~.L.,.j.a./ ; k ; * * ; g S G G G G G G G G G S 8.c././.Y. .H.H.,.p.V g G G G G G G G G G G G G k   ",
"    k G R a.M ] 5.L.~.Y.%.(._.~.J.f.a./ ; l ; * * ; g S G G G G G G G G G S 8.c.W.I.<.Y [ [ _ r.V g G G G G G G G G G G G G j   ",
"    k S U a.c ' -.5.L.7.#.(.`._.Q.g.k.( ; l ; * * ; j G G G G G G G G G G S q.%.*.[ ` V r 9 7 e.V g G G G G G G G G G G G G j   ",
"    j B U a.c ' =.=.5.1.] ^.`.`./.h.l.( ; k ; * * ; j G G G G G G G G G G C ( Q Z s t V w w w ( J h S G G G G G G G G G G G j   ",
"    g N U a.M X.+...O...! 2.V.C.V.N.n.( - j ; * * ; k G G G G G G G G G S J W W T T T W T T T W W h d G G G G G G G G G G G j   ",
"    g k I a.c e.b.z.z.b.n.n.n.n.z.B.m.8.- j ; * * ; N G G G G G G G G G G j 3 3 3 3 3 3 3 3 3 3 3 3 j G G G G G G G G G G G j   ",
"    d g D a.c a.G.G.G.G.G.G.G.G.D.B.M.9.- 3 * * * : N G G G G S B S G G G F l j N F G G G G G G G G G G G G G G G G G G G G k   ",
"    3 g D a.c a.G.F.F.F.F.F.F.G.S.B.M.w.- - % - - 3 B G G G G S N S G G G S 3 ; f G G G G G G G G G G G G G G G G G G G G S j   ",
"    3 g C a.c u.D.S.S.S.S.S.S.S.Z.M.M.e.- 3 * * - 3 B G S B N B B B G G G G B B B G G G G G G G G G G G G G G G G G G G G B f   ",
"    3 j D a.c e.m.m.m.m.m.m.m.m.z.m.B.e.- f * * - 3 S G G S N B B F G G G G G G G G G G G G G G G G G G G G G G G G G G S B g   ",
"    3 j D a.c ( a.a.a.a.a.a.a.a.u.n.B.e.- f * * - f S G G G G G G G G G G G G G G G G G G G G G G G G G G G G G G G G G G G j   ",
"    3 j D a.c W w.w.w.w.w.w.w.w.( z.B.e.- f * * ; j G G G G G G G G G G G G G G G G G G G G G G G G G G G G G G G G G G G G j   ",
"    3 g C a.c J W W W W W W W W T l.B.e.- f * * ; N G G G G G G G G G G G G G G G G G G G G G G G G G G G G G G G G G G G G k   ",
"    ; ; x a.c M H H H H H H H H V k.B.e.- f % $ ; j l l l l l l l l l l l l l l l l l l l l l l l l l l l l l l l l l l l l d   ",
"    ; ; m a.c x x x x x x x x x z k.B.e.- f                                                                                     ",
"    : f C u.z 5 4 4 4 4 4 4 4 4 4 u.n.8.* 3                                                                                     ",
"                                                                                                                                ",
"                                                                                                                                ",
"                                                                                                                                ",
"                                                                                                                                ",
"                                                                                                                                ",
"                                                                                                                                ",
"                                                                                                                                ",
"                                                                                                                                ",
"                                                                                                                                ",
"                                                                                                                                ",
"                                                                                                                                ",
"                                                                                                                                ",
"                                                                                                                                ",
"                                                                                                                                ",
"                                                                                                                                "
};
