/* XPM */
static char *result[] = {
/* columns rows colors chars-per-pixel */
"64 64 217 2 ",
"   c #1A0F0D",
".  c #1B110F",
"X  c #131616",
"o  c #141817",
"O  c #161A19",
"+  c #1A1E1C",
"@  c #1A1714",
"#  c #241512",
"$  c #2E1A17",
"%  c #2B1E1C",
"&  c #271B18",
"*  c #331D19",
"=  c #381F1B",
"-  c #1C2C0C",
";  c #1A260F",
":  c #1F310B",
">  c #1E2912",
",  c #1C211D",
"<  c #1E2516",
"1  c #202F0F",
"2  c #23350C",
"3  c #263B0C",
"4  c #2A3D0D",
"5  c #26390B",
"6  c #313E0F",
"7  c #232D14",
"8  c #23241C",
"9  c #2C221C",
"0  c #242A1C",
"q  c #2B2C1C",
"w  c #272715",
"e  c #34221B",
"r  c #3B221D",
"t  c #362C1B",
"y  c #3B2D1C",
"u  c #263312",
"i  c #2B3513",
"p  c #2D3C12",
"a  c #2D3319",
"s  c #2A3817",
"d  c #333C15",
"f  c #34351B",
"g  c #39361E",
"h  c #353B1A",
"j  c #3B3D1C",
"k  c #373D16",
"l  c #1A1F20",
"z  c #1D2322",
"x  c #202624",
"c  c #222926",
"v  c #252C2A",
"b  c #2A2E2B",
"n  c #292A21",
"m  c #3C2722",
"M  c #27302D",
"N  c #2A312E",
"B  c #2D3422",
"V  c #3C3521",
"C  c #3D3B21",
"Z  c #3A352C",
"A  c #363522",
"S  c #2A3330",
"D  c #40241F",
"F  c #412C1F",
"G  c #413E1E",
"H  c #432621",
"J  c #452A22",
"K  c #4C2B25",
"L  c #482722",
"P  c #512D27",
"I  c #542F28",
"U  c #433523",
"Y  c #4B3323",
"T  c #433D23",
"R  c #4A3A26",
"E  c #42362A",
"W  c #42392C",
"Q  c #513326",
"!  c #513A27",
"~  c #563229",
"^  c #5C332C",
"/  c #543D29",
"(  c #5D3B2D",
")  c #493D31",
"_  c #62362F",
"`  c #62392E",
"'  c #643730",
"]  c #653931",
"[  c #2B4B07",
"{  c #27420A",
"}  c #2C430C",
"|  c #2D4A0A",
" . c #284708",
".. c #31450E",
"X. c #334B0C",
"o. c #3A4D0D",
"O. c #364B0B",
"+. c #35520A",
"@. c #3B540B",
"#. c #3E5A0B",
"$. c #375506",
"%. c #2E4211",
"&. c #344312",
"*. c #3B4415",
"=. c #354911",
"-. c #3C4B13",
";. c #364019",
":. c #3D421A",
">. c #3E491A",
",. c #3C5211",
"<. c #2F5209",
"1. c #43540D",
"2. c #42590B",
"3. c #4C5D0C",
"4. c #48560E",
"5. c #424C15",
"6. c #42441C",
"7. c #454A1A",
"8. c #4A4C1C",
"9. c #444A17",
"0. c #435312",
"q. c #495613",
"w. c #4C5B13",
"e. c #485516",
"r. c #505816",
"t. c #49570D",
"y. c #47620B",
"u. c #54650C",
"i. c #5A690D",
"p. c #5A6612",
"a. c #4D6111",
"s. c #606B14",
"d. c #444222",
"f. c #494424",
"g. c #4A4822",
"h. c #484028",
"j. c #55412C",
"k. c #5C432D",
"l. c #4B4136",
"z. c #584635",
"x. c #61442E",
"c. c #6D4534",
"v. c #654C33",
"b. c #6B4D34",
"n. c #634834",
"m. c #714735",
"M. c #734C36",
"N. c #754E39",
"B. c #6C5135",
"V. c #735337",
"C. c #765639",
"Z. c #7B523A",
"A. c #7C5A3C",
"S. c #755937",
"D. c #796039",
"F. c #3B4549",
"G. c #454949",
"H. c #58534D",
"J. c #5A5A56",
"K. c #485055",
"L. c #695846",
"P. c #675D52",
"I. c #785F45",
"U. c #7A634A",
"Y. c #68645D",
"T. c #746656",
"R. c #5D6366",
"E. c #5F6B72",
"W. c #646969",
"Q. c #786E61",
"!. c #79746A",
"~. c #6B757B",
"^. c #677278",
"/. c #737878",
"(. c #825C3E",
"). c #84573E",
"_. c #83613F",
"`. c #895F41",
"'. c #826346",
"]. c #8A6541",
"[. c #8E6944",
"{. c #86684B",
"}. c #936B45",
"|. c #926745",
" X c #9A7249",
".X c #8F7457",
"XX c #A2754C",
"oX c #A3784C",
"OX c #AA7D51",
"+X c #8B7964",
"@X c #897E6E",
"#X c #7E807D",
"$X c #B48454",
"%X c #B98957",
"&X c #BD8B59",
"*X c #B88756",
"=X c #AC865F",
"-X c #96826C",
";X c #C9935E",
":X c #C6925D",
">X c #C08C5A",
",X c #CD9760",
"<X c #D59D64",
"1X c #D89F65",
"2X c #6C7982",
"3X c #788389",
"4X c #7F8E96",
"5X c #888B88",
"6X c #93938E",
"7X c #869399",
"8X c #909B9E",
"9X c #8D9CA4",
"0X c #909CA1",
"qX c #8FA1AB",
"wX c #93A1A9",
"eX c #97A9B4",
"rX c #9CB0BC",
/* pixels */
"T T R T C C j :.e.@.3.t...4 d i s p } p ;. .<...| ..| 2 4 &.6.f.f.f.f.T f p s f :.:.f f h j h h d ;.-.&.d p p h &.:.:.j :.j j T ",
"T C V C C C :.:.,.0.r.q.} 2 5 7 u s p %.| | | | ,.2.| 3 p :.d.h.T j G V t s i i :.:.j a p ;.h j j :.>.:.:.-.=.j :.6.6.j j C T h.",
"T T d.C C C :.:.,.w.w.&.u %.u 7 a f h p } +.+.$.+.| ..=.=.h T T V i h j f f d -.0.7.:.h %.&.j j h A C h h =.=.p ;.*.;.C :.C h.h.",
"T f.h.C C 6.:.h ,.r.e.s i &.p 7 p d.:.;.| +.+.+. . .@.@.X.%.j T g a h T j 6.j -.5.*.j h &.%.*.6.h h :.h p =.=.=.&.&.;.:.d.d.d.T ",
"T h.g.h.h.6.*.h >.:.S.A.9.p u 7 p :.6.&.@.2.0.=.| +.$.+.@.| 4 j A a T T U T *.*.*.:.:.7.&.=.-.-.&.d p :.:.&.=.=.&.h ;.C d.C C C ",
"C C h.f.d.d.6.*.h h v.b.d u a i } d 6.e.@.,.,.} 4 { %.X.+.X.} i C d.R d.T T :.*.*.;.6.8.;.&.-.>.&.d d h j ;.;.;.j h j C d.h.:.j ",
"f f j :.g.d.6.j h a n n 8 a a u %.:.d.7.=.} %...2 : 4 | X.=.| 4 h :.j j d.f.h.6.:.:.6.8.7.*.;.;.d ;.h h A :.h A f h f :.d.f.j f ",
"j A :.:.d.h.T j j 0 8 9 8 a a u d *.6.8.=.4 %.=.3 : 3 } ..@.} 4 &.h a a d.h.f.g.f.6.6.g.d.>.d.;.*.h f j :.;.h f C j :.6.6.j ;.;.",
"9.C f.7.G d.f.T n z 9 F w x 8 @ < < w 8 0 0 < < > , < < < > > < 7 8 8 0 0 8 0 n 0 8 0 0 0 0 0 < 0 < , 8 0 0 8 0 h :.:.6.j f a ;.",
"-.:.f.d.G G d.j z @ 9 F e 8 , o X X X o z , , z z z z z z z z z l l l , z , z z z + l z , z z l + , + z l + z z 0 j :.j d 3 u u ",
"@.-.j f.6.6.T n @ . e ! H m n z o X o + z c z c z c c z z v z z c z z z c z z z z z z c z c c z z z z c z z z c c :.j h h 4 } 3 ",
"u.o.h :.d.6.n @ . & Y x.K K m % + O o O z v c v v z c c z c c c v c c v v c c v c c v c c c c c v v c c c c c v v B p h f d &.=.",
"#.$.} j 6.B +   # D ( C.! ~ K * x + X X + v c c v z c v z c c z z c z c v c z v c c c v z z c z z c z c c z x c c z s a a p d ..",
"[ #.X.=.B x @ . = ~ V.].x.^ ~ H 9 l O o o z v c c z z v v z v v c c v z c c c c v c c c c c c c c v v z c c x c z c v B 7 4 4 } ",
"+.y.#.X.z @ . $ K _ A.XXc.~ ^ I D % z O o + z v v c c c v c c v c c v c c v v c v v c v v z v v c c v z c v c c v c c c 0 %.} [ ",
"@.y.#.s #   # F ^ M.XX&X XN.' ^ ~ r x , o o , c v M v c v v c v v c c v c c v c v v c v M v c M M c v M c v v c v c c M M %.{ [ ",
"p -.a + . . e ( C.}.}.}.$X$X|.c.^ K * + + o O x v v v v v z v v c v c c c c v c c v c c v v c c v z c v c c v n v c c v z 0 u %.",
"s B , . . $ ! V.C.c.( ` Z. X$XOX).~ D % x + X O c v M S S M M S v v S S v S S S M S S M M S M v N N M M S v v S S M v M M v z u ",
"n + @ . e ! x.x.( I ^ _ ' c.).oXOX|.c.H & + O X z c M M M v v v v c v v c v v c c v M c c N v c v M c c v v c v v M z c v v z < ",
"z X $ e U Q ! ~ ^ ' ] ] ] ] _ ] ).XXoX(.Q 8 , O O z M v M M M v v M S v v S S v v S N v v M N v v M M v v N N b v M S M c M S M ",
"a $ y y J K ~ ' ] ] ] ] ] ] ' ~ ~ m.|.XX}.E @ O X & v b b N N b b b b b b b N b v N b b b N N b v N N b b b N b v b b b v N S N ",
"k 9 r L I K K ~ ] ] ] ] ' ^ ^ ^ ^ ^ ' m.`.Y & & # & % % % % % % % % % % % % % % % % % % % % % % % 9 % % % % % % % 9 % % 9 J m A ",
"i $ r P H r H I ' ] ' ] ' _ _ _ ^ ^ ~ ^ ^ D $ $ $ $ $ * * * e r * = = = = = = = = = r r = r r e = = = = = = = r = r r r L ^ I T ",
"g H I K r r P ' ' ' _ ] ] ] ' ] ^ L r K ^ r $ $ $ * * H L K L L K L K I P P I P I P I I P P P P P P I P P P K H H K I I ' ' I V ",
"G P ^ ^ I P ~ _ ^ ^ _ _ ] ^ K H H = * = L = $ $ $ $ D I ^ _ _ _ _ _ ' ' ' ' ] ] ' ' ' ' ' ' ' ' ' ] ] ] ] ' ~ H H I _ ' ] _ P U ",
"G K ^ _ _ ^ _ ^ ^ _ _ ] ] ^ H = = = = H = * $ $ $ $ L ^ ] ] ] ] ' ' ] ] ] ] ' ' ' ' ' ' _ _ _ ' ] ] ] ] _ I H H P ^ ] ] _ ^ K V ",
"G I _ _ ` ` ] ] ] ` ] ] ] ' ^ ~ ~ ~ ~ ~ I = $ $ $ * L _ ] ] ] ] ' ' ] ] ] ] ] M.m.c.c.c.c.M.c.c.` ] ] ] ^ L H L _ ] ] ' _ ~ L g ",
"F K ^ c.`._.'.`.(.).A.).A.A.).A.).`.M.^ ^ H $ $ $ * L _ ] ] ] ] ] ] ] ] ] ^ z.v.v.b.B.B.v.v.b.k.Q ^ ] ] ] ^ ^ ^ ' ' ] ] ] _ K T ",
"T Q ^ Z.XX(.A.A.A.S.C.A.C.S.A.V.B.(.A.K P D $ $ $ = K _ ] ] ] ] ] _ ] ] ] / Y Z Z Z z.k.Z Z Z U r Q ' ] ] ] ] ] ] ] ] ] ] ' P R ",
"T ~ ' Z.].! / / R E l.n.l.) j.k.k.v.C.U H y $ $ $ = K _ ] ] ] ] _ _ ] ] ' ] v.G.K.G.L.L.G.G.G.k.F K ] ] ' ] ] ] ] ] ] ] ] _ Q R ",
"F P ` Z.].k.S.I.J.W.!..XW.J.J.U. X[.A.J H r $ $ $ = K ' ] ] ] ^ _ _ ] ] _ m.'.!.2X2XT.T.~.2X/.'.Q P ' ] ] ] ] ] ] ] ] ] ] ' K T ",
"T P _ Z.].v.U./.9XeX6X@X3X~.W.T.OXoXA.J H = $ $ * = I ' ] ] ' ' _ ' ] ` _ m.{.Q././.T.T./.2X!.'.Q P ] ] ] ] ] ] ] ] ] ] ] ' K U ",
"U I ' Z.].k.T.7XeXeX5X-X7X4X~.W..XoXA.F L r $ $ * r ~ ] ] ] ] ] ] ] ] ] _ m.].!././.T.L.W.W.T.'.Q K ` ] ] ] ] ] ] ] ] ] ] ] ^ U ",
"R ~ ' Z.].j.Y.3X7XwX5X+X8XqX4X/..X XA.J L r $ $ * r ^ _ ' ] ] ] ] ] ] ] _ m.[.5X9X7XQ.P.^.E.Y.'.! K ] ] ] ] ] ] ] ] ] ] ] ] I T ",
"R ~ ] Z.[.j.H.^.3X7X#XQ.8XeXqX4X+XoX).L L r $ $ $ D ^ _ ] ] ] ] ] ] ] ] ' m.{.@X3X^.H.z.G.F.G.A.Q P ] ] ] ] ] ] ] ] ] ] ] ' K U ",
"E I ( V.].j.H.R.^.3X/.Y.8XrXeXwX-XoX(.L L r $ $ * D _ ] ] ' ] ] ] ] ] ] _ m.'.P.K.G.l.W v z E A.Q P ] ] ] ] ] ] ] ] ] ] ] ' P j ",
"V L ^ N.}.k.H.R.R.E.J.J.3XwXwX8X-XOX_.F L = $ $ $ H ^ ] ] ] ] ] ] ] ] ] _ v.I.z.l.) j.( E E / C.k.K ^ _ ] ] ] ] ] ] ] ' ] ' K f ",
"t K ~ N._.k.B.T.T.U.U.U..X-X-X-X=X$X_.F D r $ $ $ L _ ] ] ] ] ] ] ] ] ] ( ( x.x.k.( k.k.k.( k.x./ D K ] ] ] ] ] ] ] ] ] ] ] K t ",
"9 H P m.[.k._.$X$X$X*X%X&X&X&X$X%X%X_.F r = $ $ * L _ ] ] ] _ _ ] ] ' ] ^ K L H J L J L K H L L K K I ' ] ] ] ] ] ] ] ] ] ' K a ",
"w r K b._.k.oX1X1X1X1X1X1X1X1X,X>X%X|.K * * $ $ = K _ ] ] ] _ _ ' ' ] ] ' ! L L ~ ' ] ' ' ] ] ] ` ` _ ] ] ] ] ] ] ] ] ' ] ' I a ",
"w y D m._.x. X<X<X<X<X<X<X<X1X,X>X%X}.F $ $ $ $ = P _ ] ' _ _ ^ ^ ' ' ' ] ~ D D I ] ] ] ] ] ] ] ] ] ] ] ] ] ] ] ] ] ] ] ] ' L q ",
"i D F c.|.x.}.:X;X:X;X;X;X;X;X>X%X%X}.K * * $ $ = P _ _ _ ^ ~ ^ ^ ' ] ' ] _ ^ ^ _ ' ] ] ] ] ] ] ] ] ] ] ] ] ] ] ] ] ] ] ] ^ L < ",
"6 D K c._.k._.$X$X$X$X$X$X$X$X$X$X%X}.F r * $ $ = ~ ] ] _ ^ ^ _ _ ] ] ' ] ] ] ] ] ] ] ] ] ] ] ] ] ] ] ] ] ] ] ] ] ] ] ] _ ^ L u ",
"i D K c._.k.S. X X X X X X X X_.OX%X}.F = * $ $ r ~ ] ] _ ] ] _ ' ] ' ] ] ] ] ] ] ' ] ] ] ] ] ] ] ] ] ] ] ] ] ] ] ] ] ] ` _ Y j ",
"6 D F c._.k.B._._._._._._._._.(.XX%X}.U = = $ $ L _ ] ] ] ] ] ] ] ] ] ] ] ] ] ] ] ] ] ] ] ] ] ] ] ] ] ] ] ] ] ] ] ] ] ] ] ] P g ",
"6 D D c.}.k.j.B.B.B.B.B.b.B.b.B. X%X}.J r * $ $ F ^ _ _ _ _ ] _ ' ' ' ' ' ' ' _ ' ' _ _ ] _ ] _ ] ] ] ] _ _ _ _ ] _ _ _ ' _ P j ",
"k * e k._.k.! j.j.j.j.j.j.j.j.k.|.%X}.J = = $ $ K ~ ~ ^ ^ P Q Q Q Q Q Q ~ I K K I P Q P ~ Q Q Q P P ~ Q I ~ Q ^ I Q P Q Q Q F 9.",
"i * r c._./ F G Y Y F Q F G F Y [.*X}.L = G 6.6.T G 6.6.6.6 6 ..5.-.d i d *.*.o.o.6 5 4 o.5...6 *.9.-.k G U G G G 6.G G G g j 6.",
"t e D k.S.R y y y t t y t t t y A.oX_.F e 6.9.k 6.G T 6.&.4 ..*.d u i i d -.-.1.O.{ 2 3 $.@.| | O.-.-.&.h C C f h C j f f t A a ",
"f t d &.-.&.4 4 4 7 w k 6 4 2 u k 7.-.k k 5.*.*.:.6.j j &.4 f &...p 4 4 *.&...4 4 { 2 2 | =.%.4 i &.&.d h h f h f A C C j f f f ",
"f f f i 4 4 d 6 ..u 1 i =.4 5 - 2 4 4 &.&.o.9.*.:.7.6.d } 2 u 9.q.q.2.X.4 5 5 4 5 5 u 3 { 3 p p &.,.d 3 ;.;.p ;.&.f A h.T j f j ",
"g k j k i 6 *.9.-.d u i ....3 5 5 2 5 6 ..O.*.j 6.8.6.} { } p &.=.0.#.X.5 5 4 i i ..u p ..%.3 ;.*.-.=.} 3 u %.&.i f V T d.f.h C ",
"6.9.6.G 9.o.&.-.5.&.&.d } 4 4 }  .5 5 4 5 5 p :.6.6.6.=.O.2.i.p.1.X.[ } ..} ..4 =.,.p p &.=.u p =.3 %.%.3 u i %.f C C C d.g.h A ",
"6.7.G G 8.9.G k d &.*...} 4 =.| { 3 } { 2 - 7 h d.6.6.-.#.2.p.s.0.O.{ X.@.$.....,.5.=.p d %.p &.=.} 3 p 3 2 2 p f j 6.C d.d.j h ",
"6.6.j G 6.9.9.j h &.&.d } ..=...3 : } } 2 ; 7 j T C j ,.#.@.0.0.2.1...{ 2.2.+.+.0.0.,.} =.+.| } 3 | ..| } 3 { p :.j 6.f.f.8.j h ",
"6.6.7.G 6.5.5.k j d &.&.} } &.=. .2 p } > ; s :.d.T j O.+.$.X.4.3.1.| 4 O.2.@.| ..=.X.X.| | { 3 4 %.} } | X.o.-.9.6.8.7.g.f.T j ",
"9.6.9.9.6.7.*.j j d ..p %.%.p &.%.3 =.%.3 > f d.T h } ..1.0.o.4.u.@.1.@.O.1.O.2 2 p 3 } %.3 3 u p p { } } | -.e.*.6.8.8.6.f.h.T ",
"6.6.*.*.:.*.&.6.j d ..d %.&.p *.p 4 { %.u 7 j 6.i 2 ..+.o.3.r.r.i.u.u.u.@.2.O.5 2 i %.| 3 3 p u u | | | | X.$.e.9.6.8.8.9.6.f.T ",
"6.7.5.*.:.5.*.*.j 6.=.4 3 ..d &.p %.| { 3 i 6.=.3 3 O...X.o.o.0.i.i.i.u.1.@.o...p i &.} 2 3 2 u ..$. .%.=.| +.-.-.7.9.9.5.5.7.G ",
"7.8.9.=.6.-.5.=.h 6.O.{ 3 } &.&.%.%.<.| &.h :.-.....*.o.#.X...2.3.t.u.3.@.#.O...} d d | 3 2 - p ,.} { p } | +.=.q.0.0.4.o.9.8.6.",
":.6.:.:.6.:.,...*.-.X.{ 3 3 d ..=.,.<.| =.;.h =.o.....@.2.@.O.1.4.q.3.4.1.t.#.O.X.d &.d : - > | | { | ..3 X.+.@.a.-.5.w.0.7.6.G ",
"T j :.*.6.6.*.d *...|  .{ 4 d &.,.,.,.| =.7.5.,.X.}  .O.1.@.[ O.5.0.5.@.$.$.@.@.-.*.k d u > 2 } { { { | | @.@.@.@.O.5.r.8.6.T T ",
"T T h.6.G 6.:.;.&.p ..[ } &.*...=.=.+.=.;.e.@.$.$.O.<.$.+.....6 k G j 0.O.6 ..&.d d s h s 7 3 3 } | } } | @...} p *.8.8.7.G 6.T ",
"j T f.f.j 6.6.6.:.=.} } } &.&...4 4 =.&.=.+.$.[ [ <. .6 X.} ..j G g g *.o.u u h h a a h h h u 4 | | } 3 | $.| 2 4 &.k 6.G G G f."
};
