/* XPM */
static char *_3a64b85a70b4bd790cc18d0b8261ed5esFF8sZDOxfD5hFW[] = {
/* columns rows colors chars-per-pixel */
"128 128 23 1 ",
"  c None",
". c black",
"X c #04080D",
"o c #0B1219",
"O c #3F0000",
"+ c #191E23",
"@ c #1D2226",
"# c #540000",
"$ c #7F0000",
"% c #5B3409",
"& c #3F464D",
"* c #860000",
"= c #A00A00",
"- c #B11501",
"; c #BD1E02",
": c #FF3117",
"> c #82601A",
", c #E94608",
"< c #FF7E27",
"1 c #A98740",
"2 c #CCAF72",
"3 c #EED297",
"4 c white",
/* pixels */
"                                                                                                                                ",
"                                                                                                                                ",
"                                                                                                                                ",
"                                                                                                                                ",
"                                                                                                                                ",
"                                                                                                                                ",
"                                                                                                                                ",
"                                                                                                                                ",
"                                                                                                                                ",
"                                                                                                                                ",
"                                                                                                                                ",
"                                                                                                                                ",
"                                                                                                                                ",
"                                                                                                                                ",
"                                                                                                                                ",
"                                                                                                                                ",
"                                                                                                                                ",
"                                                                                                                                ",
"                                                                                                                                ",
"                                                                                                                                ",
"                                                                                                                                ",
"                                                                                                                                ",
"                                                                                                                                ",
"                                                                                                                                ",
"                                                                                                                                ",
"                                                                                                                                ",
"                                                                                                                                ",
"                                                                                                                                ",
"                                                                                                                                ",
"                                                                                                                                ",
"                                                                                                                                ",
"                                                                                                                                ",
"                                                                                                                                ",
"                                                                                                                                ",
"                                                                                                                                ",
"                                                                                                                                ",
"                                                                                                                                ",
"                                                                                                                                ",
"                                                                                                                                ",
"                                                                                                                                ",
"                                                                                                                                ",
"                                                                                                                                ",
"                                                                                                                                ",
"                                                                                                                                ",
"                                                                                                                                ",
"                                                                                                                                ",
"                                                                                                                                ",
"                                                                                                                                ",
"                                                                                                                                ",
"                                                                                                                                ",
"                                                                                                                                ",
"                                                                                                                                ",
"                                                                                                                                ",
"                                                                                                                                ",
"                                         ..                                                                                     ",
"                                          ....                                                                                  ",
"                                           .++.   .                                                                             ",
"                                   .......  .Xo.. ..                                                                            ",
"                                ...+++++++...XX&&. ..                                                                           ",
"                              ..+oooooooo++++.XX+&..+.                                                                          ",
"                             .+oooXXXXXXXoo+&&&Xo++.o.                                                                          ",
"                            .oXXX......XXXXo+++++o+.Xo.                                                                         ",
"                          ..XX...+++++++&&&&&&+++++++++.                                                                        ",
"                         .....++++++++++++++++&&+++++++.                                                                        ",
"                             .++++oooooo++++++++++OOOOO.                                                                        ",
"                            .+++ooXXXXXoo+++&&&++O*-----OO                                                                      ",
"                           .++ooXXXXo+++++&&&+++O**--:-:-:O                                                                     ",
"                          .++ooXX.X++++oo&&++++O**-:-:-:-:-O                                                                    ",
"                         .++ooXX.+++ooo+&&+++&+O*--:-:-:--:-O                                                                   ",
"                        .++ooXX.+++ooo+&&+++&+O**-:---O:--O--O                                                                  ",
"                        .+ooXX.+++ooX++&+o+&+oO*----*-O:--O--O                                                                  ",
"                       .+ooXX.+++ooX++++o+&+oO**-*--O-O*:-O*-O                                                                  ",
"                       .+oX..+++ooXX+++o+&+ooO*--*-*O-O*---O--O                                                                 ",
"                      .+oX. .++ooXX+++oo+&ooO**--**O*-O*---O*-O                                                                 ",
"                      .oX. .++ooXXX++oo+&+ooO**-*O*O*-O**--O**O                                                                 ",
"                     .+X.  .++oXXX++ooX++ooO**--O**OO*O****OO*O                                                                 ",
"                     ...   .+ooXX.++oX+++ooO**--O*O>>OOO*OO% OO                                                                 ",
"                     .    .++oXX.++ooX+++oXO*---OO.1.111O11.$$                                                                  ",
"                    .     .+ooXX.++oX+++ooO**--O111...2222..<$                                                                  ",
"                          .+ooX.++ooX+++oXO**--O1114..32224.<$                                                                  ",
"                          .+oXX.++oXX++ooXO**--O121...3222..<$                                                                  ",
"                          .ooX.++ooXX++ooXO**--O121.@.2222.@<$                                                                  ",
"                          .oXX.++ooXX+oooXO**-O1121.@.2223.@<$                                                                  ",
"                          .oX..++oXX.+ooXXO**-O1122.@.2223.@<$                                                                  ",
"                          .X. .+ooX.+oooXXO**-O12222.222233.$                                                                   ",
"                         .oX. .+oXX.+ooXXXO**-O122222222223$                                                                    ",
"                         .X.  .ooXX.+ooXXXO**-O12222222223%  .                                                                  ",
"                         ..   .oXX..ooXXXXO**-O1222222%223...                                                                   ",
"                        ..    .oX.=.ooXXXXO**-O22222221%%%                                                                      ",
"                             .+X.$;.oXXXXXO**-O1222222211%                                                                      ",
"                             ... $=.XXXX...O*-O112222223%                                                                       ",
"                            ..  $=.X....XXXO*-O1111111%%                                                                        ",
"                                $=..;;,,..%O**O>>>>%%%+.                                                                        ",
"                               $=$=;;,,<$;.O**O%%%%>%1%                                                                         ",
"                               $$=;;;,<$;;,,O*OXX+%%122%                                                                        ",
"                               $$=;;,,<$=;,,O*O....>122%                                                                        ",
"                               $$=;,%%%%=;;,,O-O,<$>122%                                                                        ",
"                               .$=;%1222%=;;,,OO,;$>112%                                                                        ",
"                               .$=%>12222%=;;,OO;;.>>1>%                                                                        ",
"                               .X%>1222212%=;;;O;..>>>%                                                                         ",
"                               .X%>1222212%=;=...&.O%%                                                                          ",
"                              O#.%>11222%1%...+&&+.-O                                                                           ",
"                              O##.%11222%%ooooo++.--..                                                                          ",
"                              ....%>1122%+Xoooo..O-.&&..                                                                        ",
"                             .o++&&%%>11%......--O.o++&o.                                                                       ",
"                            .Xooo++&&%%%*--------.++++oo.                                                                       ",
"                            .XXXoo+++&.#********.+++ooo.                                                                        ",
"                             .XXXoo+++&.##****..oooooX.                                                                         ",
"                              .XXXooo++&.###O.oooooX..                                                                          ",
"                               ..XXXooooo.OOXXXXXX..                                                                            ",
"                                 ..XXXXXX.  ......                                                                              ",
"                                   ......                                                                                       ",
"                                                                                                                                ",
"                                                                                                                                ",
"                                                                                                                                ",
"                                                                                                                                ",
"                                                                                                                                ",
"                                                                                                                                ",
"                                                                                                                                ",
"                                                                                                                                ",
"                                                                                                                                ",
"                                                                                                                                ",
"                                                                                                                                ",
"                                                                                                                                ",
"                                                                                                                                ",
"                                                                                                                                ",
"                                                                                                                                ",
"                                                                                                                                "
};
