/* XPM */
static char *result[] = {
/* columns rows colors chars-per-pixel */
"64 64 228 2 ",
"   c #020405",
".  c #090806",
"X  c #030609",
"o  c #05090D",
"O  c #0A0C0B",
"+  c #1B0302",
"@  c #150908",
"#  c #0E1404",
"$  c #0E1802",
"%  c #0E120D",
"&  c #111506",
"*  c #1B1307",
"=  c #121A05",
"-  c #13140B",
";  c #151A0B",
":  c #1B1C0D",
">  c #070C12",
",  c #090E13",
"<  c #100E14",
"1  c #0D1115",
"2  c #0D131A",
"3  c #111415",
"4  c #1C1B12",
"5  c #11161B",
"6  c #14191E",
"7  c #1A1A1B",
"8  c #230707",
"9  c #2E0502",
"0  c #390804",
"q  c #34090B",
"w  c #241808",
"e  c #2D1D0A",
"r  c #391708",
"t  c #230F13",
"y  c #2B0F11",
"u  c #241717",
"i  c #2A1214",
"p  c #351C19",
"a  c #1C230A",
"s  c #1B2909",
"d  c #1E2A0F",
"f  c #25290D",
"g  c #33220C",
"h  c #37290A",
"j  c #27370A",
"k  c #25350C",
"l  c #263B0B",
"z  c #2A3D0D",
"x  c #35390C",
"c  c #282717",
"v  c #242C13",
"b  c #2A2B14",
"n  c #392B13",
"m  c #263113",
"M  c #2B3514",
"N  c #2C3B12",
"B  c #2D3319",
"V  c #2E3919",
"C  c #313615",
"Z  c #323D15",
"A  c #34351B",
"S  c #39371B",
"D  c #353B1A",
"F  c #3B3D1C",
"G  c #161C22",
"H  c #191D22",
"J  c #1C2126",
"K  c #1E242A",
"L  c #21262C",
"P  c #24292E",
"I  c #29292B",
"U  c #3B3621",
"Y  c #3E3B21",
"T  c #262C32",
"R  c #282E34",
"E  c #2B3136",
"W  c #2D3339",
"Q  c #303835",
"!  c #4C0302",
"~  c #470902",
"^  c #530301",
"/  c #5A0100",
"(  c #550C03",
")  c #5C0C02",
"_  c #461505",
"`  c #581405",
"'  c #640300",
"]  c #6B0200",
"[  c #620B01",
"{  c #690B03",
"}  c #740100",
"|  c #7C0100",
" . c #730A00",
".. c #7C0A00",
"X. c #691905",
"o. c #761705",
"O. c #492A0A",
"+. c #493A0C",
"@. c #57350D",
"#. c #442914",
"$. c #502913",
"%. c #463714",
"&. c #403E1F",
"*. c #543613",
"=. c #6B2C0C",
"-. c #7B2408",
";. c #62370E",
":. c #773B0C",
">. c #663614",
",. c #763C18",
"<. c #433D23",
"1. c #463825",
"2. c #2B4907",
"3. c #2C440C",
"4. c #2E4A0A",
"5. c #31450E",
"6. c #334C0C",
"7. c #394D0D",
"8. c #2F5107",
"9. c #34510B",
"0. c #375608",
"q. c #3A530C",
"w. c #2E4110",
"e. c #344313",
"r. c #3A4415",
"t. c #364911",
"y. c #3C4A14",
"u. c #3D421A",
"i. c #3B4718",
"p. c #3C5211",
"a. c #424C0F",
"s. c #445B0B",
"d. c #474617",
"f. c #424B15",
"g. c #42441C",
"h. c #44491A",
"j. c #4A4C1C",
"k. c #564319",
"l. c #445314",
"z. c #495414",
"x. c #495914",
"c. c #4B5B1A",
"v. c #535C17",
"b. c #63430E",
"n. c #68440F",
"m. c #6B4212",
"M. c #6A4818",
"N. c #764A17",
"B. c #77531B",
"V. c #516217",
"C. c #454222",
"Z. c #494324",
"A. c #494820",
"S. c #6B5125",
"D. c #795A26",
"F. c #7A6333",
"G. c #363C43",
"H. c #6F6653",
"J. c #6E6C67",
"K. c #830000",
"L. c #8D0400",
"P. c #830B00",
"I. c #8C0C00",
"U. c #910500",
"Y. c #930B00",
"T. c #9C0D00",
"R. c #881704",
"E. c #941201",
"W. c #9D1201",
"Q. c #981C06",
"!. c #A20E00",
"~. c #A41201",
"^. c #AB1200",
"/. c #A51C04",
"(. c #B21501",
"). c #B51A06",
"_. c #BC1B03",
"`. c #8A2308",
"'. c #962306",
"]. c #8D2E14",
"[. c #A72A08",
"{. c #BA2804",
"}. c #BC3205",
"|. c #B23911",
" X c #C51B08",
".X c #CC1F09",
"XX c #C72904",
"oX c #D6250B",
"OX c #C63906",
"+X c #D93805",
"@X c #E2270F",
"#X c #815D1D",
"$X c #BA4716",
"%X c #875C29",
"&X c #8B6626",
"*X c #886737",
"=X c #906F33",
"-X c #997730",
";X c #997838",
":X c #A27C39",
">X c #D34A10",
",X c #CA5A1B",
"<X c #E6480A",
"1X c #DD611E",
"2X c #8F774A",
"3X c #A3823B",
"4X c #A9873F",
"5X c #988355",
"6X c #A88745",
"7X c #AB8943",
"8X c #B08F4A",
"9X c #B2914C",
"0X c #A88A56",
"qX c #B69756",
"wX c #BB9B5A",
"eX c #AE9561",
"rX c #B99B62",
"tX c #BEA268",
"yX c #B3A17C",
"uX c #C1A263",
"iX c #C7A96B",
"pX c #C7AA6D",
"aX c #C7AC73",
"sX c #CCAF72",
"dX c #CDB073",
"fX c #D3B679",
"gX c #D9BE84",
"hX c #DEC185",
/* pixels */
"Y <.<.1.<.Y Y F h.p.s.s.a.3.z Z N N w.w.V w.2.6.4.5.4.l l e.u.g.<.Z.Z.<.S B N V D u.D S A D Z D Z r.i.e.e.w.N Z e.u.u.u.u.r.Y Y ",
"1.Y <.Y Y Y F u.u.p.s.v.a.z k k m m N N w.4.8.4.6.3.k z l e.F b 4 w : : * - ; m r.i.F D V D D F F u.u.u.D i.t.u.F u.C.F Y Y Y <.",
"U 1.<.<.Y Y U u.i.p.x.x.N N N m v B F Z w.4.9.l s s k l s a 4 - , , O , O o . ; f x h.S Z e.F F D D u.F D i.y.e.r.u.u.F F <.C.Z.",
"1.<.Z.C.Y Y u.u.i.l.c.f.N N e.M m Z Y F w.4.l ;   a l s % 7 H L J G 5 5 2 1 > X   ; f M e.3.r.u.F D F F V w.t.t.e.e.e.D &.C.C.Y ",
"Y <.Z.Z.Z.C.g.u.u.i.u.D N Z N m m e.u.r.7.l - < . $ s % J R E E G , o X X X X     . * b e.t.y.y.e.e.V r.r.e.w.t.e.e.V i.C.<.Y Y ",
"F Y Y C.Z.C.g.u.u.D C M N k M M M N u.h.x ; 3 X     % 6 G 2 , , > O , > , 1 O .   : b Z Z e.i.i.i.e.V Z U F e.u.D D Y U C.C.C.F ",
"F U A F C.C.C.u.D D C M M V B B N e.F A ; 2 < X % 6 6 G 6 1 X   . H W G.W W E H 6 % # O : Z Z F Z e.D F D u.V D U D U u.C.Z.u.U ",
"F F U i.g.Z.Z.<.F F C V A B B B N Z C * 3 7 6 6 6 J J G G 6 5 5 L R L K J G G H G 6 5 5 3 - * M e.D S D Y u.u.V U u.F u.u.u.F e.",
"f.g.F g.g.&.Z.Z.Y Y A A A A A b b n _ 0 q q q q i H H H H H G G K H 5 2 , > > > 2 2 2 G G 2 2 ; N F D A U u.u.D D u.u.&.u.D V Z ",
"p.y.g.Z.A.&.&.<.F F F A C A U n p ` ..P.I./.P.] ! y i H H H G G 5 2 2 2 > > o o > > > , 2 G G 3 : C D D V i.U F U u.u.u.Z V M m ",
"7.7.r.C.A.g.&.&.<.F Y S B p r o.I.I.(.(.(..X X!.} ' ! i H H H G 6 5 5 G K K 2 o   X X o > , 5 2 , : V D Z u.U D U u.u.u.D N w.l ",
"s.s.y.D u.C.h.F F F F A p ` R.)..X). X). X_..X XT.K.| ^ i H H H G 5 G H R R T G 6 , o X X o , , 3 3 4 M V V V U u.i.V V A Z w.t.",
"q.s.6.N F g.d.u.F F U n ) E.oXoX~.).@X XoX.X)..X).L.K.| ! i H H 6 2 2 2 2 G E G.W R 5 o . o X o , 2 , : V D Y u.i.e.w.e.B M N e.",
"8.9.0.6.t.h.h.F u.<.#.` I.~..X XP.Q.@X). X@X.X~.^.!.L.K.} ~ H H G G G 6 , , 2 2 G R T G 2 . . X . , o ; B D U U i.p.p.V B N 3.3.",
"0.0.s.0.q.f.u.u.F #.[ E.L.] Y... .).oX).).@X XP...~.!.L.| ! i G H G G G 6 2 > > 1 2 G G G G 5 .   X > . ; B U A u.y.y.e.m w.3.2.",
"4.0.s.s.y.h.u.u.%.` E.W.' P.I.' } Y...!.U.(.@X~.] ..~.T.K.] ~ u H G 6 G K R G 2 > o , 1 2 G G 5   X X X 1 B B V V e.N N e.w.3.3.",
"l e.p.l.y.C.u.u.O.) W.I./ I. . .T.I.' T.U.!._.(.L.' ..!.K.K.! u G G G 2 G L G.H > o o o > G G G . ; - X - C A B B V N M V e.M w.",
"v Z y.h.h.u.F u.n ) E.] ..I.' ..^.I.[ T.L. .T.(.T.] ' T.L.| ^ u H G G 2 , 2 H W R 5 X X o , 2 2 1 - : - : A A D D V Z V N m m m ",
"Z F u.g.C.F u.u.n / ../ Y.Y./ ..(.I.[ T.K./ I.(.T.| ] ..Y.K.] 0 H P K G 2 , , K R P 5   X X > 2 2 . : b u v Y Y D V B B V m m B ",
"h.u.u.u.u.u.u.h.n ! ' ' L.} ] E.^.} ' W.K./ ..!.Y.K.] / T.L.| ^ i P G.T H 2 > > G L L 5 o X o > 1 o - c c c Y Y Y F C B e.V B D ",
"d.h.u.u.u.u.h.f.x _ ! | K./ ..!.Y.| ' P...' ] | K.K.} ' T.U.K.' q H P W T K 2 o o 2 H T 5 . X X , 2 . ; S Y <.1.<.C.U U u.u.V Y ",
"r.F F F u.i.i.t.t.h ! ] ] ^ / | K.K.} ^ ] ] ^ ' } } ]  .~.K.K.K./ i H P G.G.L 2 o > 2 6 G 5 o X o > o - B Y <.<.C.Z.C.<.F F C.C.",
"V Z A F h.f.f.t.5.x _ ~ ~ ( ( ' K.K.] ~ ~ ( ~ ( ( ~ ' ~.^.U.K.K./ y H H T G.G.K 2 > > 2 G G 5 . o o > o ; U <.<.<.<.C.Z.Z.Y <.<.",
"u.Z C u.f.i.l.y.7.r.+.a.O.m.B.;.{ ] ` ` b.B.M.N.B.;.{ ~.^.!.L.K./ y G 5 G T G.G.L , o > 2 G G 2 X X o   ; Z Y C.C.<.Z.Z.Z.Z.Z.Y ",
"h.r.V u.r.e.y.l.7.+.-.X.r S.;X-X,.=.*X*X%.D.k.S.=XB.:.X.^.^.U.K./ y 5 > 5 H P G.G.G o o > 5 G G .   X   - Z r.g.C.C.C.C.C.C.<.<.",
"u.i.D C Z 5.5.y.l.*.R.|.q c 2XuXeX0X2X1.@ C S.*X3X&Xn.[ ~.^.U.K./ y G 2 > 5 H T G.T O X o 2 G 2 . - #   ; Z r.i.i.A.g.C.Y F U U ",
"F F D C r.f.e.i.A.*.R.,X#.H.yXaXdXdX0X< 1 J.0X4X4X-X>.[ ~.^.L.K./ y H 5 > 2 2 H W R > X o > 2 G 3 ; : & ; Z u.y.u.h.g.C.g.Y U U ",
"Y S U A F h.u.u.A.*.`.,Xn J.yXdXdXfX2X4 6 J.0X9X8X-Xm.[ ~.^.L.K./ p L G 2 > 2 G P L 5 O X o 2 G G O a k a k i.u.i.i.i.u.u.g.C.<.",
"C.Y Y D F D e.r.h.*.'.,X#.< 2XdXdXdX2Xu G 7 F.wXwX-Xm.[ ~.^.U.K./ p E H 5 > > 2 5 G G 1   o > 2 5 O a l k f u.u.e.t.w.i.u.i.<.Z.",
"C.&.F Y F F r.e.r.*.].,X1.< H.fXsXdX2X4 5 3 F.uXwX-X>.[ ~.^.U.K./ i R G.G o o , 2 5 H 2 X X > 2 6 O a 4.t.e.V D u.u.u.e.C.C.C.Z.",
"Y U U Y S D F F u.*.'.,X$.% 2XhXsXdX2X4 , - 2XpXqX-Xn.[ ~.^.U.K./ t L E G > o > 1 G G G 1   o 2 5 O a t.l.e.N V V u.D U F Y Y <.",
"C.Y U U Y F Y Y g.*.`.$Xp u 5XhXsXdX0XI . u 5XsXwX-Xm.[ ~.^.U.K./ t G H 2 o o > , 2 6 H 2   o , 1 X m x.l.t.l N V F D F F F <.Y ",
"<.1.U U Y Y <.F j.j.>.o.i 2XgXgXsXsXaX5Xn 2XuXsXqX-Xm.) ~.^.L.K./ 8 2 5 5 o X o > 2 2 G 2 X   o , . m V.l.t.4.w.V D F u.u.g.C.Y ",
"Z.<.<.Y <.<.<.Y f.h.h.+.*.rXhXfXsXaXgXgX5XtXdXsXwX-Xm.[ ~.^.L.K./ 8 > 2 G , X X > 2 2 6 ,     . > X v V.l.9.y.w.N Z u.C.C.Y F Y ",
"1.<.Z.Z.<.<.<.u.h.C f e.d.*XwXdXsXsXsXfXfXaXsXsXwX3X&X=...~.U.K./ 8 > 2 G 6 X X o > 2 2 5     X > ; e.c.l.y.t.e.N N Z F F F <.<.",
"Y 1.1.1.<.<.C.g.y.S f w f %.0XfXsXrX0XpXdXdXsXsXuX9X;XN.` Y.U.K./ + o 2 G 5   X o , 1 2 1 . &   X m i.c.c.z.y.y.t.e.e.e.Z u.<.F ",
"U Y U Y U U Y F i.h.F f : +.*X0X2X2X:XiXsXsXsXsXsXwX3XB.) E.U.K./ + X > 2 6 , X X > , 2 - a j # = N f.c.c.c.z.f.f.t.e.3.5.r.F C ",
"I D U U U U U F F i.d.&.F r.k.M.%X=XtXpXsXsXdXsXiXqX7X&X) Y.U.K./ + X > 2 5 7 X X o > > - C x & 5.s.f.c.v.v.z.h.e.e.e.e.t.t.Z B ",
"7 c I C A A S F F D F <.C.g.+.D.:XqXdXdXsXsXsXiXqX7X7X&X( | K.K./ 0 8 . > 2 3 8 . o > . - r.x a y.s.z.v.V.v.j.y.e.Z e.e.5.e.V M ",
"4 d c c B A S F F D F F F C.Z.*.2XiXtXiXiXiXiXqX7X4X7X*X` | K.| [ R.X.  > , @  .~   o X ; f.f.F f.z.z.v.V.v.v.z.d.u.e.y.t.N N B ",
"v v m M M C D F u.F F F F g.C.d.*.D.D.6X6X6X6X7X3X3X4X&X) | K.' '.XXo.+ o X + R.Y.0 .   & d.j.f.h.d.z.v.v.z.z.f.h.u.e.r.u.N z b ",
"k l z z Z C V C F F r.h.g.g.u.u.b 8 e b.N.B.&X&X&X&X&XB.( | K./ [.{.W.=.@   @ R.^.P.0     f g.g.g.g.j.z.l.y.f.r.Z e.t.r.F Z M v ",
"l 3.3.z N C M b V C Z Z u.F F h.Z : . e @.n.n.n.n.n.n.@.! | U.{ [.XX~.[.:.@ + [._.!.} 9   # C h.A.g.j.j.f.y.y.t.e.r.f.f.r.Z z k ",
"l N w.N z N 5.m l N M l Z h.F r.r.C c #.B.M.O.e g e e e ! I.P.R.OX+X~.[.,X-.+ ` /.^.L.) f f r.u.d.g.g.h.h.h.r.y.u.u.u.f.r.r.F e.",
"5.z 5.5.3.5.9.2.l 2.6.4.4.e.i.e.r.F k.*X;XD.e   1 o 8 ` ( I.[ {.+XXX^./.>X>X-.=./.^.U.{ O.f.y.f.l.h.g.g.g.u.u.u.g.<.F u.u.F u.F ",
"5.z 5.3.8.8.8.2.3.2.6.7.e.V Z D D k.=XwXqX;X$.r r 0 -.[.) ..R.OXXX_.^.Y.[.1X<X+XXX^.Y.| X.f.t.y.y.y.d.g.g.Y <.g.C.g.g.&.F F D r.",
"Z 5.5.7.9.8.8.2.l l l N N B A D %.D.tXiXuX6X].$X|./.<X}.^ ( }.+XXX(.T.I.'.,X>XOXXX_.T.K.X.x y.t.t.y.y.g.F Y <.C.g.&.g.&.F F g.h.",
"Z C N 7.9.2.8.3.k 3.l v v V C C %.D.tXuX8X:X].>X|./.<X}.^ [ OXXX{.^.`.m.N.N.N.:.'.{.T.} ` a.t.5.r.r.y.y.F Y Y C.g.g.u.h.F F F u.",
"C B V 5.4.4.3.3.z z N m M V N M %.M.6X6X3X&X-.|.|.[.+X/.' E.{._.^.Q.%XqXqX9X3X#XN.'.Y.! w q.6.2.e.e.y.y.D Y Y U F Y u.S D U A A ",
"U A C N e.5.z l 3.z v M N N l k x +.B.&X&XB.O.r [ E.{.E.) ~.).~.R.%X2X2XaXsXtX3X#Xm.` @ = 4.5.3.3.e.e.e.V Y F V V U U Y U V A A ",
"U A A C M z 5.x N z v b Z e.l k k N +.b.b.b.w 3 i 0 ^ ^ 9 0 ~ 0 O.N.=X0XaXsXpX8X&Xn.g X & l N N N y.e.N N u.Z Z Z S U Y Y Y A U ",
"S S D D Z M Z r.y.y.N k N t.z l k j l x +.x * 7 T L p 9 % o o . : #.*XpXsXsXpX8X&Xn.e   & z z Z e.y.y.3.l N N e.N C U Y C.C.F S ",
"F &.g.g.F r.r.t.y.7.Z Z z 3.z 3.3.l k k z j * @ J W I t 5 2 , > , g %XtXdXsXwX7X&Xn.e + 0 h 3.N e.w.w.w.N m l N V D Y Y <.A.F U ",
"F g.d.&.d.j.f.F S F r.t.t.z z 3.2.l 3.3.l a 9 0 8 5 1 o > O X     e D.7XwXwX7X-X#X:.` / ] 0 z Z t.4.l N l k k M V U u.Y &.A.u.D ",
"g.g.g.F &.d.h.r.F Z t.e.e.3.5.y.2.k k z f ; q [ ) 9 9 9 8   # - > e M.-X3X3X-X#X:.'.~.Y.] _ 5.5.w.w.3.4.3.3.l N Z Y &.A.A.A.u.D ",
"h.g.g.g.&.i.f.h.u.Z Z e.z 3.5.t.3.3.l l - L H q [ I.I.R.{ w v Q L G n M.#X#XB.;.o.W.!.K.' ~ x z l 3.4.3.4.4.4.t.u.u.h.A.A.A.<.U ",
"j.g.h.d.d.h.g.i.F F Z e.N 3.Z Z w.3.w.M # 2 1 , q ! ! ~ y R L K H H J n *.@.*.u 8 / | ] / ^ r j l w.3.3.3.4.6.f.f.h.j.j.g.Z.Z.<.",
"d.g.r.F r.g.y.r.g.D Z e.e.3.w.Z e.N w.3.s O o o X @ . % I L J G G H G G c 7 4 1 > @ ~ / / ' 0 f m z 3.3.3.6.9.x.f.g.j.j.g.g.Z.Z.",
"&.g.f.f.r.u.i.r.F F r.5.z z e.Z w.N w.4.3.d O       X 1 J 5 2 5 2 5 5 2 2 2 1 1 >   + ! ! ~ h f N 4.4.4.5.6.9.q.f.f.f.f.f.f.g.g.",
"F h.j.h.y.i.f.y.e.F f.6.l l 4.e.e.w.4.4.3.l v f f & X > , , , 2 2 1 2 2 , > > > .   * g e g k k e.4.3.3.z 4.4.t.f.x.f.z.f.f.j.d.",
"F g.g.u.r.h.y.y.5.r.y.2.l l 3.N t.t.9.4.4.e.F D 6.j &   . > , > > > > > > o o X   # f e.l k d k t.w.3.3.3.3.9.q.s.x.y.z.z.f.g.g.",
"g.Y u.u.F g.u.r.e.y.5.3.2.l z e.t.p.p.9.3.y.i.y.7.5.j &     X X X X X X X X X # a M e.Z V d d l 2.2.3.2.3.6.0.q.l.7.y.z.z.g.g.<.",
"C.<.C.g.g.g.u.F e.e.5.4.3.3.5.Z t.t.q.6.e.y.l.p.q.6.8.j = & # & # - @ # & & & l e.Z N D V m m 3.3.2.2.3.4.9.7.4.4.e.h.z.j.g.C.g.",
"<.<.<.Z.g.F C.g.u.u.5.3.3.5.5.r.w.3.w.t.e.y.0.9.8.0.8.2.2.3.j M A A A S 5.l v Z Z D B V V V m l l 3.2.3.3.9.6.3.l Z F d.g.&.Z.<."
};
