/* XPM */
static char *cff715005deb463be307e57f82449dddyGpl2vQ7GERj2sX9[] = {
/* columns rows colors chars-per-pixel */
"128 128 23 1 ",
"  c None",
". c black",
"X c #04080D",
"o c #0B1219",
"O c #3F0000",
"+ c #191E23",
"@ c #1D2226",
"# c #540000",
"$ c #7F0000",
"% c #5B3409",
"& c #3F464D",
"* c #860000",
"= c #A00A00",
"- c #B11501",
"; c #BD1E02",
": c #FF3117",
"> c #82601A",
", c #E94608",
"< c #FF7E27",
"1 c #A98740",
"2 c #CCAF72",
"3 c #EED297",
"4 c white",
/* pixels */
"                                                                                                                                ",
"                                                                                                                                ",
"                                                                                                                                ",
"                                                                                                                                ",
"                                                                                                                                ",
"                                                                                                                                ",
"                                                                                                                                ",
"                                                                                                                                ",
"                                                                                                                                ",
"                                                                                                                                ",
"                                                                                                                                ",
"                                                                                                                                ",
"                                                                                                                                ",
"                                                                                                                                ",
"                                                                                                                                ",
"                                                                                                                                ",
"                                                                                                                                ",
"                                                                                                                                ",
"                                                                                                                                ",
"                                                                                                                                ",
"                                                                                                                                ",
"                                                                                                                                ",
"                                                                                                                                ",
"                                                                                                                                ",
"                                                                                                                                ",
"                                                                                                                                ",
"                                                                                                                                ",
"                                                                                                                                ",
"                                                                                                                                ",
"                                                                                                                                ",
"                                                                                                                                ",
"                                                                                                                                ",
"                                                                                                                                ",
"                                                                                                                                ",
"                                                                                                                                ",
"                                                                                                                                ",
"                                                                                                                                ",
"                                                                                                                                ",
"                                                                                                                                ",
"                                                                                                                                ",
"                                                                                                                                ",
"                                                                                                                                ",
"                                                                                                                                ",
"                                                                                                                                ",
"                                                                                                                                ",
"                                                                                                                                ",
"                                                                                                                                ",
"                                                                                                                                ",
"                                                                                                                                ",
"                                                                                                                                ",
"                                                                                                                                ",
"                                                                                                                                ",
"                                                                                                                                ",
"                                                                                                                                ",
"                                                                                     ..                                         ",
"                                                                                  ....                                          ",
"                                                                             .   .++.                                           ",
"                                                                            .. ..oX.  .......                                   ",
"                                                                           .. .&&XX...+++++++...                                ",
"                                                                          .+..&+XX.++++oooooooo+..                              ",
"                                                                          .o.++oX&&&+ooXXXXXXXooo+.                             ",
"                                                                         .oX.+o+++++oXXXX......XXXo.                            ",
"                                                                        .+++++++++&&&&&&+++++++...XX..                          ",
"                                                                        .+++++++&&++++++++++++++++.....                         ",
"                                                                        .OOOOO++++++++++oooooo++++.                             ",
"                                                                      OO-----*O++&&&+++ooXXXXXoo+++.                            ",
"                                                                     O:-:-:--**O+++&&&+++++oXXXXoo++.                           ",
"                                                                    O-:-:-:-:-**O++++&&oo++++X.XXoo++.                          ",
"                                                                   O-:--:-:-:--*O+&+++&&+ooo+++.XXoo++.                         ",
"                                                                  O--O--:O---:-**O+&+++&&+ooo+++.XXoo++.                        ",
"                                                                  O--O--:O-*----*Oo+&+o+&++Xoo+++.XXoo+.                        ",
"                                                                  O-*O-:*O-O--*-**Oo+&+o++++Xoo+++.XXoo+.                       ",
"                                                                 O--O---*O-O*-*--*Ooo+&+o+++XXoo+++..Xo+.                       ",
"                                                                 O-*O---*O-*O**--**Ooo&+oo+++XXoo++. .Xo+.                      ",
"                                                                 O**O--**O-*O*O*-**Ooo+&+oo++XXXoo++. .Xo.                      ",
"                                                                 O*OO****O*OO**O--**Ooo++Xoo++XXXo++.  .X+.                     ",
"                                                                 OO %OO*OOO>>O*O--**Ooo+++Xo++.XXoo+.   ...                     ",
"                                                                  $$.11O111.1.OO---*OXo+++Xoo++.XXo++.    .                     ",
"                                                                  $<..2222...111O--**Ooo+++Xo++.XXoo+.     .                    ",
"                                                                  $<.42223..4111O--**OXo+++Xoo++.Xoo+.                          ",
"                                                                  $<..2223...121O--**OXoo++XXo++.XXo+.                          ",
"                                                                  $<@.2222.@.121O--**OXoo++XXoo++.Xoo.                          ",
"                                                                  $<@.3222.@.1211O-**OXooo+XXoo++.XXo.                          ",
"                                                                  $<@.3222.@.2211O-**OXXoo+.XXo++..Xo.                          ",
"                                                                   $.332222.22221O-**OXXooo+.Xoo+. .X.                          ",
"                                                                    $322222222221O-**OXXXoo+.XXo+. .Xo.                         ",
"                                                                  .  %32222222221O-**OXXXoo+.XXoo.  .X.                         ",
"                                                                   ...322%2222221O-**OXXXXoo..XXo.   ..                         ",
"                                                                      %%%12222222O-**OXXXXoo.=.Xo.    ..                        ",
"                                                                      %1122222221O-**OXXXXXo.;$.X+.                             ",
"                                                                       %322222211O-*O...XXXX.=$ ...                             ",
"                                                                        %%1111111O-*OXXX....X.=$  ..                            ",
"                                                                        .+%%%>>>>O**O%..,,;;..=$                                ",
"                                                                         %1%>%%%%O**O.;$<,,;;=$=$                               ",
"                                                                        %221%%+XXO*O,,;;$<,;;;=$$                               ",
"                                                                        %221>....O*O,,;=$<,,;;=$$                               ",
"                                                                        %221>$<,O-O,,;;=%%%%,;=$$                               ",
"                                                                        %211>$;,OO,,;;=%2221%;=$.                               ",
"                                                                        %>1>>.;;OO,;;=%22221>%=$.                               ",
"                                                                         %>>>..;O;;;=%2122221>%X.                               ",
"                                                                          %%O.&...=;=%2122221>%X.                               ",
"                                                                           O-.+&&+...%1%22211>%.#O                              ",
"                                                                          ..--.++ooooo%%22211%.##O                              ",
"                                                                        ..&&.-O..ooooX+%2211>%....                              ",
"                                                                       .o&++o.O--......%11>%%&&++o.                             ",
"                                                                       .oo++++.--------*%%%&&++oooX.                            ",
"                                                                        .ooo+++.********#.&+++ooXXX.                            ",
"                                                                         .Xooooo..****##.&+++ooXXX.                             ",
"                                                                          ..Xooooo.O###.&++oooXXX.                              ",
"                                                                            ..XXXXXXOO.oooooXXX..                               ",
"                                                                              ......  .XXXXXX..                                 ",
"                                                                                       ......                                   ",
"                                                                                                                                ",
"                                                                                                                                ",
"                                                                                                                                ",
"                                                                                                                                ",
"                                                                                                                                ",
"                                                                                                                                ",
"                                                                                                                                ",
"                                                                                                                                ",
"                                                                                                                                ",
"                                                                                                                                ",
"                                                                                                                                ",
"                                                                                                                                ",
"                                                                                                                                ",
"                                                                                                                                ",
"                                                                                                                                ",
"                                                                                                                                "
};
