/* XPM */
static char *afe1d1a47cbb45e7c23ffce501ece6b6FRDUMta7RZ3anvVK[] = {
/* columns rows colors chars-per-pixel */
"64 64 166 2 ",
"   c None",
".  c #010304",
"X  c #0B0405",
"o  c #040609",
"O  c #09070C",
"+  c #05090D",
"@  c #090C0F",
"#  c #120707",
"$  c #170906",
"%  c #1E0305",
"&  c #050C11",
"*  c #0A0E13",
"=  c #1E0D12",
"-  c #0C1015",
";  c #0E1419",
":  c #161417",
">  c #191013",
",  c #11161B",
"<  c #13191E",
"1  c #1A1A1B",
"2  c #260203",
"3  c #2C0303",
"4  c #230C07",
"5  c #200709",
"6  c #330402",
"7  c #300609",
"8  c #310E0C",
"9  c #26140A",
"0  c #341C07",
"q  c #2B1417",
"w  c #241418",
"e  c #281718",
"r  c #251C1F",
"t  c #28181B",
"y  c #311716",
"u  c #2C281E",
"i  c #26241D",
"p  c #151B21",
"a  c #191F24",
"s  c #211F22",
"d  c #1C2127",
"f  c #1D2329",
"g  c #21262B",
"h  c #23292E",
"j  c #3C362D",
"k  c #252B31",
"l  c #292F34",
"z  c #2E353B",
"x  c #450204",
"c  c #460802",
"v  c #4F0F02",
"b  c #490A0C",
"n  c #4B0503",
"m  c #560102",
"M  c #5C0001",
"N  c #530903",
"B  c #5D0A03",
"V  c #451006",
"C  c #591405",
"Z  c #650301",
"A  c #6C0301",
"S  c #640B02",
"D  c #6B0D02",
"F  c #740200",
"G  c #7D0300",
"H  c #720901",
"J  c #7B0B02",
"K  c #6F1203",
"L  c #661908",
"P  c #4D2E0D",
"I  c #562205",
"U  c #53270F",
"Y  c #5E280F",
"T  c #5C240B",
"R  c #562D10",
"E  c #463216",
"W  c #593615",
"Q  c #5A3910",
"!  c #513A1A",
"~  c #77311A",
"^  c #463625",
"/  c #4F3720",
"(  c #4A3928",
")  c #783E20",
"_  c #694B17",
"`  c #704C14",
"'  c #7F441E",
"]  c #6F511E",
"[  c #75511C",
"{  c #614A25",
"}  c #7D5523",
"|  c #614E3A",
" . c #685937",
".. c #655533",
"X. c #796946",
"o. c #860300",
"O. c #8D0500",
"+. c #830B00",
"@. c #8F0F05",
"#. c #910600",
"$. c #970900",
"%. c #9D0B00",
"&. c #891005",
"*. c #881806",
"=. c #831E09",
"-. c #9E1303",
";. c #A60E00",
":. c #AC1301",
">. c #B41505",
",. c #B21801",
"<. c #BC1B04",
"1. c #BE1D0A",
"2. c #9E2308",
"3. c #9D2B0D",
"4. c #813B12",
"5. c #AE2603",
"6. c #A62F07",
"7. c #AA2C07",
"8. c #B22B04",
"9. c #BB3B0E",
"0. c #A73812",
"q. c #A43513",
"w. c #CD1E08",
"e. c #C21D0A",
"r. c #C02302",
"t. c #C92803",
"y. c #D5210A",
"u. c #C03E0B",
"i. c #C23305",
"p. c #D23E08",
"a. c #81411D",
"s. c #864C28",
"d. c #844A24",
"f. c #8A5C21",
"g. c #8A502C",
"h. c #876421",
"j. c #9C672E",
"k. c #92702D",
"l. c #976C37",
"z. c #98783D",
"x. c #96743D",
"c. c #926546",
"v. c #907241",
"b. c #9A7843",
"n. c #A47A44",
"m. c #998457",
"M. c #A68548",
"N. c #AD8C4A",
"B. c #AF904A",
"V. c #B1914B",
"C. c #AC8C50",
"Z. c #B39352",
"A. c #B29359",
"S. c #BC9D5A",
"D. c #B79D67",
"F. c #BB9E63",
"G. c #BCA26B",
"H. c #C2A464",
"J. c #C4A66A",
"K. c #CAAD6D",
"L. c #C8AA6D",
"P. c #CBAE71",
"I. c #CBAF71",
"U. c #C4AB74",
"Y. c #CDB073",
"T. c #D5BA7D",
/* pixels */
"                                                                                                                                ",
"                                                                                                                                ",
"                                                                                                                                ",
"                                                                                                                                ",
"                                                                                                                                ",
"                                                                                                                                ",
"                                                                                                                                ",
"                                                                                                                                ",
"                                                                                                                                ",
"                                                                                                                                ",
"                                                                                                                                ",
"                                                                                                                                ",
"                                                                                                                                ",
"                                                                                                                                ",
"                                                                                                                                ",
"                                                                                                                                ",
"                                                                                                                                ",
"                                                                                                                                ",
"                                                                                                                                ",
"                                                                                                                                ",
"                                                                                                                                ",
"                                                                                                                                ",
"                                                                                                                                ",
"                                                                                                                                ",
"                                                                                                                                ",
"                                                                                                                                ",
"                                                                                                                                ",
"                                          .                                                                                     ",
"                                    o o     @ *   .                                                                             ",
"                              o @ * ; ; , - * < d o o                                                                           ",
"                            o @ & @ o @ ; p l a p - @                                                                           ",
"                          . o * , < < p h k k k a 1 1 *                                                                         ",
"                            @ p , * * ; p f l h q S J D B                                                                       ",
"                          * , - @ * , < h z k t A >.y.y.e.&.                                                                    ",
"                        @ , * @ , < ; g z f h b %.w.<.1.<.-.H                                                                   ",
"                        - * @ , < - , g d h w F ;.:.+.@.>.J +.                                                                  ",
"                      @ - o - p * * p , k p x $.%.G J F :.+.+.                                                                  ",
"                      @ o o < - @ , ; < d = F %.F Z H A O.A Z                                                                   ",
"                      .   @ , @ @ < - < , 7 O.-.B R W ) ~ U S                                                                   ",
"                          - ; o , ; ; p * m %.*.l.X.u G.G.| 3.                                                                  ",
"                          * * @ < * ; < * M %.=.N...1 G.G.^ 0.                                                                  ",
"                          @ o * , @ - ; @ M #.a.S. .i D.U.( q.                                                                  ",
"                          o . * - o ; * O M O.d.K.D.m.I.T.c.                                                                    ",
"                        . .   @ @ X - & O M O.s.K.Y.L.A.G./                                                                     ",
"                              @ 3 c & + o m O.g.K.Y.I.M.}                                                                       ",
"                            . X F 6 # $ o 6 o.' V.Z.C.v.                                                                        ",
"                                o.S 5.u.C v F T _ ` [ E                                                                         ",
"                                #.<.p.9.,.i.H 6 9 Q Z.b.                                                                        ",
"                                O.6.j.l.3.t.8.S 7.4.B.x.                                                                        ",
"                                C f.H.I.n.2.r.D K P h.[                                                                         ",
"                              3 0 k.H.J.z.Y N e s V I                                                                           ",
"                              2 4 ] N.F.! - & : 8 S r                                                                           ",
"                            o * a j { } L N N J B : d ,                                                                         ",
"                            . @ * p g y A o.G n > ; * o                                                                         ",
"                              . o & ; p 5 x % + & o                                                                             ",
"                                  . o o o     .                                                                                 ",
"                                                                                                                                ",
"                                                                                                                                ",
"                                                                                                                                ",
"                                                                                                                                ",
"                                                                                                                                ",
"                                                                                                                                ",
"                                                                                                                                ",
"                                                                                                                                "
};
