/* XPM */
static char *result[] = {
/* columns rows colors chars-per-pixel */
"64 64 232 2 ",
"   c #020405",
".  c #080606",
"X  c #0A0C05",
"o  c #03060A",
"O  c #05090D",
"+  c #0B0C0C",
"@  c #190906",
"#  c #0D1205",
"$  c #0F1804",
"%  c #0E120A",
"&  c #151609",
"*  c #161A0C",
"=  c #191C0C",
"-  c #060B11",
";  c #090E13",
":  c #1C0E11",
">  c #0C1115",
",  c #0D131A",
"<  c #121315",
"1  c #1B1915",
"2  c #12161B",
"3  c #14191E",
"4  c #1C1A1E",
"5  c #270805",
"6  c #350202",
"7  c #3A0403",
"8  c #3B0708",
"9  c #350B0D",
"0  c #390A0A",
"q  c #24160A",
"w  c #3A1708",
"e  c #2E0E11",
"r  c #261713",
"t  c #371410",
"y  c #1A2407",
"u  c #1E2B0A",
"i  c #1E2319",
"p  c #21250D",
"a  c #232C0D",
"s  c #2B2C0A",
"d  c #372409",
"f  c #263206",
"g  c #23340D",
"h  c #2B330D",
"j  c #263C0C",
"k  c #2A3D0D",
"l  c #34380C",
"z  c #232313",
"x  c #242D13",
"c  c #2A2B13",
"v  c #282619",
"b  c #372513",
"n  c #3D2B13",
"m  c #263213",
"M  c #2B3514",
"N  c #2D3B12",
"B  c #2E3419",
"V  c #2D3918",
"C  c #333515",
"Z  c #333D15",
"A  c #33351B",
"S  c #353B1A",
"D  c #3A3919",
"F  c #3B3D1C",
"G  c #161B21",
"H  c #191D22",
"J  c #201E23",
"K  c #1C2126",
"L  c #1D2329",
"P  c #21262C",
"I  c #282629",
"U  c #23292E",
"Y  c #3A3621",
"T  c #323B26",
"R  c #3D3B21",
"E  c #262C32",
"W  c #292E34",
"Q  c #2A3136",
"!  c #2D3339",
"~  c #31373E",
"^  c #450401",
"/  c #4B0301",
"(  c #400C07",
")  c #4B0A02",
"_  c #550201",
"`  c #5C0200",
"'  c #580B02",
"]  c #481608",
"[  c #551505",
"{  c #5A1807",
"}  c #630100",
"|  c #6D0100",
" . c #640D04",
".. c #6B0B01",
"X. c #730300",
"o. c #7C0100",
"O. c #740A01",
"+. c #7B0900",
"@. c #681405",
"#. c #771503",
"$. c #452C0C",
"%. c #56240D",
"&. c #49340D",
"*. c #59370C",
"=. c #462C13",
"-. c #5B2411",
";. c #483515",
":. c #413F1F",
">. c #593B14",
",. c #792708",
"<. c #6F300E",
"1. c #6B3918",
"2. c #423D23",
"3. c #463D28",
"4. c #533623",
"5. c #2C4D07",
"6. c #274509",
"7. c #2C430C",
"8. c #2E490B",
"9. c #31450E",
"0. c #334C0B",
"q. c #3A4F0C",
"w. c #2F5207",
"e. c #35520B",
"r. c #385608",
"t. c #3B530C",
"y. c #2E4110",
"u. c #344313",
"i. c #3B4515",
"p. c #354911",
"a. c #3C4B13",
"s. c #374118",
"d. c #3D421A",
"f. c #3E4918",
"g. c #3C5111",
"h. c #3F4020",
"j. c #46460E",
"k. c #43580C",
"l. c #424616",
"z. c #4C4515",
"x. c #424B16",
"c. c #42441C",
"v. c #444A1A",
"b. c #4A4C1B",
"n. c #594818",
"m. c #445314",
"M. c #4A5415",
"N. c #4B5A14",
"B. c #495916",
"V. c #555D18",
"C. c #68450F",
"Z. c #674716",
"A. c #744714",
"S. c #775317",
"D. c #7A541A",
"F. c #7D591A",
"G. c #516113",
"H. c #454222",
"J. c #494324",
"K. c #484820",
"L. c #594A2A",
"P. c #66522A",
"I. c #795523",
"U. c #7D6431",
"Y. c #363D43",
"T. c #4E4E4D",
"R. c #766643",
"E. c #676766",
"W. c #850000",
"Q. c #8B0400",
"!. c #830C00",
"~. c #8D0D01",
"^. c #940600",
"/. c #930D00",
"(. c #9B0B00",
"). c #881804",
"_. c #9B1101",
"`. c #951806",
"'. c #A40D02",
"]. c #A61301",
"[. c #AC1401",
"{. c #A51A03",
"}. c #B21501",
"|. c #B41903",
" X c #BC1C03",
".X c #8A2F0F",
"XX c #962506",
"oX c #A52706",
"OX c #BC2503",
"+X c #B73606",
"@X c #B33A12",
"#X c #C71C08",
"$X c #CD2907",
"%X c #D4230A",
"&X c #C83505",
"*X c #D93A06",
"=X c #E1270F",
"-X c #815D1D",
";X c #AE4411",
":X c #B94913",
">X c #84621E",
",X c #825025",
"<X c #8E6B2E",
"1X c #96742E",
"2X c #977536",
"3X c #9D7A3A",
"4X c #A07D39",
"5X c #CD5B1D",
"6X c #D15018",
"7X c #E35615",
"8X c #88744E",
"9X c #9B7A45",
"0X c #A3813B",
"qX c #A78546",
"wX c #AA8942",
"eX c #AE8E51",
"rX c #A9905E",
"tX c #B79757",
"yX c #BC9D5D",
"uX c #AD9460",
"iX c #A5936E",
"pX c #B89C64",
"aX c #BEA268",
"sX c #B7A071",
"dX c #C1A362",
"fX c #C6A86B",
"gX c #CCAF72",
"hX c #CDB073",
"jX c #D2B578",
"kX c #B8A886",
"lX c #DBBE83",
"zX c #DDC288",
/* pixels */
"2.2.3.2.R h.F v.m.k.k.j.9.k Z M N N y.N y.5.u $ $ $ $ # $ $ C K.J.J.2.r m V M C s.d.D C A S S S s.s.i.s.u.N y.Z s.s.d.d.d.F F 2.",
"2.2.Y D R R d.s.g.k.G.m.7.j h a m M N N u y $ O O > > ; > > * r r v S r * = x Z d.d.F S V s.S Y s.d.f.s.s.a.s.s.d.v.h.h.F R 2.2.",
"3.2.2.R R R F f.m.N.N.u.N y.m x B B u y     O ; > , > 3 G L L G 2 * z B X + * M x.v.i.S N u.d.d.S S d.S S i.p.s.S s.d.S d.R J.2.",
"2.J.2.2.R d.d.s.g.B.a.N m u.m m C A = #         o o o + > P Q Q U 3 % z X O ; y l i.F D u.u.s.d.S S d.F N y.p.p.u.u.u.d.H.2.J.2.",
"2.J.J.J.H.h.d.s.f.d.s.V y.N m m M C c a + . ; ; > > > > + O + > 2 G 3 + .   + > * C c.c.u.p.a.f.i.S Z d.S u.p.p.s.S S d.R R 2.R ",
"R 2.H.K.H.h.d.d.S C M h N m x x u + + % 2 H U ! ! ! ~ ! < .   O > H H 4 3 + . > < * C x.f.s.p.f.s.Z Z S S s.s.s.S S F R H.K.H.F ",
"Y A d.H.K.2.d.S S C M M V x * X % 2 2 3 4 G G G G K L L Q K 3 2 G H H H H 3 1 4 4 < * F c.s.d.s.s.S S D F d.S S S S S F H.H.h.S ",
"D Y d.h.J.J.H.D S S B A B * < 2 3 G 2 , , ; ; O > > , , L K G K H H H H H e 8 8 0 8 7 ] ;.d.h.h.u.s.Z S h.s.S A D d.F d.c.d.F S ",
"c.F K.c.:.J.2.2.R S A c = < 3 3 2 , - - - o O O - ; ; , , , G H H H H 9 9 ` | /.{.~.~.!.-.] 2.T i.F C S F d.F F Y d.d.H.F S V Z ",
"f.2.H.H.c.2.c.2.R F A = > 2 2 > - - o o o o ; H U L G , G G G H H 4 9 ` } W.[.#X#X|.}.[.^.`.@.] n F S S S F S F S d.d.d.S N M m ",
"q.d.H.K.c.:.H.F F A 1 > , ; ; - o o o ; 4 H E Q W P G G 2 H H H H 9 } o.W.[.#X#X#X#X|.#X X#X|.). .$.F S Z S A T R h.s.S Z N k k ",
"k.p.D :.v.c.:.R D x X 2 > O o o o O > U Q Q Q L , , , G , G H G 0 } W.W.^.#X#X#X%X%X#X=X`.'.=X=X/.@.=.Z Z S R Y d.d.u.V C V u.p.",
"k.e.N i.v.v.F F D 1 O - O o o o ; G H Q L 3 , , - , G G H H H e _ W.W.^.'._.'.%X=X}. X=X`.!.#X X/./.' n A A R d.i.u.y.Z A M N p.",
"r.r.0.p.l.d.F d.c + - o   o < 3 G G G , , ; - ; G G G G H H H 9 ` W.^.]._.O./.%X%X[.|.%X{.| !.~...!./. .b A Y S a.g.g.s.c V 7.7.",
"r.k.r.m.x.i.d.d.c   . .   > G H G , ; - - - , E W H G 3 H H e _ o.^.'.(.| X. X%X'.^.'.O.`.X.| ~.!...(._.[ b A T s.g.p.Z V y.7.6.",
"r.k.k.q.l.c.d.c.a   % p + 2 H 2 - - - - - , P Y.H , , G H H e } W.^.(...| (.|.|.'.^.(.` ^._...o.!.` Q._.` b B A V y.N V y.y.7.6.",
"p.k.g.f.c.c.d.d.u + p * < 2 , ; - O o O U ! E 2 ; , G H H H e } W.^./.` X.(.}.~.X.^./.} /.}.O.} ~.+.| /.' b A B C V N M N N V j ",
"s.f.v.c.d.F F M = a M . > , ; O o   O L W U , ; , H H Q P e _ X.Q./...| W.].}.+.` Q./. ./.[.O.} ^./.` o.` b A A S V V V V m m M ",
"d.d.c.H.D d.i.M M C y + ; ; - o o < L E G ; - ; G H W W J 9 } W.^./._ o.W.^.(.| ` Q./.` !.'./...X.!.| ` / b R Y S S B B N m m B ",
"d.d.d.d.d.c.x.i.f.h O ; ; O o O , K U , ; - ; H W ! W J e / X.W.^.~.` o.W.W.o.} | W.+.} W.^.(.X.` W.o./ t ;.2.Y F F B B s.V B S ",
"c.d.d.d.d.i.a.p.k y + - O o o 2 G G , ; - ; H ~ Y.! J 4 9 | W.W.^.(...| | | _ _ | } _ X.W.W.o.` _ | | ^ n 2.3.3.3.H.R S s.S F h.",
"F F F d.c.f.a.p.u X - O o O < G G > ; O ; H Y.Y.! H H G 8 X.W.Q.(.}./._ ) [ [ ] [ ] / | W.o.' [ [ ( ( 0 n R R 3.3.J.J.R h.h.h.H.",
"C A i.x.x.f.i.9.u   O     > G H , ; - - H Y.Y.! H G 2 G 8 X.W.^.[.[./.{ A.F.A.A.S.1.%.{ X. .1.F.Z.$.n n A R R 3.R 3.J.J.J.2.2.H.",
"V C c.x.i.m.a.p.a     .   2 G G ; O o ; ! Y.! H G ; > G 0 | W.(.[./.@.A.>X1XL.n.L.=.8X<X1.,X4X3XZ.w @.@.$.s.h.H.H.H.J.J.J.2.J.R ",
"s.S s.i.u.p.k.a.s   # y # 2 2 , ; o o G Y.E H G ; ; G G 8 X.W.(.}./.[ D.1X0X2XP.z @ 3.rXeXpXsX8Xv t :X).$.s.f.d.H.H.H.H.H.H.2.R ",
"s.s.C Z u.u.a.m.c $ a $ > G , ; - o O H Y.E G , - ; G H 0 | W.(.[./.[ D.4X0XwXiXE.+ r rXhXgXgXkXE.=.5X).=.u.s.i.d.K.K.H.R F Y Y ",
"F A C d.x.i.l.C p C h X 2 G , - o o ; H U G , - ; G H W ( X.W.^.}./.[ D.0XtXeX8XT.< z rXhXgXgXiXT.=.5XXX$.i.f.i.s.f.c.h.c.R Y Y ",
"D A S d.l.i.i.C C l.C + 2 , ; O   O G H G , ; - ; J W W 0 X.W.(.[./.[ D.0XyXtXP.; , v rXhXgXgXU.+ =.5X`.&.f.c.f.f.i.f.s.d.K.2.H.",
"R Y D F F s.u.i.b.c.C X 2 2 - o o > G H , > - O ; U Y.H 8 X.W.(.}./.[ D.0XdXyXP.< < v rXhXgXjXR.; 4.5X`.&.a.d.d.i.p.u.s.d.H.J.J.",
"R R F S S s.S d.l.d.B X , , -   O H H G , ; - O ; P W G 6 | W.(.[./.[ D.0XyXaXU.+ ; r rXhXhXzXR.+ =.5XXX&.s.V S F s.S d.d.2.2.J.",
"Y Y F F S D F d.l.:.c . ; > -   + H G , > - O o ; H H : 6 X.W.(.}./.[ S.0XaXgXR.4 O 3.pXgXhXzXiXv t :X.X&.p.N N S d.S S F R R 2.",
"R Y Y R F 2.R v.b.v.C + - -     + H 3 , > - o o > G ; + 6 X.W.(.[./.[ F.0XaXjXaXR.L.sXhXgXgXzXzX8Xt ,.n.x.9.k N Z S S F F R d.R ",
"2.Y R R R 2.R v.M.v.C % - O     - G , , - o o + G G , + 6 | W.(.[.~.{ -X4XdXgXgXaXpXzXjXgXgXjXlXrX;.z.N.g.p.9.u.M S d.h.d.c.h.R ",
"3.R 2.2.2.R c.v.v.x.a.h +       - 3 , ; - o   ; H G ; + 6 | W.(./.@.S.2XwXdXgXgXgXhXjXgXgXgXhXuXI.n C h y.g.p.y.N Z d.c.H.R R R ",
"3.2.3.J.2.2.c.f.c.d.f.l #   = & O G , > - o   ; G ; - . 6 X.W.(.!.{ >X0XtXfXgXgXgXgXaX9XpXfXjX9X$.& y N p.a.p.y.N N s.F F F 2.2.",
"2.2.3.2.2.2.c.i.c.v.v.u.p X z A * ; > - o o O 2 G ; o . 6 | W.(.!.-.<X0XdXhXgXgXgXgXfX9X2X8X9XU.l p m M.B.B.a.a.u.u.u.u.u.c.F F ",
"Y Y Y Y Y Y d.i.d.K.v.f.Z & a c.c . ; - o   > G , ; o o 6 | W.^.o.-.4XwXyXgXgXgXgXgXgXfX2XF.A.z.f.g.v.B.V.B.m.m.a.p.u.9.9.p.D A ",
"A Y Y Y A Y R d.d.c.K.d.F a l d.c o - o . 5 q , ; o . ( ^ | W.W.X.<.4X0X0XyXfXhXgXgXgXgXpX3XZ.z.k.m.m.V.V.B.v.f.s.u.u.9.p.p.N B ",
"v c I A A Y R S F F 2.F c.c.d.d.c   O o 5 !.) o -   5 oX).| o.W.| -.4X0XwX0XtXdXfXdXpXpXpX<Xz.M.G.k.M.V.V.V.B.f.S u.u.u.0.N V B ",
"x v v c S D F F D F F F H.J.c.D r   o 5 O.[.)   + . ( oX&X#.| W.| -.4X0X0X0X0X0X3X3X2XZ.>.z.z.x.m.m.M.V.V.V.V.v.v.i.u.i.i.k N B ",
"x m M M C S S d.d.F d.d.c.H.c.x .   5 X.(.[.)   + ] XX{.&X#...W.| { F.>X>X>X>XS.A.C.*.: & l b.c.l.v.M.N.N.M.m.x.i.F u.i.i.N k c ",
"j j 7.Z C B C S F d.d.c.c.d.d.y   5 } (.|.&X[ . -.;X{.|.&X).+.^.| ) *.>.*.*.C.C.C.&.q # h c.c.c.J.c.b.M.a.i.x.p.Z i.a.p.D S N a ",
"y.7.N N M M m M C V Z F d.d.i.C c ] +.'.[.#.5 [ :X5X_.|.*X&X).!.+.7 q q = r : =.S.I.&.h l i.d.d.c.b.b.b.m.i.i.p.u.i.x.x.s.Z Z g ",
"7.u.N k 9.9.j N k k k Z d.F F i.;.@.W.(.|.XX.X:X7XoX(. X&X*X).O.!.' @.@ - +   =.<X9X2Xn.l.x.i.v.b.c.v.v.v.c.i.i.d.:.i.c.i.i.i.s.",
"l 7.8.7.8.r.6.j 0.q.8.9.s.s.u.s.%.o.!.].OX*X*X7X6X~.(.[.OX*X+X~. .#.&X#.) <.-.1.wXyXaX2Xn.l.a.a.x.l.c.c.c.F d.c.2.2.F d.d.F d.F ",
"9.9.8.5.5.w.5.6.8.0.9.7.y.N S S %.o.Q.|.OX+X;X5X;X#.).(. X$X*XXX^ @.7X*X`.6X&X,XeXdXgXdXI.z.p.p.f.a.l.v.:.R 2.c.c.c.c.2.F D F F ",
"u.9.p.e.5.w.6.f j j m M V C C Y =.} ~.}.oX.XA.-X,XI.,X).[. X&XoX_ @.&X*X_.6X@X.X4XwXdXtXS.;.0.p.p.l.x.d.F R 2.H.c.c.d.c.F F i.v.",
"M Z q.w.5.5.7.6.j j m a V S B C z 5 O.XX<.-X1XeXaXpXqX,XXX[. XOX~. .OX$X_.;X.X,.<X4X0X1Xn.j.8.u.i.i.p.i.F R 2.H.:.c.d.c.F S F d.",
"B B u.7.9.7.7.7.k M m N N M N C p . e *.-X1XtXgXgXtX<X9X1.)._._.#.` `.{.O.( 5 $.F.F.F.C.j.g.8.8.u.p.a.u.S R R A S R F S A A A A ",
"C C N y.9.k k k k m M C k j j h y   & &.-X4XyXgXgXfXeXI.*.w 5 5 @ 5 / 6 q I 2 q *.n.*.l 0.8.y.N y.s.u.Z V d.S S C Y R R R Y A A ",
"C S S M N 9.u.N N m x Z u.k j u y   @ *.S.4XtXgXhXgXtX1.r < - - - : 9 I W U < & l l h M 7.j j N u.g.u.k N S V u.S A Y R H.R A Y ",
"S F F C N l a.f.p.N M N 9.k j s ^ 6 @ *.-X1XeXdXgXfXqX>.* - - - 2 < r U U 1 @ q k 9.m N 9.7.N u.u.a.u.7.j N k u.V C Y R H.H.R D ",
"H.c.c.F l.a.i.p.a.Z Z 9.7.k k d ` X...,.A.<X4XwXtXtX3X>.&     o o o . ; < ^ / 5 a p.u.N y.y.N N u.7.N y.j g N N S Y R R h.H.h.A ",
"v.v.:.c.z.x.d.D D i.p.9.7.k 9.d ` W.(.[.XXA.>X1X1X1XI.n : 2 z $ @ / _ ) ) ..) r i h u.7.u.y.y.y.p.7.k y.j g g N C F F 2.H.K.d.S ",
"c.c.F :.l.x.d.F S 9.u.N 8.9.l w _ o.Q.^.+.%.n.S.S.Z.=.v K U T m t ..!.!.+.) : K H & 9.7.p.0.6.y.k 7.9.8.8.7.j k d.F v.J.K.K.d.S ",
"c.c.c.c.c.x.x.d.Z u.u.Z 8.9.w _ ` } X.` 5 % b =.$.=.K H K K K U E q 6 7 6 : > > - y 9.0.7.8.7.6.j 7.7.7.8.8.0.f.i.c.c.v.K.J.J.R ",
"l.c.l.l.c.l.i.F D S N u.7.k w ' } _ ^ @ o ; , 2 3 G G 3 G G G H U P . . . o O O $ m 6.7.7.7.y.m N y.6.7.8.0.q.m.x.c.b.b.c.c.3.3.",
"v.c.i.i.d.i.i.c.F Z u.9.y.Z C $.^ ^ 6   O ; ; ; > , , , , , , , 2 2 ;   . . X $ u N N y.j j j m m 7.7.7.7.9.r.m.x.c.M.b.c.c.c.J.",
"v.l.x.i.c.f.i.i.F i.u.k k 9.N l c l s X o O - O ; , ; , , , > > ; O O X f l k k k C u.9.g j g m 7.0.5.y.9.8.e.q.x.x.x.x.x.x.z.J.",
"K.b.a.f.i.x.a.u.i.f.0.j f 7.u.u.y.8.5.u X   o O O - - - - - O o O O X k r.t.q.8.7.N Z 7.j g a j p.8.6.y.7.8.0.p.m.m.x.N.m.x.c.v.",
"c.c.d.d.d.x.p.9.i.p.5.j 6.k u.s.e.e.e.6.g p %                     # h t.k.k.t.e.0.S Z u.m u u k 0.7.8.7.k 8.r.t.N.k.q.N.m.v.c.c.",
":.F d.d.c.c.i.s.p.9.8.6.j k Z p.g.g.e.y.u.f.h y y $ y y p y y y y h x.k.r.q.r.t.g.i.Z Z m u g 6.6.6.8.7.8.e.r.0.t.p.x.M.b.v.:.:.",
"2.H.H.c.F c.d.d.D u.8.8.7.9.u.9.p.p.e.9.i.m.t.e.e.0.5.w.q.8.9.Z D c.F a.0.9.l p.S Z V A V m m 6.k 5.6.7.8.e.0.7.N u.l.b.b.:.J.:.",
"2.2.J.2.F c.c.v.s.7.7.8.9.u.s.7.k 7.p.s.p.e.r.5.w.w.6.8.8.8.9.F F D D l.p.h B Z S V V S A V V j 7.8.8.j 7.e.0.j k u.D c.c.:.:.J."
};
