/* XPM */
static char *f7f0e91352f44f3af4df7f3f2bdd1e1dFJQnw3lFQ23jG5fX[] = {
/* columns rows colors chars-per-pixel */
"64 64 200 2 ",
"   c #2A292A",
".  c #262425",
"X  c #32312E",
"o  c #343E2E",
"O  c #393F2F",
"+  c #2F3E39",
"@  c #333234",
"#  c #383637",
"$  c #353C34",
"%  c #3A3B35",
"&  c #3A3739",
"*  c #363B3A",
"=  c #3B3A3B",
"-  c #2E332A",
";  c #413F3D",
":  c #33422D",
">  c #384C2C",
",  c #3C5E26",
"<  c #36512B",
"1  c #3C552C",
"2  c #3D5C2B",
"3  c #375625",
"4  c #344132",
"5  c #3A4333",
"6  c #3B4D32",
"7  c #3B4139",
"8  c #384C38",
"9  c #3D5432",
"0  c #3C5C31",
"q  c #3E5538",
"w  c #3C6326",
"e  c #3D6B26",
"r  c #3E632A",
"t  c #3E6C2B",
"y  c #3E7324",
"u  c #3E7B23",
"i  c #3E702F",
"p  c #3F6F31",
"a  c #405B2D",
"s  c #415F27",
"d  c #42453B",
"f  c #414B3C",
"g  c #415334",
"h  c #425C33",
"j  c #495D37",
"k  c #45553D",
"l  c #49563C",
"z  c #465C3C",
"x  c #4A5A3D",
"c  c #426E26",
"v  c #42652C",
"b  c #436B2B",
"n  c #496C2E",
"m  c #437324",
"M  c #497425",
"N  c #427C22",
"B  c #44722B",
"V  c #4F7A2E",
"C  c #436432",
"Z  c #496532",
"A  c #446A32",
"S  c #496933",
"D  c #4B613C",
"F  c #486838",
"G  c #51673D",
"H  c #546F3F",
"J  c #4B7433",
"K  c #4D7A34",
"L  c #4C7739",
"P  c #517D35",
"I  c #53743D",
"U  c #537C3B",
"Y  c #3C3A41",
"T  c #413F41",
"R  c #3F4041",
"E  c #454444",
"W  c #484747",
"Q  c #464A44",
"!  c #4A4C46",
"~  c #474649",
"^  c #494649",
"/  c #464B4B",
"(  c #4C4C4C",
")  c #504D4C",
"_  c #4C5445",
"`  c #4B5B43",
"'  c #4D524C",
"]  c #4E5B4A",
"[  c #52534D",
"{  c #525B4D",
"}  c #4E4D51",
"|  c #514F51",
" . c #554F58",
".. c #4E5152",
"X. c #545354",
"o. c #595656",
"O. c #545953",
"+. c #595A56",
"@. c #555659",
"#. c #595659",
"$. c #5C5C5C",
"%. c #605F5D",
"&. c #4D6243",
"*. c #506444",
"=. c #526B45",
"-. c #556D4B",
";. c #5A6D4E",
":. c #56654B",
">. c #557543",
",. c #547A42",
"<. c #5B714B",
"1. c #5D7C4C",
"2. c #577B48",
"3. c #566353",
"4. c #5C6456",
"5. c #5B6B53",
"6. c #5D635C",
"7. c #5D6A5A",
"8. c #5B7651",
"9. c #617C4C",
"0. c #61625E",
"q. c #647C55",
"w. c #64745B",
"e. c #667E5A",
"r. c #5F5F62",
"t. c #625F61",
"y. c #615F69",
"u. c #5D6463",
"i. c #5E6369",
"p. c #636363",
"a. c #696667",
"s. c #666964",
"d. c #696B66",
"f. c #656569",
"g. c #686668",
"h. c #676A6B",
"j. c #6C6C6C",
"k. c #706E6F",
"l. c #6B7C63",
"z. c #6F726E",
"x. c #6E7B6B",
"c. c #687461",
"v. c #72746E",
"b. c #72796D",
"n. c #717F64",
"m. c #6E6E71",
"M. c #716E73",
"N. c #6E7273",
"B. c #747474",
"V. c #797676",
"C. c #757A74",
"Z. c #7A7B76",
"A. c #757578",
"S. c #79767A",
"D. c #76797A",
"F. c #7B7B7B",
"G. c #817C7C",
"H. c #468D1C",
"J. c #4A8D1E",
"K. c #42801E",
"L. c #45911C",
"P. c #4B8525",
"I. c #468D23",
"U. c #4A8B23",
"Y. c #4D862C",
"T. c #4C8A2A",
"R. c #46862B",
"E. c #518A24",
"W. c #52862A",
"Q. c #518A2D",
"!. c #58882C",
"~. c #449021",
"^. c #4E8332",
"/. c #548534",
"(. c #508935",
"). c #54823A",
"_. c #5A843C",
"`. c #568A39",
"'. c #558441",
"]. c #5B8445",
"[. c #5D844A",
"{. c #5B8846",
"}. c #62844C",
"|. c #69854F",
" X c #60884B",
".X c #658453",
"XX c #688554",
"oX c #69845B",
"OX c #678258",
"+X c #6B8363",
"@X c #75826D",
"#X c #758166",
"$X c #758173",
"%X c #7A8175",
"&X c #778278",
"*X c #7B817A",
"=X c #7C7C82",
"-X c #7B7681",
";X c #807D82",
":X c #7D8080",
/* pixels */
". - , M >.d.g.p.$.X.X.X.X.X.X.X.~ @ ~ X.E @ ( j.| @ X X @ @ 3 M I d.j.j.g.a.| @ E p.p.p.$.o.~ @ ~ j.g.p.$.X.X.X.X.o.^ @ @ @ @ @ ",
"  % m U.XX*XD.B.j.p.p.p.p.p.p.p.} & X.0.( & $.;X$.= = = = % h T..X%XF.=XF.B.6.4 _ l.b.S.m.0.X.Y X.F.D.B.j.p.p.p.0.p.[ 5 4 4 4 : ",
"~ 0.P U.oXF.B.B.j.p.p.p.p.p.p.p.( & Y E T & $.F.M.a.X.Y = % O.+XC.B.b.D.B.s.-.J R.T.9.S.f.E ; % ( B.j.a.a.p.#.E ^ ^ h M N B B M ",
"X.B.2.^.+XF.B.B.j.p.p.p.p.p.p.p.( Y = = & & $.D.B.B.o.% % : +.F.F.B.B.B.j.6.-.).R.R.].l.3.4 = = ( B.j.p.p.p.o.= = 4 , P.P.T.Q.!.",
"X.B.&.1 w.F.D.B.j.p.p.p.p.p.p.p.$.$.^ & & & X.j.j.B.o.% h V 9.V.S.B.j.g.o.E 8 6 6 < C /.Y.J ;.a.j.B.j.p.+.~ T % 6 J b < j q.e.q.",
"( m.! % p.F.D.B.j.p.p.p.p.p.p.p.p.p.( & = & } p.g.B.X.% j /.1.B.B.B.j.p.( # % & = = a P.I.J._.b.D.B.j.p.o.& & & 0 T.B 7 ( B.A.B.",
"@ ^ T = p.F.B.B.j.p.p.p.p.p.p.p.p.p.( & & & T ~ ^ ^ d % { e.l.B.z.h.a.p.X.& & & = & 5 3 t I./.C.M.a.a.p.o.& ~ o.=.U./.a.j.N.N.h.",
"  % % 7 7.*XD.B.j.p.p.p.p.p.p.p.p.p.( = = = = = & & = = #.C.B.B.j.p.p.p.X.= = & & % % & 0 R.'.C.m.p.p.p.o.& / 0.=.P.).b.A.B.z.p.",
"  $ v B q.&XD.B.B.N.g.p.p.p.p.p.p.p.$.#.^ & & & & & o.j.B.B.v.a.a.p.p.p.$.#.( = = % & Y 7 9 ] B.j.p.p.p.O.& g ).B < ] v.B.a.a.0.",
"  % B U.XXF.D.B.B.B.j.p.p.p.p.p.p.p.p.p.( & & & & & $.F.D.B.j.p.p.p.p.p.p.a.o.= = = = = Y & ) B.m.p.p.p.o.= 1 U.m : } v.j.p.p.p.",
"  % B U.XXG.F.C.C.B.j.p.p.p.p.p.p.p.p.p.( & & & & & $.F.D.B.j.p.p.p.p.p.p.p.$.o.o.#.( & = & ! B.m.p.p.p.o.= 1 U.K ] p.B.j.p.p.p.",
"  % B U. X#XZ.F.D.B.j.p.p.p.p.p.p.p.a.p.} = = & & & $.F.D.B.j.p.p.p.p.p.p.p.p.p.p.p._ > 4 & ) B.j.p.p.p.[ : 2 ^.,.6.j.B.j.p.p.p.",
"  % b J.T._.+X=X-XB.v.z.a.p.p.p.p.p.p.p.$.#.^ = & & $.F.D.B.j.p.p.p.p.p.p.p.p.p.#.~ h M 0 % | B.j.p.p.p.-.J n 1 l 6.j.B.m.p.p.p.",
"  4 S P.J.U. X@XD.B.B.B.j.p.p.p.p.p.p.p.a.a.| = & & $.F.D.B.j.p.p.p.p.p.p.p.p.p.X.* r U.b % | N.j.p.p.t.>.U.B : d 6.j.B.B.p.p.p.",
"= O.k 3 N U.Q.].l.Z.D.B.j.p.p.p.p.p.p.p.p.p.} = & & $.F.D.B.j.p.p.p.p.p.p.p.o.~ E & 2 J.,.0.$./ / ~ ~ ~ C J.B 5 = E o.B.B.j.j.p.",
"E p./ : A Y.J.P.}.F.F.B.j.p.p.p.p.p.p.p.p.p.} = = = $.F.D.B.j.p.p.p.p.0.p.p.X.= = % 2 W.}.b.0.$ $ & = % , P.A % = & ( B.D.B.j.p.",
"E p.+.{ l 1 u U.}.F.F.F.j.p.p.p.p.p.p.p.p.p.$.o.^ & $.F.D.D.B.j.a.p.p.p.p.p.X.= = * ` oXl.B.0.% * & g B b a 6 % = & W a.j.B.j.p.",
"E p.p.p.Q $ b T.}.Z.F.;Xj.p.p.p.p.p.p.p.p.p.p.p.| & $.F.F.F.D.B.j.p.p.i.f.p.' & = = o.D.D.B.0.= & O 2 U.B % % = = & W 0.g.B.j.p.",
"E p.p.p./ * 8 9 3.j.B.;Xj.p.p.p.p.p.p.p.p.p.X.~ ( o.X.| r.j.j.B.j.p.0.p.#.^ E & = & @.=XD.B.d.O.D m u I.U 4.%.p.#.& = ^ o.B.j.p.",
"E p.p.p./ * $ 5 X.i.N.F.j.p.p.p.p.p.p.p.p.p.( & ( p.( & ( p.j.B.j.p.p.p.[ 4 4 4 O & #.F.D.B.N.u.>.U.I.U.[.D.V.S.p.= & & ( B.k.p.",
"E p.p.p.^ % 2 b ;.N.V.G.j.p.p.p.p.p.p.p.p.p.( = } p.( & E W #.B.j.p.p.i.-.B m m H s.M.=XD.B.m.i.{ 1 G oXn.D.B.h.$.= & & ( B.B.j.",
"E p.p.p.( % A T.[.B.F.F.j.p.p.p.p.p.p.p.p.p.( & ( p.( & & & o.B.j.p.p.p.>.U.J.P.}.F.;X=XD.B.j.i.X.= X.F.Z.F.B.p.o.= & & ( B.B.B.",
"( j.p.p.( 4 p T.}.Z.=XF.j.p.p.p.p.p.p.p.o.^ E & E ^ E & * = @.B.j.p.o.! S U.N 3 :.F.D.S.B.a.#.~ X.a.j.=XF.S.M.p.#.= & & ^ a.j.B.",
"X.B.h.p.( 4 i T.|.F.F.F.d.p.p.p.p.t.p.7._ % o o % % $ = = = @.D.j.p.( & h (.A o O.F.D.B.j.p.X.# X.F.G.F.D.B.j.p.o.& & & E $.a.B.",
"X.B.m.j.( $ t T..XF.B.d.a.p.f.p.X.Q *.,.J b B b B b &.u.} * @.B.p.W E & 5 2 6 & o.F.D.B.j.p.a.p.j.F.F.D.B.j.a.p.o.& & & = ~ X.a.",
"X.B.B.B.X.% b U..XF.j.6.6.0.p.p.} $ b U.U.I.U.I.~.T.1.A.$.* X.B.#.& % o o : * = #.F.D.B.j.p.j.F.F.F.D.B.j.p.p.p.o.& & & & & ~ 0.",
"& X.g.B...* b U.}.D.j.p.X.^ Q ! E $ b U.`.XX|..X[.}.c.j.X.* o.D.$.& 1 A =.6.y.f.j.D.B.j.$.^ ( X.t.D.B.j.a.p.p.p.$.o.( = & & T ^ ",
"  & r.B._ : b W..XF.M.p.^ * $ $ * * C T.}.F.G.F.D.v.d.p.( * X.A.+.o e T. X&X=XF.D.B.j.a.o.= & & ( B.j.p.p.p.p.p.p.a.o.= = = & & ",
"= o..._ D b 1.oXx.D.$.Q C m m b 9 $ :.oXx.D.V.D.a.( ( ~ R * } a.:.n K.I.].$Xj...X.( $.j.j.p.p.p.a.B.j.p.p.p.p.p.p.p.o.= E | ( = ",
"E 0.Q : n W.oX*XF.B...$ e L.~.T.r $ $.=XF.B.B.D.#.& = & % = ' 7.>.Y.I.T.}.%Xp.= = & X.B.B.B.B.B.B.B.j.p.p.p.p.p.p.p.o.= ~ 0.O.= ",
"@ Q C m J >.x.F.D.D.X.* y U.B 0 &.u.m.S.B.b.j.j.X.& Y = 9 b B ^.J 0 =.oX#XZ.a.X.@.$.a.B.v.j.a.j.j.a.g.p.p.p.0.p.$.^ ~ = k L S % ",
"  = m J.>.4.B.F.F.B...* b U.0 + 6.=XD.B.B.v.j.f.X.& Y * C T.U.P.b $ O.&XF.F.v.p.j.B.B.B.d.0.p.p.p.p.p.7.0.0.0.0.o.$ % = 9 U.M 5 ",
"E 6.P J.q.z.Z.F.D.B.' * e J.2.u.j.F.B.v.z.d.a.p.| * * 4 k <.1.OXw.6.j.*XD.j.j.p.a.j.a.a.s.0.+.^ ^ ( ` U U U U U K b 2 = g U.^.4.",
"( b.].Y.}.$X$XZ.Z.B.X.* b P..XZ.B.B.B.B.j.0.p.p.( * $ $ ( p.j.F.G.G.G.F.B.p.p.p.p.p.p.p.p.p.X.& & o , I.~.I.U.U.J.E.b $ q R.).x.",
"^ s.*.2 K {.5.o.a.B.X.& :.XX#XZ.V.D.j.j.a.p.p.p.( $ 9 C -.v.B.V.V.S.B.k.j.p.p.p.p.p.p.p.p.p.X.& d Z C r 2 w w w b >.&.* k ].e.B.",
"E 0.Q o A ^.2 $ +.B...& p.*X;XG.D.A.j.p.p.p.p.p.( $ v U.].&XF.D.A.B.j.p.p.p.p.p.p.p.0.0.0.0.[ 4 2 T.b $ = % % $ f 0.O.$ ! b.B.D.",
"E p.W $ f h e t 8.B.X.* u.F.S.D.B.B.d.p.p.p.0.0.( $ b U.{.F.D.D.m.j.a.p.p.p.p.p.p.p.p.p.+.! l A u H.V 6.%.0.t.t.p.j.7.A =.B.S.B.",
"~ p.^ % & o b T.[.B. .* 7.&XB.B.B.B.j.p.p.p.0.0.( o r T.[.F.V.B.d.p.p.p.p.p.p.p.p.p.p.p.X.$ , T.U.E. Xb.D.F.D.V.B.v.q.T.`.C.B.B.",
"~ p.o.[ E * 9 v L ].` = 0.F.Z.B.z.j.a.p.p.p.p.p.( o e U.[.F.B.B.B.m.g.p.p.p.p.p.p.p.p.p.X.% 2 U.Q.[.l.D.D.D.j.X.X.' G J.(.b.B.B.",
"~ p.p.p.^ & % : v T.2 % 0.F.D.B.j.p.0.p.p.p.p.p.( o e U.[.F.D.B.D.D.j.p.p.p.p.p.p.p.6.0.[ % a Y.).x.S.;XF.B.p.= = % 1 J.(.b.B.B.",
"~ t.p.p.#.| ~ * &.}.J b w.F.D.B.j.0.0.p.p.p.p.u.( o e U.].C.D.D.B.j.g.p.p.p.p.p.p.p.;.U J c e 0 *.Z.F.F.B.d.+.= = % a J.Y.d.j.B.",
"~ p.p.p.p.p.( & $.b._.I..XF.D.B.j.p.p.p.p.p.p.p.( $ r U.'.x.C.F.N.p.p.p.p.p.p.p.p.p.I J.H.U.b $ X.F.Z.B.j.0.O.% = % g Y.P 6.h.B.",
"~ p.p.p.p.0.^ & ( { L I..XF.D.B.j.p.p.p.p.p.p.p.( * r T.].x.C.F.B.p.p.p.p.p.$.( } ( F T.N w D +.g.F.F.D.m.p.O.% ; [ l r h ( #.B.",
"~ p.p.p.p.p.( & $ % b J..XF.D.B.j.p.p.p.p.p.p.p.( * r Y.[.B.V.G.B.p.p.p.p.p.X.& & & 2 U.b o [ F.=X=XF.B.j.p.O.% ~ p.[ : $ = ( B.",
"~ p.p.p.p.p.+.[ E & b I..XF.D.B.j.p.p.p.o.( +.p.( = > w -.B.Z.G.B.p.p.p.p.p.$.| ^ & w U.A & X.F.F.D.B.d.p.0.$.| o.p.O.= = = ( B.",
"~ p.p.p.p.p.0.0.( % v U..XF.D.B.j.p.p.p.( & ( a...& & % O.N.C.F.v.0.p.p.p.p.p.p.X.% 2 U.n = X.&XD.B.j.p.p.p.p.p.a.p.O.* * & ( B.",
"~ p.p.p.p.p.p.p.( $ 9 v w.F.D.B.j.p.p.p.( & E ( E & = & O.B.l..Xq.s.a.p.p.p.p.p.$.' &.>.;.$.h.&XD.B.j.p.p.p.p.p.p.p.3.C 9 $ ( B.",
"~ p.p.p.p.f.p.p.} * * * u.F.D.B.j.p.p.p.( & & & & & & & @.B.}.U.].B.j.p.p.p.p.p.p.p.6.7.j.G.&X*XF.B.j.p.p.p.p.p.p.p.;.P.m $ ( B.",
"( j.j.j.a.p.p.p.} * 9 v w.F.D.B.N.j.a.p.o.( ( ( ( ( ~ & ^ o.I L.J o.$.p.p.p.p.p.p.p.p.p.j.F.F.D.S.B.j.p.p.p.p.p.p.p.5.U.y $ W a.",
"X.B.B.B.j.p.0.p./ : b J.XXF.D.B.B.B.j.p.p.p.p.p.p.p.( & = % v U.b $ ( p.p.p.p.p.p.p.p.p.j.D.D.B.B.B.j.p.p.p.p.p.p.0.;.T.m $ E 0.",
"( j.B.B.j.p.o._ z w N H..XF.B.j.B.B.j.p.p.p.p.p.p.p.#.( ( ( x C v r x ' +.p.p.p.p.p.g.j.B.F.S.j.j.B.j.p.p.p.a.p.p.p.3.C 9 * E 0.",
"~ p.j.B.j.f./ : Z Y.U.U.OXF.j.0.j.B.j.p.p.p.p.p.p.p.p.0.0.p.' $ r U.Z % ! p.p.p.p.p.m.F.F.;XB.p.j.B.j.p.p.p.p.p.p.p.O.7 & & ~ p.",
"E p.j.B.$...z r v v L >.l.F.q.,.c.B.z.j.a.p.p.p.p.p.p.p.p.p.X.% w U.v $ / 0.$.( $.B.B.F.F.F.B.j.j.j.a.0.0.0.p.p.$.X.~ = = = ~ 0.",
"E p.j.B.| = n W.s $ ' 0.b.F.}.Y.[.l.b.B.j.p.p.p.p.p.p.p.p.p.| % e U.v $ ( 0.X.& X.F.F.F.D.B.B.B.j.p.p.p.p.p.p.p.o.= % & = & ~ 6.",
"# | o.o.~ & 9 v l ( t.d.j.z._.J.T.].e.D.j.p.p.p.p.p.p.p.p.p.| % w U.v $ E ) O.$.a.F.D.D.B.B.B.j.j.p.p.p.p.p.$.} ( & 5 h D +.0.d.",
"  = = & % * * & X.p.j.B.a.4.U J.H.E.}.B.j.p.p.p.p.p.p.p.p.p.| % w I.v $ = = o.F.F.F.D.B.B.B.j.p.p.0.0.0.0.0.O.= & & 9 R.'.$XD.B.",
"  & = * 1 a x +.a.B.B.B.$.( x b N U.}.Z.B.j.g.p.p.p.p.p.p.p.X.% w I.v $ Y & o.F.D.D.B.j.j.j.a.p.p.p.$.[ [ [ ( = E #.5.[..XZ.S.B.",
"  % = $ n Y.XX%XF.Z.Z.B.X.& & : e T..XF.D.B.j.p.p.p.p.p.p.p.X.% w I.b * Y & o.F.F.B.j.p.p.p.p.p.p.p.@.= & & & # } F.F.&XF.V.B.D.",
"  % = 4 c P.|.G.D.Z.v.h.' % = $ r U.}.F.D.B.j.p.p.p.#.( | X.! % w I.b * Y & o.F.B.j.j.p.p.p.p.p.0.>.=.O.#.#.o.O.p.F.Z.B.m.j.j.j.",
"  % & 4 c E.|.F.S.B.j.u.Q % % % b U.{.$X%XF.m.p.p.p.( & & & = % w U.n $ & & o.F.B.p.p.p.p.p.p.p.<.P._.@XF.;XG.F.D.F.D.p.p.p.p.0.",
"  % & 4 b E..X&XB.B.j.0.O.( d $ C I.T. X+XF.D.m.g.p.( & & & = % r U.C o & & o.F.B.j.a.p.p.p.7.>.^.H.`.@XF.F.D.D.B.v.j.p.p.p.p.p.",
"  % & $ n /.oX&XB.B.j.0.0.0.( $ v U.H.P..XF.F.B.j.p.( & & & & * r U.v o & & o.F.D.B.j.f.a.7.>.^.I.U.].$XD.D.B.B.j.p.p.0.0.p.p.p.",
"# ( T * 1 S w.&XB.B.j.0.0.0.O.! z b N H.[.F.D.D.j.p.( & & & E ! A U.I { ^ = ^ $.j.B.j.i.7.,.J t J ].OXC.V.B.v.j.j.p.p.p.0.p.$.X.",
"~ p.^ * $ $ 0.F.B.B.j.p.0.0.p.p./ o v I.[.F.F.F.B.p.( & & & ^ 4.I P..X%X0.= & & | B.m.6.>.W.b : ` @XC.B.B.B.j.p.p.p.p.p.p.p.o.= "
};
